<?xml version="1.0" encoding="utf-8" standalone="no"?>
<!DOCTYPE svg PUBLIC "-//W3C//DTD SVG 1.1//EN"
  "http://www.w3.org/Graphics/SVG/1.1/DTD/svg11.dtd">
<svg xmlns:xlink="http://www.w3.org/1999/xlink" width="432pt" height="432pt" viewBox="0 0 432 432" xmlns="http://www.w3.org/2000/svg" version="1.1">
 <metadata>
  <rdf:RDF xmlns:dc="http://purl.org/dc/elements/1.1/" xmlns:cc="http://creativecommons.org/ns#" xmlns:rdf="http://www.w3.org/1999/02/22-rdf-syntax-ns#">
   <cc:Work>
    <dc:type rdf:resource="http://purl.org/dc/dcmitype/StillImage"/>
    <dc:date>2025-01-25T01:10:43.739761</dc:date>
    <dc:format>image/svg+xml</dc:format>
    <dc:creator>
     <cc:Agent>
      <dc:title>Matplotlib v3.10.0, https://matplotlib.org/</dc:title>
     </cc:Agent>
    </dc:creator>
   </cc:Work>
  </rdf:RDF>
 </metadata>
 <defs>
  <style type="text/css">*{stroke-linejoin: round; stroke-linecap: butt}</style>
 </defs>
 <g id="figure_1">
  <g id="patch_1">
   <path d="M 0 432 
L 432 432 
L 432 0 
L 0 0 
z
" style="fill: #ffffff"/>
  </g>
  <g id="axes_1">
   <g id="patch_2">
    <path d="M 78.42 148.225714 
L 203.04 148.225714 
L 203.04 50.434286 
L 78.42 50.434286 
z
" style="fill: #ffffff"/>
   </g>
   <g id="matplotlib.axis_1">
    <g id="xtick_1">
     <g id="line2d_1">
      <defs>
       <path id="m3f4d476b1a" d="M 0 0 
L 0 -9 
" style="stroke: #262626; stroke-width: 1.875"/>
      </defs>
      <g>
       <use xlink:href="#m3f4d476b1a" x="140.73" y="148.225714" style="fill: #262626; stroke: #262626; stroke-width: 1.875"/>
      </g>
     </g>
     <g id="text_1">
      <!-- T -->
      <g style="fill: #262626" transform="translate(133.400625 168.904464) scale(0.24 -0.24)">
       <defs>
        <path id="ArialMT-54" d="M 1659 0 
L 1659 4041 
L 150 4041 
L 150 4581 
L 3781 4581 
L 3781 4041 
L 2266 4041 
L 2266 0 
L 1659 0 
z
" transform="scale(0.015625)"/>
       </defs>
       <use xlink:href="#ArialMT-54"/>
      </g>
     </g>
    </g>
    <g id="text_2">
     <!-- Time from cue -->
     <g style="fill: #262626" transform="translate(64.50375 194.853214) scale(0.24 -0.24)">
      <defs>
       <path id="ArialMT-69" d="M 425 3934 
L 425 4581 
L 988 4581 
L 988 3934 
L 425 3934 
z
M 425 0 
L 425 3319 
L 988 3319 
L 988 0 
L 425 0 
z
" transform="scale(0.015625)"/>
       <path id="ArialMT-6d" d="M 422 0 
L 422 3319 
L 925 3319 
L 925 2853 
Q 1081 3097 1340 3245 
Q 1600 3394 1931 3394 
Q 2300 3394 2536 3241 
Q 2772 3088 2869 2813 
Q 3263 3394 3894 3394 
Q 4388 3394 4653 3120 
Q 4919 2847 4919 2278 
L 4919 0 
L 4359 0 
L 4359 2091 
Q 4359 2428 4304 2576 
Q 4250 2725 4106 2815 
Q 3963 2906 3769 2906 
Q 3419 2906 3187 2673 
Q 2956 2441 2956 1928 
L 2956 0 
L 2394 0 
L 2394 2156 
Q 2394 2531 2256 2718 
Q 2119 2906 1806 2906 
Q 1569 2906 1367 2781 
Q 1166 2656 1075 2415 
Q 984 2175 984 1722 
L 984 0 
L 422 0 
z
" transform="scale(0.015625)"/>
       <path id="ArialMT-65" d="M 2694 1069 
L 3275 997 
Q 3138 488 2766 206 
Q 2394 -75 1816 -75 
Q 1088 -75 661 373 
Q 234 822 234 1631 
Q 234 2469 665 2931 
Q 1097 3394 1784 3394 
Q 2450 3394 2872 2941 
Q 3294 2488 3294 1666 
Q 3294 1616 3291 1516 
L 816 1516 
Q 847 969 1125 678 
Q 1403 388 1819 388 
Q 2128 388 2347 550 
Q 2566 713 2694 1069 
z
M 847 1978 
L 2700 1978 
Q 2663 2397 2488 2606 
Q 2219 2931 1791 2931 
Q 1403 2931 1139 2672 
Q 875 2413 847 1978 
z
" transform="scale(0.015625)"/>
       <path id="ArialMT-20" transform="scale(0.015625)"/>
       <path id="ArialMT-66" d="M 556 0 
L 556 2881 
L 59 2881 
L 59 3319 
L 556 3319 
L 556 3672 
Q 556 4006 616 4169 
Q 697 4388 901 4523 
Q 1106 4659 1475 4659 
Q 1713 4659 2000 4603 
L 1916 4113 
Q 1741 4144 1584 4144 
Q 1328 4144 1222 4034 
Q 1116 3925 1116 3625 
L 1116 3319 
L 1763 3319 
L 1763 2881 
L 1116 2881 
L 1116 0 
L 556 0 
z
" transform="scale(0.015625)"/>
       <path id="ArialMT-72" d="M 416 0 
L 416 3319 
L 922 3319 
L 922 2816 
Q 1116 3169 1280 3281 
Q 1444 3394 1641 3394 
Q 1925 3394 2219 3213 
L 2025 2691 
Q 1819 2813 1613 2813 
Q 1428 2813 1281 2702 
Q 1134 2591 1072 2394 
Q 978 2094 978 1738 
L 978 0 
L 416 0 
z
" transform="scale(0.015625)"/>
       <path id="ArialMT-6f" d="M 213 1659 
Q 213 2581 725 3025 
Q 1153 3394 1769 3394 
Q 2453 3394 2887 2945 
Q 3322 2497 3322 1706 
Q 3322 1066 3130 698 
Q 2938 331 2570 128 
Q 2203 -75 1769 -75 
Q 1072 -75 642 372 
Q 213 819 213 1659 
z
M 791 1659 
Q 791 1022 1069 705 
Q 1347 388 1769 388 
Q 2188 388 2466 706 
Q 2744 1025 2744 1678 
Q 2744 2294 2464 2611 
Q 2184 2928 1769 2928 
Q 1347 2928 1069 2612 
Q 791 2297 791 1659 
z
" transform="scale(0.015625)"/>
       <path id="ArialMT-63" d="M 2588 1216 
L 3141 1144 
Q 3050 572 2676 248 
Q 2303 -75 1759 -75 
Q 1078 -75 664 370 
Q 250 816 250 1647 
Q 250 2184 428 2587 
Q 606 2991 970 3192 
Q 1334 3394 1763 3394 
Q 2303 3394 2647 3120 
Q 2991 2847 3088 2344 
L 2541 2259 
Q 2463 2594 2264 2762 
Q 2066 2931 1784 2931 
Q 1359 2931 1093 2626 
Q 828 2322 828 1663 
Q 828 994 1084 691 
Q 1341 388 1753 388 
Q 2084 388 2306 591 
Q 2528 794 2588 1216 
z
" transform="scale(0.015625)"/>
       <path id="ArialMT-75" d="M 2597 0 
L 2597 488 
Q 2209 -75 1544 -75 
Q 1250 -75 995 37 
Q 741 150 617 320 
Q 494 491 444 738 
Q 409 903 409 1263 
L 409 3319 
L 972 3319 
L 972 1478 
Q 972 1038 1006 884 
Q 1059 663 1231 536 
Q 1403 409 1656 409 
Q 1909 409 2131 539 
Q 2353 669 2445 892 
Q 2538 1116 2538 1541 
L 2538 3319 
L 3100 3319 
L 3100 0 
L 2597 0 
z
" transform="scale(0.015625)"/>
      </defs>
      <use xlink:href="#ArialMT-54"/>
      <use xlink:href="#ArialMT-69" transform="translate(57.333984 0)"/>
      <use xlink:href="#ArialMT-6d" transform="translate(79.550781 0)"/>
      <use xlink:href="#ArialMT-65" transform="translate(162.851562 0)"/>
      <use xlink:href="#ArialMT-20" transform="translate(218.466797 0)"/>
      <use xlink:href="#ArialMT-66" transform="translate(246.25 0)"/>
      <use xlink:href="#ArialMT-72" transform="translate(274.033203 0)"/>
      <use xlink:href="#ArialMT-6f" transform="translate(307.333984 0)"/>
      <use xlink:href="#ArialMT-6d" transform="translate(362.949219 0)"/>
      <use xlink:href="#ArialMT-20" transform="translate(446.25 0)"/>
      <use xlink:href="#ArialMT-63" transform="translate(474.033203 0)"/>
      <use xlink:href="#ArialMT-75" transform="translate(524.033203 0)"/>
      <use xlink:href="#ArialMT-65" transform="translate(579.648438 0)"/>
     </g>
    </g>
   </g>
   <g id="matplotlib.axis_2">
    <g id="ytick_1">
     <g id="line2d_2">
      <defs>
       <path id="m85227ea228" d="M 0 0 
L 9 0 
" style="stroke: #262626; stroke-width: 1.875"/>
      </defs>
      <g>
       <use xlink:href="#m85227ea228" x="78.42" y="143.780649" style="fill: #262626; stroke: #262626; stroke-width: 1.875"/>
      </g>
     </g>
     <g id="text_3">
      <!-- 0 -->
      <g style="fill: #262626" transform="translate(61.57375 152.370024) scale(0.24 -0.24)">
       <defs>
        <path id="ArialMT-30" d="M 266 2259 
Q 266 3072 433 3567 
Q 600 4063 929 4331 
Q 1259 4600 1759 4600 
Q 2128 4600 2406 4451 
Q 2684 4303 2865 4023 
Q 3047 3744 3150 3342 
Q 3253 2941 3253 2259 
Q 3253 1453 3087 958 
Q 2922 463 2592 192 
Q 2263 -78 1759 -78 
Q 1097 -78 719 397 
Q 266 969 266 2259 
z
M 844 2259 
Q 844 1131 1108 757 
Q 1372 384 1759 384 
Q 2147 384 2411 759 
Q 2675 1134 2675 2259 
Q 2675 3391 2411 3762 
Q 2147 4134 1753 4134 
Q 1366 4134 1134 3806 
Q 844 3388 844 2259 
z
" transform="scale(0.015625)"/>
       </defs>
       <use xlink:href="#ArialMT-30"/>
      </g>
     </g>
    </g>
    <g id="ytick_2">
     <g id="line2d_3">
      <g>
       <use xlink:href="#m85227ea228" x="78.42" y="77.104675" style="fill: #262626; stroke: #262626; stroke-width: 1.875"/>
      </g>
     </g>
     <g id="text_4">
      <!-- η -->
      <g style="fill: #262626" transform="translate(61.57375 85.69405) scale(0.24 -0.24)">
       <defs>
        <path id="ArialMT-3b7" d="M 434 0 
L 434 3319 
L 941 3319 
L 941 2847 
Q 1306 3394 1997 3394 
Q 2403 3394 2678 3219 
Q 2953 3044 3042 2786 
Q 3131 2528 3131 2041 
L 3131 -1272 
L 2569 -1272 
L 2569 2019 
Q 2569 2481 2406 2693 
Q 2244 2906 1872 2906 
Q 1506 2906 1251 2672 
Q 997 2438 997 1813 
L 997 0 
L 434 0 
z
" transform="scale(0.015625)"/>
       </defs>
       <use xlink:href="#ArialMT-3b7"/>
      </g>
     </g>
    </g>
    <g id="text_5">
     <!-- Δw -->
     <g style="fill: #262626" transform="translate(52.80375 116.011875) rotate(-90) scale(0.24 -0.24)">
      <defs>
       <path id="ArialMT-394" d="M -6 0 
L 1753 4581 
L 2406 4581 
L 4281 0 
L -6 0 
z
M 834 541 
L 3381 541 
L 2391 3150 
Q 2169 3738 2066 4100 
Q 1981 3675 1819 3225 
L 834 541 
z
" transform="scale(0.015625)"/>
       <path id="ArialMT-77" d="M 1034 0 
L 19 3319 
L 600 3319 
L 1128 1403 
L 1325 691 
Q 1338 744 1497 1375 
L 2025 3319 
L 2603 3319 
L 3100 1394 
L 3266 759 
L 3456 1400 
L 4025 3319 
L 4572 3319 
L 3534 0 
L 2950 0 
L 2422 1988 
L 2294 2553 
L 1622 0 
L 1034 0 
z
" transform="scale(0.015625)"/>
      </defs>
      <use xlink:href="#ArialMT-394"/>
      <use xlink:href="#ArialMT-77" transform="translate(66.796875 0)"/>
     </g>
    </g>
   </g>
   <g id="FillBetweenPolyCollection_1">
    <defs>
     <path id="mde6d144447" d="M 78.42 -288.219351 
L 78.42 -288.219351 
L 79.678788 -288.219351 
L 80.937576 -288.219351 
L 82.196364 -288.219351 
L 83.455152 -288.219351 
L 84.713939 -288.219351 
L 85.972727 -288.219351 
L 87.231515 -288.219351 
L 88.490303 -288.219351 
L 89.749091 -288.219351 
L 91.007879 -288.219351 
L 92.266667 -288.219351 
L 93.525455 -288.219351 
L 94.784242 -288.219351 
L 96.04303 -288.219351 
L 97.301818 -288.219351 
L 98.560606 -288.219351 
L 99.819394 -288.219351 
L 101.078182 -288.219351 
L 102.33697 -288.219351 
L 103.595758 -288.219352 
L 104.854545 -288.219355 
L 106.113333 -288.219364 
L 107.372121 -288.21939 
L 108.630909 -288.219465 
L 109.889697 -288.219667 
L 111.148485 -288.220193 
L 112.407273 -288.221504 
L 113.666061 -288.224636 
L 114.924848 -288.231803 
L 116.183636 -288.247518 
L 117.442424 -288.280518 
L 118.701212 -288.346865 
L 119.96 -288.474547 
L 121.218788 -288.709655 
L 122.477576 -289.123694 
L 123.736364 -289.820664 
L 124.995152 -290.941393 
L 126.253939 -292.661456 
L 127.512727 -295.178534 
L 128.771515 -298.685893 
L 130.030303 -303.331412 
L 131.289091 -309.166247 
L 132.547879 -316.092829 
L 133.806667 -323.826577 
L 135.065455 -331.887082 
L 136.324242 -339.630655 
L 137.58303 -346.32684 
L 138.841818 -351.268772 
L 140.100606 -353.895185 
L 141.359394 -353.895185 
L 142.618182 -351.268772 
L 143.87697 -346.32684 
L 145.135758 -339.630655 
L 146.394545 -331.887082 
L 147.653333 -323.826577 
L 148.912121 -316.092829 
L 150.170909 -309.166247 
L 151.429697 -303.331412 
L 152.688485 -298.685893 
L 153.947273 -295.178534 
L 155.206061 -292.661456 
L 156.464848 -290.941393 
L 157.723636 -289.820664 
L 158.982424 -289.123694 
L 160.241212 -288.709655 
L 161.5 -288.474547 
L 162.758788 -288.346865 
L 164.017576 -288.280518 
L 165.276364 -288.247518 
L 166.535152 -288.231803 
L 167.793939 -288.224636 
L 169.052727 -288.221504 
L 170.311515 -288.220193 
L 171.570303 -288.219667 
L 172.829091 -288.219465 
L 174.087879 -288.21939 
L 175.346667 -288.219364 
L 176.605455 -288.219355 
L 177.864242 -288.219352 
L 179.12303 -288.219351 
L 180.381818 -288.219351 
L 181.640606 -288.219351 
L 182.899394 -288.219351 
L 184.158182 -288.219351 
L 185.41697 -288.219351 
L 186.675758 -288.219351 
L 187.934545 -288.219351 
L 189.193333 -288.219351 
L 190.452121 -288.219351 
L 191.710909 -288.219351 
L 192.969697 -288.219351 
L 194.228485 -288.219351 
L 195.487273 -288.219351 
L 196.746061 -288.219351 
L 198.004848 -288.219351 
L 199.263636 -288.219351 
L 200.522424 -288.219351 
L 201.781212 -288.219351 
L 203.04 -288.219351 
L 203.04 -288.219351 
L 203.04 -288.219351 
L 201.781212 -288.219351 
L 200.522424 -288.219351 
L 199.263636 -288.219351 
L 198.004848 -288.219351 
L 196.746061 -288.219351 
L 195.487273 -288.219351 
L 194.228485 -288.219351 
L 192.969697 -288.219351 
L 191.710909 -288.219351 
L 190.452121 -288.219351 
L 189.193333 -288.219351 
L 187.934545 -288.219351 
L 186.675758 -288.219351 
L 185.41697 -288.219351 
L 184.158182 -288.219351 
L 182.899394 -288.219351 
L 181.640606 -288.219351 
L 180.381818 -288.219351 
L 179.12303 -288.219351 
L 177.864242 -288.219351 
L 176.605455 -288.219351 
L 175.346667 -288.219351 
L 174.087879 -288.219351 
L 172.829091 -288.219351 
L 171.570303 -288.219351 
L 170.311515 -288.219351 
L 169.052727 -288.219351 
L 167.793939 -288.219351 
L 166.535152 -288.219351 
L 165.276364 -288.219351 
L 164.017576 -288.219351 
L 162.758788 -288.219351 
L 161.5 -288.219351 
L 160.241212 -288.219351 
L 158.982424 -288.219351 
L 157.723636 -288.219351 
L 156.464848 -288.219351 
L 155.206061 -288.219351 
L 153.947273 -288.219351 
L 152.688485 -288.219351 
L 151.429697 -288.219351 
L 150.170909 -288.219351 
L 148.912121 -288.219351 
L 147.653333 -288.219351 
L 146.394545 -288.219351 
L 145.135758 -288.219351 
L 143.87697 -288.219351 
L 142.618182 -288.219351 
L 141.359394 -288.219351 
L 140.100606 -288.219351 
L 138.841818 -288.219351 
L 137.58303 -288.219351 
L 136.324242 -288.219351 
L 135.065455 -288.219351 
L 133.806667 -288.219351 
L 132.547879 -288.219351 
L 131.289091 -288.219351 
L 130.030303 -288.219351 
L 128.771515 -288.219351 
L 127.512727 -288.219351 
L 126.253939 -288.219351 
L 124.995152 -288.219351 
L 123.736364 -288.219351 
L 122.477576 -288.219351 
L 121.218788 -288.219351 
L 119.96 -288.219351 
L 118.701212 -288.219351 
L 117.442424 -288.219351 
L 116.183636 -288.219351 
L 114.924848 -288.219351 
L 113.666061 -288.219351 
L 112.407273 -288.219351 
L 111.148485 -288.219351 
L 109.889697 -288.219351 
L 108.630909 -288.219351 
L 107.372121 -288.219351 
L 106.113333 -288.219351 
L 104.854545 -288.219351 
L 103.595758 -288.219351 
L 102.33697 -288.219351 
L 101.078182 -288.219351 
L 99.819394 -288.219351 
L 98.560606 -288.219351 
L 97.301818 -288.219351 
L 96.04303 -288.219351 
L 94.784242 -288.219351 
L 93.525455 -288.219351 
L 92.266667 -288.219351 
L 91.007879 -288.219351 
L 89.749091 -288.219351 
L 88.490303 -288.219351 
L 87.231515 -288.219351 
L 85.972727 -288.219351 
L 84.713939 -288.219351 
L 83.455152 -288.219351 
L 82.196364 -288.219351 
L 80.937576 -288.219351 
L 79.678788 -288.219351 
L 78.42 -288.219351 
z
" style="stroke: #4c72b0; stroke-width: 1.5"/>
    </defs>
    <g clip-path="url(#p63fbc0d3a4)">
     <use xlink:href="#mde6d144447" x="0" y="432" style="fill: #4c72b0; stroke: #4c72b0; stroke-width: 1.5"/>
    </g>
   </g>
   <g id="line2d_4">
    <path d="M 78.42 143.780649 
L 79.678788 143.780649 
L 80.937576 143.780649 
L 82.196364 143.780649 
L 83.455152 143.780649 
L 84.713939 143.780649 
L 85.972727 143.780649 
L 87.231515 143.780649 
L 88.490303 143.780649 
L 89.749091 143.780649 
L 91.007879 143.780649 
L 92.266667 143.780649 
L 93.525455 143.780649 
L 94.784242 143.780649 
L 96.04303 143.780649 
L 97.301818 143.780649 
L 98.560606 143.780649 
L 99.819394 143.780649 
L 101.078182 143.780649 
L 102.33697 143.780649 
L 103.595758 143.780648 
L 104.854545 143.780645 
L 106.113333 143.780636 
L 107.372121 143.78061 
L 108.630909 143.780535 
L 109.889697 143.780333 
L 111.148485 143.779807 
L 112.407273 143.778496 
L 113.666061 143.775364 
L 114.924848 143.768197 
L 116.183636 143.752482 
L 117.442424 143.719482 
L 118.701212 143.653135 
L 119.96 143.525453 
L 121.218788 143.290345 
L 122.477576 142.876306 
L 123.736364 142.179336 
L 124.995152 141.058607 
L 126.253939 139.338544 
L 127.512727 136.821466 
L 128.771515 133.314107 
L 130.030303 128.668588 
L 131.289091 122.833753 
L 132.547879 115.907171 
L 133.806667 108.173423 
L 135.065455 100.112918 
L 136.324242 92.369345 
L 137.58303 85.67316 
L 138.841818 80.731228 
L 140.100606 78.104815 
L 141.359394 78.104815 
L 142.618182 80.731228 
L 143.87697 85.67316 
L 145.135758 92.369345 
L 146.394545 100.112918 
L 147.653333 108.173423 
L 148.912121 115.907171 
L 150.170909 122.833753 
L 151.429697 128.668588 
L 152.688485 133.314107 
L 153.947273 136.821466 
L 155.206061 139.338544 
L 156.464848 141.058607 
L 157.723636 142.179336 
L 158.982424 142.876306 
L 160.241212 143.290345 
L 161.5 143.525453 
L 162.758788 143.653135 
L 164.017576 143.719482 
L 165.276364 143.752482 
L 166.535152 143.768197 
L 167.793939 143.775364 
L 169.052727 143.778496 
L 170.311515 143.779807 
L 171.570303 143.780333 
L 172.829091 143.780535 
L 174.087879 143.78061 
L 175.346667 143.780636 
L 176.605455 143.780645 
L 177.864242 143.780648 
L 179.12303 143.780649 
L 180.381818 143.780649 
L 181.640606 143.780649 
L 182.899394 143.780649 
L 184.158182 143.780649 
L 185.41697 143.780649 
L 186.675758 143.780649 
L 187.934545 143.780649 
L 189.193333 143.780649 
L 190.452121 143.780649 
L 191.710909 143.780649 
L 192.969697 143.780649 
L 194.228485 143.780649 
L 195.487273 143.780649 
L 196.746061 143.780649 
L 198.004848 143.780649 
L 199.263636 143.780649 
L 200.522424 143.780649 
L 201.781212 143.780649 
L 203.04 143.780649 
" clip-path="url(#p63fbc0d3a4)" style="fill: none; stroke: #4c72b0; stroke-width: 2.25; stroke-linecap: round"/>
   </g>
   <g id="patch_3">
    <path d="M 78.42 148.225714 
L 78.42 50.434286 
" style="fill: none; stroke: #262626; stroke-width: 3; stroke-linejoin: miter; stroke-linecap: square"/>
   </g>
   <g id="patch_4">
    <path d="M 78.42 148.225714 
L 203.04 148.225714 
" style="fill: none; stroke: #262626; stroke-width: 3; stroke-linejoin: miter; stroke-linecap: square"/>
   </g>
   <g id="text_6">
    <!-- Acquisition start -->
    <g style="fill: #262626" transform="translate(56.030625 44.434286) scale(0.24 -0.24)">
     <defs>
      <path id="ArialMT-41" d="M -9 0 
L 1750 4581 
L 2403 4581 
L 4278 0 
L 3588 0 
L 3053 1388 
L 1138 1388 
L 634 0 
L -9 0 
z
M 1313 1881 
L 2866 1881 
L 2388 3150 
Q 2169 3728 2063 4100 
Q 1975 3659 1816 3225 
L 1313 1881 
z
" transform="scale(0.015625)"/>
      <path id="ArialMT-71" d="M 2538 -1272 
L 2538 353 
Q 2406 169 2170 47 
Q 1934 -75 1669 -75 
Q 1078 -75 651 397 
Q 225 869 225 1691 
Q 225 2191 398 2587 
Q 572 2984 901 3189 
Q 1231 3394 1625 3394 
Q 2241 3394 2594 2875 
L 2594 3319 
L 3100 3319 
L 3100 -1272 
L 2538 -1272 
z
M 803 1669 
Q 803 1028 1072 708 
Q 1341 388 1716 388 
Q 2075 388 2334 692 
Q 2594 997 2594 1619 
Q 2594 2281 2320 2615 
Q 2047 2950 1678 2950 
Q 1313 2950 1058 2639 
Q 803 2328 803 1669 
z
" transform="scale(0.015625)"/>
      <path id="ArialMT-73" d="M 197 991 
L 753 1078 
Q 800 744 1014 566 
Q 1228 388 1613 388 
Q 2000 388 2187 545 
Q 2375 703 2375 916 
Q 2375 1106 2209 1216 
Q 2094 1291 1634 1406 
Q 1016 1563 777 1677 
Q 538 1791 414 1992 
Q 291 2194 291 2438 
Q 291 2659 392 2848 
Q 494 3038 669 3163 
Q 800 3259 1026 3326 
Q 1253 3394 1513 3394 
Q 1903 3394 2198 3281 
Q 2494 3169 2634 2976 
Q 2775 2784 2828 2463 
L 2278 2388 
Q 2241 2644 2061 2787 
Q 1881 2931 1553 2931 
Q 1166 2931 1000 2803 
Q 834 2675 834 2503 
Q 834 2394 903 2306 
Q 972 2216 1119 2156 
Q 1203 2125 1616 2013 
Q 2213 1853 2448 1751 
Q 2684 1650 2818 1456 
Q 2953 1263 2953 975 
Q 2953 694 2789 445 
Q 2625 197 2315 61 
Q 2006 -75 1616 -75 
Q 969 -75 630 194 
Q 291 463 197 991 
z
" transform="scale(0.015625)"/>
      <path id="ArialMT-74" d="M 1650 503 
L 1731 6 
Q 1494 -44 1306 -44 
Q 1000 -44 831 53 
Q 663 150 594 308 
Q 525 466 525 972 
L 525 2881 
L 113 2881 
L 113 3319 
L 525 3319 
L 525 4141 
L 1084 4478 
L 1084 3319 
L 1650 3319 
L 1650 2881 
L 1084 2881 
L 1084 941 
Q 1084 700 1114 631 
Q 1144 563 1211 522 
Q 1278 481 1403 481 
Q 1497 481 1650 503 
z
" transform="scale(0.015625)"/>
      <path id="ArialMT-6e" d="M 422 0 
L 422 3319 
L 928 3319 
L 928 2847 
Q 1294 3394 1984 3394 
Q 2284 3394 2536 3286 
Q 2788 3178 2913 3003 
Q 3038 2828 3088 2588 
Q 3119 2431 3119 2041 
L 3119 0 
L 2556 0 
L 2556 2019 
Q 2556 2363 2490 2533 
Q 2425 2703 2258 2804 
Q 2091 2906 1866 2906 
Q 1506 2906 1245 2678 
Q 984 2450 984 1813 
L 984 0 
L 422 0 
z
" transform="scale(0.015625)"/>
      <path id="ArialMT-61" d="M 2588 409 
Q 2275 144 1986 34 
Q 1697 -75 1366 -75 
Q 819 -75 525 192 
Q 231 459 231 875 
Q 231 1119 342 1320 
Q 453 1522 633 1644 
Q 813 1766 1038 1828 
Q 1203 1872 1538 1913 
Q 2219 1994 2541 2106 
Q 2544 2222 2544 2253 
Q 2544 2597 2384 2738 
Q 2169 2928 1744 2928 
Q 1347 2928 1158 2789 
Q 969 2650 878 2297 
L 328 2372 
Q 403 2725 575 2942 
Q 747 3159 1072 3276 
Q 1397 3394 1825 3394 
Q 2250 3394 2515 3294 
Q 2781 3194 2906 3042 
Q 3031 2891 3081 2659 
Q 3109 2516 3109 2141 
L 3109 1391 
Q 3109 606 3145 398 
Q 3181 191 3288 0 
L 2700 0 
Q 2613 175 2588 409 
z
M 2541 1666 
Q 2234 1541 1622 1453 
Q 1275 1403 1131 1340 
Q 988 1278 909 1158 
Q 831 1038 831 891 
Q 831 666 1001 516 
Q 1172 366 1500 366 
Q 1825 366 2078 508 
Q 2331 650 2450 897 
Q 2541 1088 2541 1459 
L 2541 1666 
z
" transform="scale(0.015625)"/>
     </defs>
     <use xlink:href="#ArialMT-41"/>
     <use xlink:href="#ArialMT-63" transform="translate(66.699219 0)"/>
     <use xlink:href="#ArialMT-71" transform="translate(116.699219 0)"/>
     <use xlink:href="#ArialMT-75" transform="translate(172.314453 0)"/>
     <use xlink:href="#ArialMT-69" transform="translate(227.929688 0)"/>
     <use xlink:href="#ArialMT-73" transform="translate(250.146484 0)"/>
     <use xlink:href="#ArialMT-69" transform="translate(300.146484 0)"/>
     <use xlink:href="#ArialMT-74" transform="translate(322.363281 0)"/>
     <use xlink:href="#ArialMT-69" transform="translate(350.146484 0)"/>
     <use xlink:href="#ArialMT-6f" transform="translate(372.363281 0)"/>
     <use xlink:href="#ArialMT-6e" transform="translate(427.978516 0)"/>
     <use xlink:href="#ArialMT-20" transform="translate(483.59375 0)"/>
     <use xlink:href="#ArialMT-73" transform="translate(511.376953 0)"/>
     <use xlink:href="#ArialMT-74" transform="translate(561.376953 0)"/>
     <use xlink:href="#ArialMT-61" transform="translate(589.160156 0)"/>
     <use xlink:href="#ArialMT-72" transform="translate(644.775391 0)"/>
     <use xlink:href="#ArialMT-74" transform="translate(678.076172 0)"/>
    </g>
   </g>
  </g>
  <g id="axes_2">
   <g id="patch_5">
    <path d="M 281.46 148.225714 
L 406.08 148.225714 
L 406.08 50.434286 
L 281.46 50.434286 
z
" style="fill: #ffffff"/>
   </g>
   <g id="matplotlib.axis_3">
    <g id="xtick_2">
     <g id="line2d_5">
      <g>
       <use xlink:href="#m3f4d476b1a" x="343.77" y="148.225714" style="fill: #262626; stroke: #262626; stroke-width: 1.875"/>
      </g>
     </g>
     <g id="text_7">
      <!-- T -->
      <g style="fill: #262626" transform="translate(336.440625 168.904464) scale(0.24 -0.24)">
       <use xlink:href="#ArialMT-54"/>
      </g>
     </g>
    </g>
    <g id="text_8">
     <!-- Time from cue -->
     <g style="fill: #262626" transform="translate(267.54375 194.853214) scale(0.24 -0.24)">
      <use xlink:href="#ArialMT-54"/>
      <use xlink:href="#ArialMT-69" transform="translate(57.333984 0)"/>
      <use xlink:href="#ArialMT-6d" transform="translate(79.550781 0)"/>
      <use xlink:href="#ArialMT-65" transform="translate(162.851562 0)"/>
      <use xlink:href="#ArialMT-20" transform="translate(218.466797 0)"/>
      <use xlink:href="#ArialMT-66" transform="translate(246.25 0)"/>
      <use xlink:href="#ArialMT-72" transform="translate(274.033203 0)"/>
      <use xlink:href="#ArialMT-6f" transform="translate(307.333984 0)"/>
      <use xlink:href="#ArialMT-6d" transform="translate(362.949219 0)"/>
      <use xlink:href="#ArialMT-20" transform="translate(446.25 0)"/>
      <use xlink:href="#ArialMT-63" transform="translate(474.033203 0)"/>
      <use xlink:href="#ArialMT-75" transform="translate(524.033203 0)"/>
      <use xlink:href="#ArialMT-65" transform="translate(579.648438 0)"/>
     </g>
    </g>
   </g>
   <g id="matplotlib.axis_4">
    <g id="ytick_3">
     <g id="line2d_6">
      <g>
       <use xlink:href="#m85227ea228" x="281.46" y="143.780649" style="fill: #262626; stroke: #262626; stroke-width: 1.875"/>
      </g>
     </g>
     <g id="text_9">
      <!-- 0 -->
      <g style="fill: #262626" transform="translate(264.61375 152.370024) scale(0.24 -0.24)">
       <use xlink:href="#ArialMT-30"/>
      </g>
     </g>
    </g>
    <g id="ytick_4">
     <g id="line2d_7">
      <g>
       <use xlink:href="#m85227ea228" x="281.46" y="77.104675" style="fill: #262626; stroke: #262626; stroke-width: 1.875"/>
      </g>
     </g>
     <g id="text_10">
      <!-- η -->
      <g style="fill: #262626" transform="translate(264.61375 85.69405) scale(0.24 -0.24)">
       <use xlink:href="#ArialMT-3b7"/>
      </g>
     </g>
    </g>
    <g id="text_11">
     <!-- Δw -->
     <g style="fill: #262626" transform="translate(255.84375 116.011875) rotate(-90) scale(0.24 -0.24)">
      <use xlink:href="#ArialMT-394"/>
      <use xlink:href="#ArialMT-77" transform="translate(66.796875 0)"/>
     </g>
    </g>
   </g>
   <g id="FillBetweenPolyCollection_2">
    <defs>
     <path id="me62dbae1ef" d="M 281.46 -288.219351 
L 281.46 -288.219351 
L 282.718788 -288.219351 
L 283.977576 -288.219351 
L 285.236364 -288.219351 
L 286.495152 -288.219351 
L 287.753939 -288.219351 
L 289.012727 -288.219351 
L 290.271515 -288.219351 
L 291.530303 -288.219351 
L 292.789091 -288.219351 
L 294.047879 -288.219351 
L 295.306667 -288.219351 
L 296.565455 -288.219351 
L 297.824242 -288.219351 
L 299.08303 -288.219351 
L 300.341818 -288.219351 
L 301.600606 -288.219351 
L 302.859394 -288.219351 
L 304.118182 -288.219351 
L 305.37697 -288.219351 
L 306.635758 -288.219351 
L 307.894545 -288.219351 
L 309.153333 -288.219351 
L 310.412121 -288.219353 
L 311.670909 -288.219356 
L 312.929697 -288.219367 
L 314.188485 -288.219393 
L 315.447273 -288.219459 
L 316.706061 -288.219616 
L 317.964848 -288.219975 
L 319.223636 -288.220764 
L 320.482424 -288.222419 
L 321.741212 -288.225747 
L 323 -288.232152 
L 324.258788 -288.243945 
L 325.517576 -288.264714 
L 326.776364 -288.299676 
L 328.035152 -288.355893 
L 329.293939 -288.442175 
L 330.552727 -288.568436 
L 331.811515 -288.744372 
L 333.070303 -288.9774 
L 334.329091 -289.270086 
L 335.587879 -289.617536 
L 336.846667 -290.005475 
L 338.105455 -290.409805 
L 339.364242 -290.798237 
L 340.62303 -291.13413 
L 341.881818 -291.382027 
L 343.140606 -291.513773 
L 344.399394 -291.513773 
L 345.658182 -291.382027 
L 346.91697 -291.13413 
L 348.175758 -290.798237 
L 349.434545 -290.409805 
L 350.693333 -290.005475 
L 351.952121 -289.617536 
L 353.210909 -289.270086 
L 354.469697 -288.9774 
L 355.728485 -288.744372 
L 356.987273 -288.568436 
L 358.246061 -288.442175 
L 359.504848 -288.355893 
L 360.763636 -288.299676 
L 362.022424 -288.264714 
L 363.281212 -288.243945 
L 364.54 -288.232152 
L 365.798788 -288.225747 
L 367.057576 -288.222419 
L 368.316364 -288.220764 
L 369.575152 -288.219975 
L 370.833939 -288.219616 
L 372.092727 -288.219459 
L 373.351515 -288.219393 
L 374.610303 -288.219367 
L 375.869091 -288.219356 
L 377.127879 -288.219353 
L 378.386667 -288.219351 
L 379.645455 -288.219351 
L 380.904242 -288.219351 
L 382.16303 -288.219351 
L 383.421818 -288.219351 
L 384.680606 -288.219351 
L 385.939394 -288.219351 
L 387.198182 -288.219351 
L 388.45697 -288.219351 
L 389.715758 -288.219351 
L 390.974545 -288.219351 
L 392.233333 -288.219351 
L 393.492121 -288.219351 
L 394.750909 -288.219351 
L 396.009697 -288.219351 
L 397.268485 -288.219351 
L 398.527273 -288.219351 
L 399.786061 -288.219351 
L 401.044848 -288.219351 
L 402.303636 -288.219351 
L 403.562424 -288.219351 
L 404.821212 -288.219351 
L 406.08 -288.219351 
L 406.08 -288.219351 
L 406.08 -288.219351 
L 404.821212 -288.219351 
L 403.562424 -288.219351 
L 402.303636 -288.219351 
L 401.044848 -288.219351 
L 399.786061 -288.219351 
L 398.527273 -288.219351 
L 397.268485 -288.219351 
L 396.009697 -288.219351 
L 394.750909 -288.219351 
L 393.492121 -288.219351 
L 392.233333 -288.219351 
L 390.974545 -288.219351 
L 389.715758 -288.219351 
L 388.45697 -288.219351 
L 387.198182 -288.219351 
L 385.939394 -288.219351 
L 384.680606 -288.219351 
L 383.421818 -288.219351 
L 382.16303 -288.219351 
L 380.904242 -288.219351 
L 379.645455 -288.219351 
L 378.386667 -288.219351 
L 377.127879 -288.219351 
L 375.869091 -288.219351 
L 374.610303 -288.219351 
L 373.351515 -288.219351 
L 372.092727 -288.219351 
L 370.833939 -288.219351 
L 369.575152 -288.219351 
L 368.316364 -288.219351 
L 367.057576 -288.219351 
L 365.798788 -288.219351 
L 364.54 -288.219351 
L 363.281212 -288.219351 
L 362.022424 -288.219351 
L 360.763636 -288.219351 
L 359.504848 -288.219351 
L 358.246061 -288.219351 
L 356.987273 -288.219351 
L 355.728485 -288.219351 
L 354.469697 -288.219351 
L 353.210909 -288.219351 
L 351.952121 -288.219351 
L 350.693333 -288.219351 
L 349.434545 -288.219351 
L 348.175758 -288.219351 
L 346.91697 -288.219351 
L 345.658182 -288.219351 
L 344.399394 -288.219351 
L 343.140606 -288.219351 
L 341.881818 -288.219351 
L 340.62303 -288.219351 
L 339.364242 -288.219351 
L 338.105455 -288.219351 
L 336.846667 -288.219351 
L 335.587879 -288.219351 
L 334.329091 -288.219351 
L 333.070303 -288.219351 
L 331.811515 -288.219351 
L 330.552727 -288.219351 
L 329.293939 -288.219351 
L 328.035152 -288.219351 
L 326.776364 -288.219351 
L 325.517576 -288.219351 
L 324.258788 -288.219351 
L 323 -288.219351 
L 321.741212 -288.219351 
L 320.482424 -288.219351 
L 319.223636 -288.219351 
L 317.964848 -288.219351 
L 316.706061 -288.219351 
L 315.447273 -288.219351 
L 314.188485 -288.219351 
L 312.929697 -288.219351 
L 311.670909 -288.219351 
L 310.412121 -288.219351 
L 309.153333 -288.219351 
L 307.894545 -288.219351 
L 306.635758 -288.219351 
L 305.37697 -288.219351 
L 304.118182 -288.219351 
L 302.859394 -288.219351 
L 301.600606 -288.219351 
L 300.341818 -288.219351 
L 299.08303 -288.219351 
L 297.824242 -288.219351 
L 296.565455 -288.219351 
L 295.306667 -288.219351 
L 294.047879 -288.219351 
L 292.789091 -288.219351 
L 291.530303 -288.219351 
L 290.271515 -288.219351 
L 289.012727 -288.219351 
L 287.753939 -288.219351 
L 286.495152 -288.219351 
L 285.236364 -288.219351 
L 283.977576 -288.219351 
L 282.718788 -288.219351 
L 281.46 -288.219351 
z
" style="stroke: #4c72b0; stroke-width: 1.5"/>
    </defs>
    <g clip-path="url(#p6ebd481a64)">
     <use xlink:href="#me62dbae1ef" x="0" y="432" style="fill: #4c72b0; stroke: #4c72b0; stroke-width: 1.5"/>
    </g>
   </g>
   <g id="line2d_8">
    <path d="M 281.46 143.780649 
L 282.718788 143.780649 
L 283.977576 143.780649 
L 285.236364 143.780649 
L 286.495152 143.780649 
L 287.753939 143.780649 
L 289.012727 143.780649 
L 290.271515 143.780649 
L 291.530303 143.780649 
L 292.789091 143.780649 
L 294.047879 143.780649 
L 295.306667 143.780649 
L 296.565455 143.780649 
L 297.824242 143.780649 
L 299.08303 143.780649 
L 300.341818 143.780649 
L 301.600606 143.780649 
L 302.859394 143.780649 
L 304.118182 143.780649 
L 305.37697 143.780649 
L 306.635758 143.780649 
L 307.894545 143.780649 
L 309.153333 143.780649 
L 310.412121 143.780647 
L 311.670909 143.780644 
L 312.929697 143.780633 
L 314.188485 143.780607 
L 315.447273 143.780541 
L 316.706061 143.780384 
L 317.964848 143.780025 
L 319.223636 143.779236 
L 320.482424 143.777581 
L 321.741212 143.774253 
L 323 143.767848 
L 324.258788 143.756055 
L 325.517576 143.735286 
L 326.776364 143.700324 
L 328.035152 143.644107 
L 329.293939 143.557825 
L 330.552727 143.431564 
L 331.811515 143.255628 
L 333.070303 143.0226 
L 334.329091 142.729914 
L 335.587879 142.382464 
L 336.846667 141.994525 
L 338.105455 141.590195 
L 339.364242 141.201763 
L 340.62303 140.86587 
L 341.881818 140.617973 
L 343.140606 140.486227 
L 344.399394 140.486227 
L 345.658182 140.617973 
L 346.91697 140.86587 
L 348.175758 141.201763 
L 349.434545 141.590195 
L 350.693333 141.994525 
L 351.952121 142.382464 
L 353.210909 142.729914 
L 354.469697 143.0226 
L 355.728485 143.255628 
L 356.987273 143.431564 
L 358.246061 143.557825 
L 359.504848 143.644107 
L 360.763636 143.700324 
L 362.022424 143.735286 
L 363.281212 143.756055 
L 364.54 143.767848 
L 365.798788 143.774253 
L 367.057576 143.777581 
L 368.316364 143.779236 
L 369.575152 143.780025 
L 370.833939 143.780384 
L 372.092727 143.780541 
L 373.351515 143.780607 
L 374.610303 143.780633 
L 375.869091 143.780644 
L 377.127879 143.780647 
L 378.386667 143.780649 
L 379.645455 143.780649 
L 380.904242 143.780649 
L 382.16303 143.780649 
L 383.421818 143.780649 
L 384.680606 143.780649 
L 385.939394 143.780649 
L 387.198182 143.780649 
L 388.45697 143.780649 
L 389.715758 143.780649 
L 390.974545 143.780649 
L 392.233333 143.780649 
L 393.492121 143.780649 
L 394.750909 143.780649 
L 396.009697 143.780649 
L 397.268485 143.780649 
L 398.527273 143.780649 
L 399.786061 143.780649 
L 401.044848 143.780649 
L 402.303636 143.780649 
L 403.562424 143.780649 
L 404.821212 143.780649 
L 406.08 143.780649 
" clip-path="url(#p6ebd481a64)" style="fill: none; stroke: #4c72b0; stroke-width: 2.25; stroke-linecap: round"/>
   </g>
   <g id="patch_6">
    <path d="M 281.46 148.225714 
L 281.46 50.434286 
" style="fill: none; stroke: #262626; stroke-width: 3; stroke-linejoin: miter; stroke-linecap: square"/>
   </g>
   <g id="patch_7">
    <path d="M 281.46 148.225714 
L 406.08 148.225714 
" style="fill: none; stroke: #262626; stroke-width: 3; stroke-linejoin: miter; stroke-linecap: square"/>
   </g>
   <g id="text_12">
    <!-- Acquisition end -->
    <g style="fill: #262626" transform="translate(262.3875 44.434286) scale(0.24 -0.24)">
     <defs>
      <path id="ArialMT-64" d="M 2575 0 
L 2575 419 
Q 2259 -75 1647 -75 
Q 1250 -75 917 144 
Q 584 363 401 755 
Q 219 1147 219 1656 
Q 219 2153 384 2558 
Q 550 2963 881 3178 
Q 1213 3394 1622 3394 
Q 1922 3394 2156 3267 
Q 2391 3141 2538 2938 
L 2538 4581 
L 3097 4581 
L 3097 0 
L 2575 0 
z
M 797 1656 
Q 797 1019 1065 703 
Q 1334 388 1700 388 
Q 2069 388 2326 689 
Q 2584 991 2584 1609 
Q 2584 2291 2321 2609 
Q 2059 2928 1675 2928 
Q 1300 2928 1048 2622 
Q 797 2316 797 1656 
z
" transform="scale(0.015625)"/>
     </defs>
     <use xlink:href="#ArialMT-41"/>
     <use xlink:href="#ArialMT-63" transform="translate(66.699219 0)"/>
     <use xlink:href="#ArialMT-71" transform="translate(116.699219 0)"/>
     <use xlink:href="#ArialMT-75" transform="translate(172.314453 0)"/>
     <use xlink:href="#ArialMT-69" transform="translate(227.929688 0)"/>
     <use xlink:href="#ArialMT-73" transform="translate(250.146484 0)"/>
     <use xlink:href="#ArialMT-69" transform="translate(300.146484 0)"/>
     <use xlink:href="#ArialMT-74" transform="translate(322.363281 0)"/>
     <use xlink:href="#ArialMT-69" transform="translate(350.146484 0)"/>
     <use xlink:href="#ArialMT-6f" transform="translate(372.363281 0)"/>
     <use xlink:href="#ArialMT-6e" transform="translate(427.978516 0)"/>
     <use xlink:href="#ArialMT-20" transform="translate(483.59375 0)"/>
     <use xlink:href="#ArialMT-65" transform="translate(511.376953 0)"/>
     <use xlink:href="#ArialMT-6e" transform="translate(566.992188 0)"/>
     <use xlink:href="#ArialMT-64" transform="translate(622.607422 0)"/>
    </g>
   </g>
  </g>
  <g id="axes_3">
   <g id="patch_8">
    <path d="M 78.42 351.265714 
L 203.04 351.265714 
L 203.04 253.474286 
L 78.42 253.474286 
z
" style="fill: #ffffff"/>
   </g>
   <g id="matplotlib.axis_5">
    <g id="xtick_3">
     <g id="line2d_9">
      <g>
       <use xlink:href="#m3f4d476b1a" x="140.73" y="351.265714" style="fill: #262626; stroke: #262626; stroke-width: 1.875"/>
      </g>
     </g>
     <g id="text_13">
      <!-- T -->
      <g style="fill: #262626" transform="translate(133.400625 371.944464) scale(0.24 -0.24)">
       <use xlink:href="#ArialMT-54"/>
      </g>
     </g>
    </g>
    <g id="text_14">
     <!-- Time from cue -->
     <g style="fill: #262626" transform="translate(64.50375 397.893214) scale(0.24 -0.24)">
      <use xlink:href="#ArialMT-54"/>
      <use xlink:href="#ArialMT-69" transform="translate(57.333984 0)"/>
      <use xlink:href="#ArialMT-6d" transform="translate(79.550781 0)"/>
      <use xlink:href="#ArialMT-65" transform="translate(162.851562 0)"/>
      <use xlink:href="#ArialMT-20" transform="translate(218.466797 0)"/>
      <use xlink:href="#ArialMT-66" transform="translate(246.25 0)"/>
      <use xlink:href="#ArialMT-72" transform="translate(274.033203 0)"/>
      <use xlink:href="#ArialMT-6f" transform="translate(307.333984 0)"/>
      <use xlink:href="#ArialMT-6d" transform="translate(362.949219 0)"/>
      <use xlink:href="#ArialMT-20" transform="translate(446.25 0)"/>
      <use xlink:href="#ArialMT-63" transform="translate(474.033203 0)"/>
      <use xlink:href="#ArialMT-75" transform="translate(524.033203 0)"/>
      <use xlink:href="#ArialMT-65" transform="translate(579.648438 0)"/>
     </g>
    </g>
   </g>
   <g id="matplotlib.axis_6">
    <g id="ytick_5">
     <g id="line2d_10">
      <g>
       <use xlink:href="#m85227ea228" x="78.42" y="257.919351" style="fill: #262626; stroke: #262626; stroke-width: 1.875"/>
      </g>
     </g>
     <g id="text_15">
      <!-- 0 -->
      <g style="fill: #262626" transform="translate(61.57375 266.508726) scale(0.24 -0.24)">
       <use xlink:href="#ArialMT-30"/>
      </g>
     </g>
    </g>
    <g id="ytick_6">
     <g id="line2d_11">
      <g>
       <use xlink:href="#m85227ea228" x="78.42" y="324.595325" style="fill: #262626; stroke: #262626; stroke-width: 1.875"/>
      </g>
     </g>
     <g id="text_16">
      <!-- -η -->
      <g style="fill: #262626" transform="translate(53.5825 333.1847) scale(0.24 -0.24)">
       <defs>
        <path id="ArialMT-2d" d="M 203 1375 
L 203 1941 
L 1931 1941 
L 1931 1375 
L 203 1375 
z
" transform="scale(0.015625)"/>
       </defs>
       <use xlink:href="#ArialMT-2d"/>
       <use xlink:href="#ArialMT-3b7" transform="translate(33.300781 0)"/>
      </g>
     </g>
    </g>
    <g id="text_17">
     <!-- Δw -->
     <g style="fill: #262626" transform="translate(44.8125 319.051875) rotate(-90) scale(0.24 -0.24)">
      <use xlink:href="#ArialMT-394"/>
      <use xlink:href="#ArialMT-77" transform="translate(66.796875 0)"/>
     </g>
    </g>
   </g>
   <g id="FillBetweenPolyCollection_3">
    <defs>
     <path id="m43f997a337" d="M 78.42 -174.080649 
L 78.42 -174.080649 
L 79.678788 -174.080649 
L 80.937576 -174.080649 
L 82.196364 -174.080649 
L 83.455152 -174.080649 
L 84.713939 -174.080649 
L 85.972727 -174.080649 
L 87.231515 -174.080649 
L 88.490303 -174.080649 
L 89.749091 -174.080649 
L 91.007879 -174.080649 
L 92.266667 -174.080649 
L 93.525455 -174.080649 
L 94.784242 -174.080649 
L 96.04303 -174.080649 
L 97.301818 -174.080649 
L 98.560606 -174.080649 
L 99.819394 -174.080649 
L 101.078182 -174.080649 
L 102.33697 -174.080649 
L 103.595758 -174.080648 
L 104.854545 -174.080645 
L 106.113333 -174.080637 
L 107.372121 -174.080612 
L 108.630909 -174.080541 
L 109.889697 -174.080348 
L 111.148485 -174.079848 
L 112.407273 -174.078601 
L 113.666061 -174.075622 
L 114.924848 -174.068803 
L 116.183636 -174.053853 
L 117.442424 -174.022459 
L 118.701212 -173.959341 
L 119.96 -173.837873 
L 121.218788 -173.614207 
L 122.477576 -173.220319 
L 123.736364 -172.557269 
L 124.995152 -171.491084 
L 126.253939 -169.854734 
L 127.512727 -167.460158 
L 128.771515 -164.123496 
L 130.030303 -159.704066 
L 131.289091 -154.153202 
L 132.547879 -147.563726 
L 133.806667 -140.206366 
L 135.065455 -132.538152 
L 136.324242 -125.171446 
L 137.58303 -118.801153 
L 138.841818 -114.099736 
L 140.100606 -111.601146 
L 141.359394 -111.601146 
L 142.618182 -114.099736 
L 143.87697 -118.801153 
L 145.135758 -125.171446 
L 146.394545 -132.538152 
L 147.653333 -140.206366 
L 148.912121 -147.563726 
L 150.170909 -154.153202 
L 151.429697 -159.704066 
L 152.688485 -164.123496 
L 153.947273 -167.460158 
L 155.206061 -169.854734 
L 156.464848 -171.491084 
L 157.723636 -172.557269 
L 158.982424 -173.220319 
L 160.241212 -173.614207 
L 161.5 -173.837873 
L 162.758788 -173.959341 
L 164.017576 -174.022459 
L 165.276364 -174.053853 
L 166.535152 -174.068803 
L 167.793939 -174.075622 
L 169.052727 -174.078601 
L 170.311515 -174.079848 
L 171.570303 -174.080348 
L 172.829091 -174.080541 
L 174.087879 -174.080612 
L 175.346667 -174.080637 
L 176.605455 -174.080645 
L 177.864242 -174.080648 
L 179.12303 -174.080649 
L 180.381818 -174.080649 
L 181.640606 -174.080649 
L 182.899394 -174.080649 
L 184.158182 -174.080649 
L 185.41697 -174.080649 
L 186.675758 -174.080649 
L 187.934545 -174.080649 
L 189.193333 -174.080649 
L 190.452121 -174.080649 
L 191.710909 -174.080649 
L 192.969697 -174.080649 
L 194.228485 -174.080649 
L 195.487273 -174.080649 
L 196.746061 -174.080649 
L 198.004848 -174.080649 
L 199.263636 -174.080649 
L 200.522424 -174.080649 
L 201.781212 -174.080649 
L 203.04 -174.080649 
L 203.04 -174.080649 
L 203.04 -174.080649 
L 201.781212 -174.080649 
L 200.522424 -174.080649 
L 199.263636 -174.080649 
L 198.004848 -174.080649 
L 196.746061 -174.080649 
L 195.487273 -174.080649 
L 194.228485 -174.080649 
L 192.969697 -174.080649 
L 191.710909 -174.080649 
L 190.452121 -174.080649 
L 189.193333 -174.080649 
L 187.934545 -174.080649 
L 186.675758 -174.080649 
L 185.41697 -174.080649 
L 184.158182 -174.080649 
L 182.899394 -174.080649 
L 181.640606 -174.080649 
L 180.381818 -174.080649 
L 179.12303 -174.080649 
L 177.864242 -174.080649 
L 176.605455 -174.080649 
L 175.346667 -174.080649 
L 174.087879 -174.080649 
L 172.829091 -174.080649 
L 171.570303 -174.080649 
L 170.311515 -174.080649 
L 169.052727 -174.080649 
L 167.793939 -174.080649 
L 166.535152 -174.080649 
L 165.276364 -174.080649 
L 164.017576 -174.080649 
L 162.758788 -174.080649 
L 161.5 -174.080649 
L 160.241212 -174.080649 
L 158.982424 -174.080649 
L 157.723636 -174.080649 
L 156.464848 -174.080649 
L 155.206061 -174.080649 
L 153.947273 -174.080649 
L 152.688485 -174.080649 
L 151.429697 -174.080649 
L 150.170909 -174.080649 
L 148.912121 -174.080649 
L 147.653333 -174.080649 
L 146.394545 -174.080649 
L 145.135758 -174.080649 
L 143.87697 -174.080649 
L 142.618182 -174.080649 
L 141.359394 -174.080649 
L 140.100606 -174.080649 
L 138.841818 -174.080649 
L 137.58303 -174.080649 
L 136.324242 -174.080649 
L 135.065455 -174.080649 
L 133.806667 -174.080649 
L 132.547879 -174.080649 
L 131.289091 -174.080649 
L 130.030303 -174.080649 
L 128.771515 -174.080649 
L 127.512727 -174.080649 
L 126.253939 -174.080649 
L 124.995152 -174.080649 
L 123.736364 -174.080649 
L 122.477576 -174.080649 
L 121.218788 -174.080649 
L 119.96 -174.080649 
L 118.701212 -174.080649 
L 117.442424 -174.080649 
L 116.183636 -174.080649 
L 114.924848 -174.080649 
L 113.666061 -174.080649 
L 112.407273 -174.080649 
L 111.148485 -174.080649 
L 109.889697 -174.080649 
L 108.630909 -174.080649 
L 107.372121 -174.080649 
L 106.113333 -174.080649 
L 104.854545 -174.080649 
L 103.595758 -174.080649 
L 102.33697 -174.080649 
L 101.078182 -174.080649 
L 99.819394 -174.080649 
L 98.560606 -174.080649 
L 97.301818 -174.080649 
L 96.04303 -174.080649 
L 94.784242 -174.080649 
L 93.525455 -174.080649 
L 92.266667 -174.080649 
L 91.007879 -174.080649 
L 89.749091 -174.080649 
L 88.490303 -174.080649 
L 87.231515 -174.080649 
L 85.972727 -174.080649 
L 84.713939 -174.080649 
L 83.455152 -174.080649 
L 82.196364 -174.080649 
L 80.937576 -174.080649 
L 79.678788 -174.080649 
L 78.42 -174.080649 
z
" style="stroke: #c44e52; stroke-width: 1.5"/>
    </defs>
    <g clip-path="url(#p0b4c843115)">
     <use xlink:href="#m43f997a337" x="0" y="432" style="fill: #c44e52; stroke: #c44e52; stroke-width: 1.5"/>
    </g>
   </g>
   <g id="line2d_12">
    <path d="M 78.42 257.919351 
L 79.678788 257.919351 
L 80.937576 257.919351 
L 82.196364 257.919351 
L 83.455152 257.919351 
L 84.713939 257.919351 
L 85.972727 257.919351 
L 87.231515 257.919351 
L 88.490303 257.919351 
L 89.749091 257.919351 
L 91.007879 257.919351 
L 92.266667 257.919351 
L 93.525455 257.919351 
L 94.784242 257.919351 
L 96.04303 257.919351 
L 97.301818 257.919351 
L 98.560606 257.919351 
L 99.819394 257.919351 
L 101.078182 257.919351 
L 102.33697 257.919351 
L 103.595758 257.919352 
L 104.854545 257.919355 
L 106.113333 257.919363 
L 107.372121 257.919388 
L 108.630909 257.919459 
L 109.889697 257.919652 
L 111.148485 257.920152 
L 112.407273 257.921399 
L 113.666061 257.924378 
L 114.924848 257.931197 
L 116.183636 257.946147 
L 117.442424 257.977541 
L 118.701212 258.040659 
L 119.96 258.162127 
L 121.218788 258.385793 
L 122.477576 258.779681 
L 123.736364 259.442731 
L 124.995152 260.508916 
L 126.253939 262.145266 
L 127.512727 264.539842 
L 128.771515 267.876504 
L 130.030303 272.295934 
L 131.289091 277.846798 
L 132.547879 284.436274 
L 133.806667 291.793634 
L 135.065455 299.461848 
L 136.324242 306.828554 
L 137.58303 313.198847 
L 138.841818 317.900264 
L 140.100606 320.398854 
L 141.359394 320.398854 
L 142.618182 317.900264 
L 143.87697 313.198847 
L 145.135758 306.828554 
L 146.394545 299.461848 
L 147.653333 291.793634 
L 148.912121 284.436274 
L 150.170909 277.846798 
L 151.429697 272.295934 
L 152.688485 267.876504 
L 153.947273 264.539842 
L 155.206061 262.145266 
L 156.464848 260.508916 
L 157.723636 259.442731 
L 158.982424 258.779681 
L 160.241212 258.385793 
L 161.5 258.162127 
L 162.758788 258.040659 
L 164.017576 257.977541 
L 165.276364 257.946147 
L 166.535152 257.931197 
L 167.793939 257.924378 
L 169.052727 257.921399 
L 170.311515 257.920152 
L 171.570303 257.919652 
L 172.829091 257.919459 
L 174.087879 257.919388 
L 175.346667 257.919363 
L 176.605455 257.919355 
L 177.864242 257.919352 
L 179.12303 257.919351 
L 180.381818 257.919351 
L 181.640606 257.919351 
L 182.899394 257.919351 
L 184.158182 257.919351 
L 185.41697 257.919351 
L 186.675758 257.919351 
L 187.934545 257.919351 
L 189.193333 257.919351 
L 190.452121 257.919351 
L 191.710909 257.919351 
L 192.969697 257.919351 
L 194.228485 257.919351 
L 195.487273 257.919351 
L 196.746061 257.919351 
L 198.004848 257.919351 
L 199.263636 257.919351 
L 200.522424 257.919351 
L 201.781212 257.919351 
L 203.04 257.919351 
" clip-path="url(#p0b4c843115)" style="fill: none; stroke: #c44e52; stroke-width: 2.25; stroke-linecap: round"/>
   </g>
   <g id="patch_9">
    <path d="M 78.42 351.265714 
L 78.42 253.474286 
" style="fill: none; stroke: #262626; stroke-width: 3; stroke-linejoin: miter; stroke-linecap: square"/>
   </g>
   <g id="patch_10">
    <path d="M 78.42 351.265714 
L 203.04 351.265714 
" style="fill: none; stroke: #262626; stroke-width: 3; stroke-linejoin: miter; stroke-linecap: square"/>
   </g>
   <g id="text_18">
    <!-- Extinction start -->
    <g style="fill: #262626" transform="translate(62.03625 247.474286) scale(0.24 -0.24)">
     <defs>
      <path id="ArialMT-45" d="M 506 0 
L 506 4581 
L 3819 4581 
L 3819 4041 
L 1113 4041 
L 1113 2638 
L 3647 2638 
L 3647 2100 
L 1113 2100 
L 1113 541 
L 3925 541 
L 3925 0 
L 506 0 
z
" transform="scale(0.015625)"/>
      <path id="ArialMT-78" d="M 47 0 
L 1259 1725 
L 138 3319 
L 841 3319 
L 1350 2541 
Q 1494 2319 1581 2169 
Q 1719 2375 1834 2534 
L 2394 3319 
L 3066 3319 
L 1919 1756 
L 3153 0 
L 2463 0 
L 1781 1031 
L 1600 1309 
L 728 0 
L 47 0 
z
" transform="scale(0.015625)"/>
     </defs>
     <use xlink:href="#ArialMT-45"/>
     <use xlink:href="#ArialMT-78" transform="translate(66.699219 0)"/>
     <use xlink:href="#ArialMT-74" transform="translate(116.699219 0)"/>
     <use xlink:href="#ArialMT-69" transform="translate(144.482422 0)"/>
     <use xlink:href="#ArialMT-6e" transform="translate(166.699219 0)"/>
     <use xlink:href="#ArialMT-63" transform="translate(222.314453 0)"/>
     <use xlink:href="#ArialMT-74" transform="translate(272.314453 0)"/>
     <use xlink:href="#ArialMT-69" transform="translate(300.097656 0)"/>
     <use xlink:href="#ArialMT-6f" transform="translate(322.314453 0)"/>
     <use xlink:href="#ArialMT-6e" transform="translate(377.929688 0)"/>
     <use xlink:href="#ArialMT-20" transform="translate(433.544922 0)"/>
     <use xlink:href="#ArialMT-73" transform="translate(461.328125 0)"/>
     <use xlink:href="#ArialMT-74" transform="translate(511.328125 0)"/>
     <use xlink:href="#ArialMT-61" transform="translate(539.111328 0)"/>
     <use xlink:href="#ArialMT-72" transform="translate(594.726562 0)"/>
     <use xlink:href="#ArialMT-74" transform="translate(628.027344 0)"/>
    </g>
   </g>
  </g>
  <g id="axes_4">
   <g id="patch_11">
    <path d="M 281.46 351.265714 
L 406.08 351.265714 
L 406.08 253.474286 
L 281.46 253.474286 
z
" style="fill: #ffffff"/>
   </g>
   <g id="matplotlib.axis_7">
    <g id="xtick_4">
     <g id="line2d_13">
      <g>
       <use xlink:href="#m3f4d476b1a" x="343.77" y="351.265714" style="fill: #262626; stroke: #262626; stroke-width: 1.875"/>
      </g>
     </g>
     <g id="text_19">
      <!-- T -->
      <g style="fill: #262626" transform="translate(336.440625 371.944464) scale(0.24 -0.24)">
       <use xlink:href="#ArialMT-54"/>
      </g>
     </g>
    </g>
    <g id="text_20">
     <!-- Time from cue -->
     <g style="fill: #262626" transform="translate(267.54375 397.893214) scale(0.24 -0.24)">
      <use xlink:href="#ArialMT-54"/>
      <use xlink:href="#ArialMT-69" transform="translate(57.333984 0)"/>
      <use xlink:href="#ArialMT-6d" transform="translate(79.550781 0)"/>
      <use xlink:href="#ArialMT-65" transform="translate(162.851562 0)"/>
      <use xlink:href="#ArialMT-20" transform="translate(218.466797 0)"/>
      <use xlink:href="#ArialMT-66" transform="translate(246.25 0)"/>
      <use xlink:href="#ArialMT-72" transform="translate(274.033203 0)"/>
      <use xlink:href="#ArialMT-6f" transform="translate(307.333984 0)"/>
      <use xlink:href="#ArialMT-6d" transform="translate(362.949219 0)"/>
      <use xlink:href="#ArialMT-20" transform="translate(446.25 0)"/>
      <use xlink:href="#ArialMT-63" transform="translate(474.033203 0)"/>
      <use xlink:href="#ArialMT-75" transform="translate(524.033203 0)"/>
      <use xlink:href="#ArialMT-65" transform="translate(579.648438 0)"/>
     </g>
    </g>
   </g>
   <g id="matplotlib.axis_8">
    <g id="ytick_7">
     <g id="line2d_14">
      <g>
       <use xlink:href="#m85227ea228" x="281.46" y="257.919351" style="fill: #262626; stroke: #262626; stroke-width: 1.875"/>
      </g>
     </g>
     <g id="text_21">
      <!-- 0 -->
      <g style="fill: #262626" transform="translate(264.61375 266.508726) scale(0.24 -0.24)">
       <use xlink:href="#ArialMT-30"/>
      </g>
     </g>
    </g>
    <g id="ytick_8">
     <g id="line2d_15">
      <g>
       <use xlink:href="#m85227ea228" x="281.46" y="324.595325" style="fill: #262626; stroke: #262626; stroke-width: 1.875"/>
      </g>
     </g>
     <g id="text_22">
      <!-- -η -->
      <g style="fill: #262626" transform="translate(256.6225 333.1847) scale(0.24 -0.24)">
       <use xlink:href="#ArialMT-2d"/>
       <use xlink:href="#ArialMT-3b7" transform="translate(33.300781 0)"/>
      </g>
     </g>
    </g>
    <g id="text_23">
     <!-- Δw -->
     <g style="fill: #262626" transform="translate(247.8525 319.051875) rotate(-90) scale(0.24 -0.24)">
      <use xlink:href="#ArialMT-394"/>
      <use xlink:href="#ArialMT-77" transform="translate(66.796875 0)"/>
     </g>
    </g>
   </g>
   <g id="FillBetweenPolyCollection_4">
    <defs>
     <path id="mae7866cf92" d="M 281.46 -174.080649 
L 281.46 -174.080649 
L 282.718788 -174.080649 
L 283.977576 -174.080649 
L 285.236364 -174.080649 
L 286.495152 -174.080649 
L 287.753939 -174.080649 
L 289.012727 -174.080649 
L 290.271515 -174.080649 
L 291.530303 -174.080649 
L 292.789091 -174.080649 
L 294.047879 -174.080649 
L 295.306667 -174.080649 
L 296.565455 -174.080649 
L 297.824242 -174.080649 
L 299.08303 -174.080649 
L 300.341818 -174.080649 
L 301.600606 -174.080649 
L 302.859394 -174.080649 
L 304.118182 -174.080649 
L 305.37697 -174.080649 
L 306.635758 -174.080649 
L 307.894545 -174.080649 
L 309.153333 -174.080649 
L 310.412121 -174.080647 
L 311.670909 -174.080644 
L 312.929697 -174.080634 
L 314.188485 -174.080609 
L 315.447273 -174.080547 
L 316.706061 -174.080397 
L 317.964848 -174.080055 
L 319.223636 -174.079305 
L 320.482424 -174.07773 
L 321.741212 -174.074564 
L 323 -174.068471 
L 324.258788 -174.057252 
L 325.517576 -174.037494 
L 326.776364 -174.004234 
L 328.035152 -173.950752 
L 329.293939 -173.86867 
L 330.552727 -173.748553 
L 331.811515 -173.58118 
L 333.070303 -173.359493 
L 334.329091 -173.081052 
L 335.587879 -172.750511 
L 336.846667 -172.381452 
L 338.105455 -171.9968 
L 339.364242 -171.627273 
L 340.62303 -171.307727 
L 341.881818 -171.071895 
L 343.140606 -170.946561 
L 344.399394 -170.946561 
L 345.658182 -171.071895 
L 346.91697 -171.307727 
L 348.175758 -171.627273 
L 349.434545 -171.9968 
L 350.693333 -172.381452 
L 351.952121 -172.750511 
L 353.210909 -173.081052 
L 354.469697 -173.359493 
L 355.728485 -173.58118 
L 356.987273 -173.748553 
L 358.246061 -173.86867 
L 359.504848 -173.950752 
L 360.763636 -174.004234 
L 362.022424 -174.037494 
L 363.281212 -174.057252 
L 364.54 -174.068471 
L 365.798788 -174.074564 
L 367.057576 -174.07773 
L 368.316364 -174.079305 
L 369.575152 -174.080055 
L 370.833939 -174.080397 
L 372.092727 -174.080547 
L 373.351515 -174.080609 
L 374.610303 -174.080634 
L 375.869091 -174.080644 
L 377.127879 -174.080647 
L 378.386667 -174.080649 
L 379.645455 -174.080649 
L 380.904242 -174.080649 
L 382.16303 -174.080649 
L 383.421818 -174.080649 
L 384.680606 -174.080649 
L 385.939394 -174.080649 
L 387.198182 -174.080649 
L 388.45697 -174.080649 
L 389.715758 -174.080649 
L 390.974545 -174.080649 
L 392.233333 -174.080649 
L 393.492121 -174.080649 
L 394.750909 -174.080649 
L 396.009697 -174.080649 
L 397.268485 -174.080649 
L 398.527273 -174.080649 
L 399.786061 -174.080649 
L 401.044848 -174.080649 
L 402.303636 -174.080649 
L 403.562424 -174.080649 
L 404.821212 -174.080649 
L 406.08 -174.080649 
L 406.08 -174.080649 
L 406.08 -174.080649 
L 404.821212 -174.080649 
L 403.562424 -174.080649 
L 402.303636 -174.080649 
L 401.044848 -174.080649 
L 399.786061 -174.080649 
L 398.527273 -174.080649 
L 397.268485 -174.080649 
L 396.009697 -174.080649 
L 394.750909 -174.080649 
L 393.492121 -174.080649 
L 392.233333 -174.080649 
L 390.974545 -174.080649 
L 389.715758 -174.080649 
L 388.45697 -174.080649 
L 387.198182 -174.080649 
L 385.939394 -174.080649 
L 384.680606 -174.080649 
L 383.421818 -174.080649 
L 382.16303 -174.080649 
L 380.904242 -174.080649 
L 379.645455 -174.080649 
L 378.386667 -174.080649 
L 377.127879 -174.080649 
L 375.869091 -174.080649 
L 374.610303 -174.080649 
L 373.351515 -174.080649 
L 372.092727 -174.080649 
L 370.833939 -174.080649 
L 369.575152 -174.080649 
L 368.316364 -174.080649 
L 367.057576 -174.080649 
L 365.798788 -174.080649 
L 364.54 -174.080649 
L 363.281212 -174.080649 
L 362.022424 -174.080649 
L 360.763636 -174.080649 
L 359.504848 -174.080649 
L 358.246061 -174.080649 
L 356.987273 -174.080649 
L 355.728485 -174.080649 
L 354.469697 -174.080649 
L 353.210909 -174.080649 
L 351.952121 -174.080649 
L 350.693333 -174.080649 
L 349.434545 -174.080649 
L 348.175758 -174.080649 
L 346.91697 -174.080649 
L 345.658182 -174.080649 
L 344.399394 -174.080649 
L 343.140606 -174.080649 
L 341.881818 -174.080649 
L 340.62303 -174.080649 
L 339.364242 -174.080649 
L 338.105455 -174.080649 
L 336.846667 -174.080649 
L 335.587879 -174.080649 
L 334.329091 -174.080649 
L 333.070303 -174.080649 
L 331.811515 -174.080649 
L 330.552727 -174.080649 
L 329.293939 -174.080649 
L 328.035152 -174.080649 
L 326.776364 -174.080649 
L 325.517576 -174.080649 
L 324.258788 -174.080649 
L 323 -174.080649 
L 321.741212 -174.080649 
L 320.482424 -174.080649 
L 319.223636 -174.080649 
L 317.964848 -174.080649 
L 316.706061 -174.080649 
L 315.447273 -174.080649 
L 314.188485 -174.080649 
L 312.929697 -174.080649 
L 311.670909 -174.080649 
L 310.412121 -174.080649 
L 309.153333 -174.080649 
L 307.894545 -174.080649 
L 306.635758 -174.080649 
L 305.37697 -174.080649 
L 304.118182 -174.080649 
L 302.859394 -174.080649 
L 301.600606 -174.080649 
L 300.341818 -174.080649 
L 299.08303 -174.080649 
L 297.824242 -174.080649 
L 296.565455 -174.080649 
L 295.306667 -174.080649 
L 294.047879 -174.080649 
L 292.789091 -174.080649 
L 291.530303 -174.080649 
L 290.271515 -174.080649 
L 289.012727 -174.080649 
L 287.753939 -174.080649 
L 286.495152 -174.080649 
L 285.236364 -174.080649 
L 283.977576 -174.080649 
L 282.718788 -174.080649 
L 281.46 -174.080649 
z
" style="stroke: #c44e52; stroke-width: 1.5"/>
    </defs>
    <g clip-path="url(#p6eb6f561ab)">
     <use xlink:href="#mae7866cf92" x="0" y="432" style="fill: #c44e52; stroke: #c44e52; stroke-width: 1.5"/>
    </g>
   </g>
   <g id="line2d_16">
    <path d="M 281.46 257.919351 
L 282.718788 257.919351 
L 283.977576 257.919351 
L 285.236364 257.919351 
L 286.495152 257.919351 
L 287.753939 257.919351 
L 289.012727 257.919351 
L 290.271515 257.919351 
L 291.530303 257.919351 
L 292.789091 257.919351 
L 294.047879 257.919351 
L 295.306667 257.919351 
L 296.565455 257.919351 
L 297.824242 257.919351 
L 299.08303 257.919351 
L 300.341818 257.919351 
L 301.600606 257.919351 
L 302.859394 257.919351 
L 304.118182 257.919351 
L 305.37697 257.919351 
L 306.635758 257.919351 
L 307.894545 257.919351 
L 309.153333 257.919351 
L 310.412121 257.919353 
L 311.670909 257.919356 
L 312.929697 257.919366 
L 314.188485 257.919391 
L 315.447273 257.919453 
L 316.706061 257.919603 
L 317.964848 257.919945 
L 319.223636 257.920695 
L 320.482424 257.92227 
L 321.741212 257.925436 
L 323 257.931529 
L 324.258788 257.942748 
L 325.517576 257.962506 
L 326.776364 257.995766 
L 328.035152 258.049248 
L 329.293939 258.13133 
L 330.552727 258.251447 
L 331.811515 258.41882 
L 333.070303 258.640507 
L 334.329091 258.918948 
L 335.587879 259.249489 
L 336.846667 259.618548 
L 338.105455 260.0032 
L 339.364242 260.372727 
L 340.62303 260.692273 
L 341.881818 260.928105 
L 343.140606 261.053439 
L 344.399394 261.053439 
L 345.658182 260.928105 
L 346.91697 260.692273 
L 348.175758 260.372727 
L 349.434545 260.0032 
L 350.693333 259.618548 
L 351.952121 259.249489 
L 353.210909 258.918948 
L 354.469697 258.640507 
L 355.728485 258.41882 
L 356.987273 258.251447 
L 358.246061 258.13133 
L 359.504848 258.049248 
L 360.763636 257.995766 
L 362.022424 257.962506 
L 363.281212 257.942748 
L 364.54 257.931529 
L 365.798788 257.925436 
L 367.057576 257.92227 
L 368.316364 257.920695 
L 369.575152 257.919945 
L 370.833939 257.919603 
L 372.092727 257.919453 
L 373.351515 257.919391 
L 374.610303 257.919366 
L 375.869091 257.919356 
L 377.127879 257.919353 
L 378.386667 257.919351 
L 379.645455 257.919351 
L 380.904242 257.919351 
L 382.16303 257.919351 
L 383.421818 257.919351 
L 384.680606 257.919351 
L 385.939394 257.919351 
L 387.198182 257.919351 
L 388.45697 257.919351 
L 389.715758 257.919351 
L 390.974545 257.919351 
L 392.233333 257.919351 
L 393.492121 257.919351 
L 394.750909 257.919351 
L 396.009697 257.919351 
L 397.268485 257.919351 
L 398.527273 257.919351 
L 399.786061 257.919351 
L 401.044848 257.919351 
L 402.303636 257.919351 
L 403.562424 257.919351 
L 404.821212 257.919351 
L 406.08 257.919351 
" clip-path="url(#p6eb6f561ab)" style="fill: none; stroke: #c44e52; stroke-width: 2.25; stroke-linecap: round"/>
   </g>
   <g id="patch_12">
    <path d="M 281.46 351.265714 
L 281.46 253.474286 
" style="fill: none; stroke: #262626; stroke-width: 3; stroke-linejoin: miter; stroke-linecap: square"/>
   </g>
   <g id="patch_13">
    <path d="M 281.46 351.265714 
L 406.08 351.265714 
" style="fill: none; stroke: #262626; stroke-width: 3; stroke-linejoin: miter; stroke-linecap: square"/>
   </g>
   <g id="text_24">
    <!-- Extinction end -->
    <g style="fill: #262626" transform="translate(268.393125 247.474286) scale(0.24 -0.24)">
     <use xlink:href="#ArialMT-45"/>
     <use xlink:href="#ArialMT-78" transform="translate(66.699219 0)"/>
     <use xlink:href="#ArialMT-74" transform="translate(116.699219 0)"/>
     <use xlink:href="#ArialMT-69" transform="translate(144.482422 0)"/>
     <use xlink:href="#ArialMT-6e" transform="translate(166.699219 0)"/>
     <use xlink:href="#ArialMT-63" transform="translate(222.314453 0)"/>
     <use xlink:href="#ArialMT-74" transform="translate(272.314453 0)"/>
     <use xlink:href="#ArialMT-69" transform="translate(300.097656 0)"/>
     <use xlink:href="#ArialMT-6f" transform="translate(322.314453 0)"/>
     <use xlink:href="#ArialMT-6e" transform="translate(377.929688 0)"/>
     <use xlink:href="#ArialMT-20" transform="translate(433.544922 0)"/>
     <use xlink:href="#ArialMT-65" transform="translate(461.328125 0)"/>
     <use xlink:href="#ArialMT-6e" transform="translate(516.943359 0)"/>
     <use xlink:href="#ArialMT-64" transform="translate(572.558594 0)"/>
    </g>
   </g>
  </g>
 </g>
 <defs>
  <clipPath id="p63fbc0d3a4">
   <rect x="78.42" y="50.434286" width="124.62" height="97.791429"/>
  </clipPath>
  <clipPath id="p6ebd481a64">
   <rect x="281.46" y="50.434286" width="124.62" height="97.791429"/>
  </clipPath>
  <clipPath id="p0b4c843115">
   <rect x="78.42" y="253.474286" width="124.62" height="97.791429"/>
  </clipPath>
  <clipPath id="p6eb6f561ab">
   <rect x="281.46" y="253.474286" width="124.62" height="97.791429"/>
  </clipPath>
 </defs>
</svg>
