<?xml version="1.0" encoding="utf-8" standalone="no"?>
<!DOCTYPE svg PUBLIC "-//W3C//DTD SVG 1.1//EN"
  "http://www.w3.org/Graphics/SVG/1.1/DTD/svg11.dtd">
<svg xmlns:xlink="http://www.w3.org/1999/xlink" width="432pt" height="288pt" viewBox="0 0 432 288" xmlns="http://www.w3.org/2000/svg" version="1.1">
 <metadata>
  <rdf:RDF xmlns:dc="http://purl.org/dc/elements/1.1/" xmlns:cc="http://creativecommons.org/ns#" xmlns:rdf="http://www.w3.org/1999/02/22-rdf-syntax-ns#">
   <cc:Work>
    <dc:type rdf:resource="http://purl.org/dc/dcmitype/StillImage"/>
    <dc:date>2025-01-23T22:32:52.830346</dc:date>
    <dc:format>image/svg+xml</dc:format>
    <dc:creator>
     <cc:Agent>
      <dc:title>Matplotlib v3.10.0, https://matplotlib.org/</dc:title>
     </cc:Agent>
    </dc:creator>
   </cc:Work>
  </rdf:RDF>
 </metadata>
 <defs>
  <style type="text/css">*{stroke-linejoin: round; stroke-linecap: butt}</style>
 </defs>
 <g id="figure_1">
  <g id="patch_1">
   <path d="M 0 288 
L 432 288 
L 432 0 
L 0 0 
z
" style="fill: #ffffff"/>
  </g>
  <g id="axes_1">
   <g id="patch_2">
    <path d="M 137.922857 207.265714 
L 379.337143 207.265714 
L 379.337143 35.177143 
L 137.922857 35.177143 
z
" style="fill: #ffffff"/>
   </g>
   <g id="matplotlib.axis_1">
    <g id="xtick_1">
     <g id="line2d_1">
      <defs>
       <path id="m0b79962f3d" d="M 0 0 
L 0 -9 
" style="stroke: #262626; stroke-width: 1.875"/>
      </defs>
      <g>
       <use xlink:href="#m0b79962f3d" x="137.922857" y="207.265714" style="fill: #262626; stroke: #262626; stroke-width: 1.875"/>
      </g>
     </g>
     <g id="text_1">
      <!-- 0 -->
      <g style="fill: #262626" transform="translate(131.249732 227.944464) scale(0.24 -0.24)">
       <defs>
        <path id="ArialMT-30" d="M 266 2259 
Q 266 3072 433 3567 
Q 600 4063 929 4331 
Q 1259 4600 1759 4600 
Q 2128 4600 2406 4451 
Q 2684 4303 2865 4023 
Q 3047 3744 3150 3342 
Q 3253 2941 3253 2259 
Q 3253 1453 3087 958 
Q 2922 463 2592 192 
Q 2263 -78 1759 -78 
Q 1097 -78 719 397 
Q 266 969 266 2259 
z
M 844 2259 
Q 844 1131 1108 757 
Q 1372 384 1759 384 
Q 2147 384 2411 759 
Q 2675 1134 2675 2259 
Q 2675 3391 2411 3762 
Q 2147 4134 1753 4134 
Q 1366 4134 1134 3806 
Q 844 3388 844 2259 
z
" transform="scale(0.015625)"/>
       </defs>
       <use xlink:href="#ArialMT-30"/>
      </g>
     </g>
    </g>
    <g id="xtick_2">
     <g id="line2d_2">
      <g>
       <use xlink:href="#m0b79962f3d" x="258.63" y="207.265714" style="fill: #262626; stroke: #262626; stroke-width: 1.875"/>
      </g>
     </g>
     <g id="text_2">
      <!-- 500 -->
      <g style="fill: #262626" transform="translate(238.610625 227.944464) scale(0.24 -0.24)">
       <defs>
        <path id="ArialMT-35" d="M 266 1200 
L 856 1250 
Q 922 819 1161 601 
Q 1400 384 1738 384 
Q 2144 384 2425 690 
Q 2706 997 2706 1503 
Q 2706 1984 2436 2262 
Q 2166 2541 1728 2541 
Q 1456 2541 1237 2417 
Q 1019 2294 894 2097 
L 366 2166 
L 809 4519 
L 3088 4519 
L 3088 3981 
L 1259 3981 
L 1013 2750 
Q 1425 3038 1878 3038 
Q 2478 3038 2890 2622 
Q 3303 2206 3303 1553 
Q 3303 931 2941 478 
Q 2500 -78 1738 -78 
Q 1113 -78 717 272 
Q 322 622 266 1200 
z
" transform="scale(0.015625)"/>
       </defs>
       <use xlink:href="#ArialMT-35"/>
       <use xlink:href="#ArialMT-30" transform="translate(55.615234 0)"/>
       <use xlink:href="#ArialMT-30" transform="translate(111.230469 0)"/>
      </g>
     </g>
    </g>
    <g id="xtick_3">
     <g id="line2d_3">
      <g>
       <use xlink:href="#m0b79962f3d" x="379.337143" y="207.265714" style="fill: #262626; stroke: #262626; stroke-width: 1.875"/>
      </g>
     </g>
     <g id="text_3">
      <!-- 1000 -->
      <g style="fill: #262626" transform="translate(352.644643 227.944464) scale(0.24 -0.24)">
       <defs>
        <path id="ArialMT-31" d="M 2384 0 
L 1822 0 
L 1822 3584 
Q 1619 3391 1289 3197 
Q 959 3003 697 2906 
L 697 3450 
Q 1169 3672 1522 3987 
Q 1875 4303 2022 4600 
L 2384 4600 
L 2384 0 
z
" transform="scale(0.015625)"/>
       </defs>
       <use xlink:href="#ArialMT-31"/>
       <use xlink:href="#ArialMT-30" transform="translate(55.615234 0)"/>
       <use xlink:href="#ArialMT-30" transform="translate(111.230469 0)"/>
       <use xlink:href="#ArialMT-30" transform="translate(166.845703 0)"/>
      </g>
     </g>
    </g>
    <g id="text_4">
     <!-- # Trials -->
     <g style="fill: #262626" transform="translate(219.9525 253.893214) scale(0.24 -0.24)">
      <defs>
       <path id="ArialMT-23" d="M 322 -78 
L 594 1253 
L 66 1253 
L 66 1719 
L 688 1719 
L 919 2853 
L 66 2853 
L 66 3319 
L 1013 3319 
L 1284 4659 
L 1753 4659 
L 1481 3319 
L 2466 3319 
L 2738 4659 
L 3209 4659 
L 2938 3319 
L 3478 3319 
L 3478 2853 
L 2844 2853 
L 2609 1719 
L 3478 1719 
L 3478 1253 
L 2516 1253 
L 2244 -78 
L 1775 -78 
L 2044 1253 
L 1063 1253 
L 791 -78 
L 322 -78 
z
M 1156 1719 
L 2138 1719 
L 2372 2853 
L 1388 2853 
L 1156 1719 
z
" transform="scale(0.015625)"/>
       <path id="ArialMT-20" transform="scale(0.015625)"/>
       <path id="ArialMT-54" d="M 1659 0 
L 1659 4041 
L 150 4041 
L 150 4581 
L 3781 4581 
L 3781 4041 
L 2266 4041 
L 2266 0 
L 1659 0 
z
" transform="scale(0.015625)"/>
       <path id="ArialMT-72" d="M 416 0 
L 416 3319 
L 922 3319 
L 922 2816 
Q 1116 3169 1280 3281 
Q 1444 3394 1641 3394 
Q 1925 3394 2219 3213 
L 2025 2691 
Q 1819 2813 1613 2813 
Q 1428 2813 1281 2702 
Q 1134 2591 1072 2394 
Q 978 2094 978 1738 
L 978 0 
L 416 0 
z
" transform="scale(0.015625)"/>
       <path id="ArialMT-69" d="M 425 3934 
L 425 4581 
L 988 4581 
L 988 3934 
L 425 3934 
z
M 425 0 
L 425 3319 
L 988 3319 
L 988 0 
L 425 0 
z
" transform="scale(0.015625)"/>
       <path id="ArialMT-61" d="M 2588 409 
Q 2275 144 1986 34 
Q 1697 -75 1366 -75 
Q 819 -75 525 192 
Q 231 459 231 875 
Q 231 1119 342 1320 
Q 453 1522 633 1644 
Q 813 1766 1038 1828 
Q 1203 1872 1538 1913 
Q 2219 1994 2541 2106 
Q 2544 2222 2544 2253 
Q 2544 2597 2384 2738 
Q 2169 2928 1744 2928 
Q 1347 2928 1158 2789 
Q 969 2650 878 2297 
L 328 2372 
Q 403 2725 575 2942 
Q 747 3159 1072 3276 
Q 1397 3394 1825 3394 
Q 2250 3394 2515 3294 
Q 2781 3194 2906 3042 
Q 3031 2891 3081 2659 
Q 3109 2516 3109 2141 
L 3109 1391 
Q 3109 606 3145 398 
Q 3181 191 3288 0 
L 2700 0 
Q 2613 175 2588 409 
z
M 2541 1666 
Q 2234 1541 1622 1453 
Q 1275 1403 1131 1340 
Q 988 1278 909 1158 
Q 831 1038 831 891 
Q 831 666 1001 516 
Q 1172 366 1500 366 
Q 1825 366 2078 508 
Q 2331 650 2450 897 
Q 2541 1088 2541 1459 
L 2541 1666 
z
" transform="scale(0.015625)"/>
       <path id="ArialMT-6c" d="M 409 0 
L 409 4581 
L 972 4581 
L 972 0 
L 409 0 
z
" transform="scale(0.015625)"/>
       <path id="ArialMT-73" d="M 197 991 
L 753 1078 
Q 800 744 1014 566 
Q 1228 388 1613 388 
Q 2000 388 2187 545 
Q 2375 703 2375 916 
Q 2375 1106 2209 1216 
Q 2094 1291 1634 1406 
Q 1016 1563 777 1677 
Q 538 1791 414 1992 
Q 291 2194 291 2438 
Q 291 2659 392 2848 
Q 494 3038 669 3163 
Q 800 3259 1026 3326 
Q 1253 3394 1513 3394 
Q 1903 3394 2198 3281 
Q 2494 3169 2634 2976 
Q 2775 2784 2828 2463 
L 2278 2388 
Q 2241 2644 2061 2787 
Q 1881 2931 1553 2931 
Q 1166 2931 1000 2803 
Q 834 2675 834 2503 
Q 834 2394 903 2306 
Q 972 2216 1119 2156 
Q 1203 2125 1616 2013 
Q 2213 1853 2448 1751 
Q 2684 1650 2818 1456 
Q 2953 1263 2953 975 
Q 2953 694 2789 445 
Q 2625 197 2315 61 
Q 2006 -75 1616 -75 
Q 969 -75 630 194 
Q 291 463 197 991 
z
" transform="scale(0.015625)"/>
      </defs>
      <use xlink:href="#ArialMT-23"/>
      <use xlink:href="#ArialMT-20" transform="translate(55.615234 0)"/>
      <use xlink:href="#ArialMT-54" transform="translate(81.648438 0)"/>
      <use xlink:href="#ArialMT-72" transform="translate(138.982422 0)"/>
      <use xlink:href="#ArialMT-69" transform="translate(172.283203 0)"/>
      <use xlink:href="#ArialMT-61" transform="translate(194.5 0)"/>
      <use xlink:href="#ArialMT-6c" transform="translate(250.115234 0)"/>
      <use xlink:href="#ArialMT-73" transform="translate(272.332031 0)"/>
     </g>
    </g>
   </g>
   <g id="matplotlib.axis_2">
    <g id="ytick_1">
     <g id="line2d_4">
      <defs>
       <path id="m3f196307cd" d="M 0 0 
L 9 0 
" style="stroke: #262626; stroke-width: 1.875"/>
      </defs>
      <g>
       <use xlink:href="#m3f196307cd" x="137.922857" y="207.265714" style="fill: #262626; stroke: #262626; stroke-width: 1.875"/>
      </g>
     </g>
     <g id="text_5">
      <!-- 0 -->
      <g style="fill: #262626" transform="translate(121.076607 215.855089) scale(0.24 -0.24)">
       <use xlink:href="#ArialMT-30"/>
      </g>
     </g>
    </g>
    <g id="ytick_2">
     <g id="line2d_5">
      <g>
       <use xlink:href="#m3f196307cd" x="137.922857" y="121.221429" style="fill: #262626; stroke: #262626; stroke-width: 1.875"/>
      </g>
     </g>
     <g id="text_6">
      <!-- 500 -->
      <g style="fill: #262626" transform="translate(94.384107 129.810804) scale(0.24 -0.24)">
       <use xlink:href="#ArialMT-35"/>
       <use xlink:href="#ArialMT-30" transform="translate(55.615234 0)"/>
       <use xlink:href="#ArialMT-30" transform="translate(111.230469 0)"/>
      </g>
     </g>
    </g>
    <g id="ytick_3">
     <g id="line2d_6">
      <g>
       <use xlink:href="#m3f196307cd" x="137.922857" y="35.177143" style="fill: #262626; stroke: #262626; stroke-width: 1.875"/>
      </g>
     </g>
     <g id="text_7">
      <!-- 1000 -->
      <g style="fill: #262626" transform="translate(81.037857 43.766518) scale(0.24 -0.24)">
       <use xlink:href="#ArialMT-31"/>
       <use xlink:href="#ArialMT-30" transform="translate(55.615234 0)"/>
       <use xlink:href="#ArialMT-30" transform="translate(111.230469 0)"/>
       <use xlink:href="#ArialMT-30" transform="translate(166.845703 0)"/>
      </g>
     </g>
    </g>
    <g id="text_8">
     <!--  -->
     <g style="fill: #262626" transform="translate(46.883357 121.221429) rotate(-90) scale(0.24 -0.24)"/>
     <!--  Cumulative licks -->
     <g style="fill: #262626" transform="translate(72.267857 211.242054) rotate(-90) scale(0.24 -0.24)">
      <defs>
       <path id="ArialMT-43" d="M 3763 1606 
L 4369 1453 
Q 4178 706 3683 314 
Q 3188 -78 2472 -78 
Q 1731 -78 1267 223 
Q 803 525 561 1097 
Q 319 1669 319 2325 
Q 319 3041 592 3573 
Q 866 4106 1370 4382 
Q 1875 4659 2481 4659 
Q 3169 4659 3637 4309 
Q 4106 3959 4291 3325 
L 3694 3184 
Q 3534 3684 3231 3912 
Q 2928 4141 2469 4141 
Q 1941 4141 1586 3887 
Q 1231 3634 1087 3207 
Q 944 2781 944 2328 
Q 944 1744 1114 1308 
Q 1284 872 1643 656 
Q 2003 441 2422 441 
Q 2931 441 3284 734 
Q 3638 1028 3763 1606 
z
" transform="scale(0.015625)"/>
       <path id="ArialMT-75" d="M 2597 0 
L 2597 488 
Q 2209 -75 1544 -75 
Q 1250 -75 995 37 
Q 741 150 617 320 
Q 494 491 444 738 
Q 409 903 409 1263 
L 409 3319 
L 972 3319 
L 972 1478 
Q 972 1038 1006 884 
Q 1059 663 1231 536 
Q 1403 409 1656 409 
Q 1909 409 2131 539 
Q 2353 669 2445 892 
Q 2538 1116 2538 1541 
L 2538 3319 
L 3100 3319 
L 3100 0 
L 2597 0 
z
" transform="scale(0.015625)"/>
       <path id="ArialMT-6d" d="M 422 0 
L 422 3319 
L 925 3319 
L 925 2853 
Q 1081 3097 1340 3245 
Q 1600 3394 1931 3394 
Q 2300 3394 2536 3241 
Q 2772 3088 2869 2813 
Q 3263 3394 3894 3394 
Q 4388 3394 4653 3120 
Q 4919 2847 4919 2278 
L 4919 0 
L 4359 0 
L 4359 2091 
Q 4359 2428 4304 2576 
Q 4250 2725 4106 2815 
Q 3963 2906 3769 2906 
Q 3419 2906 3187 2673 
Q 2956 2441 2956 1928 
L 2956 0 
L 2394 0 
L 2394 2156 
Q 2394 2531 2256 2718 
Q 2119 2906 1806 2906 
Q 1569 2906 1367 2781 
Q 1166 2656 1075 2415 
Q 984 2175 984 1722 
L 984 0 
L 422 0 
z
" transform="scale(0.015625)"/>
       <path id="ArialMT-74" d="M 1650 503 
L 1731 6 
Q 1494 -44 1306 -44 
Q 1000 -44 831 53 
Q 663 150 594 308 
Q 525 466 525 972 
L 525 2881 
L 113 2881 
L 113 3319 
L 525 3319 
L 525 4141 
L 1084 4478 
L 1084 3319 
L 1650 3319 
L 1650 2881 
L 1084 2881 
L 1084 941 
Q 1084 700 1114 631 
Q 1144 563 1211 522 
Q 1278 481 1403 481 
Q 1497 481 1650 503 
z
" transform="scale(0.015625)"/>
       <path id="ArialMT-76" d="M 1344 0 
L 81 3319 
L 675 3319 
L 1388 1331 
Q 1503 1009 1600 663 
Q 1675 925 1809 1294 
L 2547 3319 
L 3125 3319 
L 1869 0 
L 1344 0 
z
" transform="scale(0.015625)"/>
       <path id="ArialMT-65" d="M 2694 1069 
L 3275 997 
Q 3138 488 2766 206 
Q 2394 -75 1816 -75 
Q 1088 -75 661 373 
Q 234 822 234 1631 
Q 234 2469 665 2931 
Q 1097 3394 1784 3394 
Q 2450 3394 2872 2941 
Q 3294 2488 3294 1666 
Q 3294 1616 3291 1516 
L 816 1516 
Q 847 969 1125 678 
Q 1403 388 1819 388 
Q 2128 388 2347 550 
Q 2566 713 2694 1069 
z
M 847 1978 
L 2700 1978 
Q 2663 2397 2488 2606 
Q 2219 2931 1791 2931 
Q 1403 2931 1139 2672 
Q 875 2413 847 1978 
z
" transform="scale(0.015625)"/>
       <path id="ArialMT-63" d="M 2588 1216 
L 3141 1144 
Q 3050 572 2676 248 
Q 2303 -75 1759 -75 
Q 1078 -75 664 370 
Q 250 816 250 1647 
Q 250 2184 428 2587 
Q 606 2991 970 3192 
Q 1334 3394 1763 3394 
Q 2303 3394 2647 3120 
Q 2991 2847 3088 2344 
L 2541 2259 
Q 2463 2594 2264 2762 
Q 2066 2931 1784 2931 
Q 1359 2931 1093 2626 
Q 828 2322 828 1663 
Q 828 994 1084 691 
Q 1341 388 1753 388 
Q 2084 388 2306 591 
Q 2528 794 2588 1216 
z
" transform="scale(0.015625)"/>
       <path id="ArialMT-6b" d="M 425 0 
L 425 4581 
L 988 4581 
L 988 1969 
L 2319 3319 
L 3047 3319 
L 1778 2088 
L 3175 0 
L 2481 0 
L 1384 1697 
L 988 1316 
L 988 0 
L 425 0 
z
" transform="scale(0.015625)"/>
      </defs>
      <use xlink:href="#ArialMT-20"/>
      <use xlink:href="#ArialMT-43" transform="translate(27.783203 0)"/>
      <use xlink:href="#ArialMT-75" transform="translate(100 0)"/>
      <use xlink:href="#ArialMT-6d" transform="translate(155.615234 0)"/>
      <use xlink:href="#ArialMT-75" transform="translate(238.916016 0)"/>
      <use xlink:href="#ArialMT-6c" transform="translate(294.53125 0)"/>
      <use xlink:href="#ArialMT-61" transform="translate(316.748047 0)"/>
      <use xlink:href="#ArialMT-74" transform="translate(372.363281 0)"/>
      <use xlink:href="#ArialMT-69" transform="translate(400.146484 0)"/>
      <use xlink:href="#ArialMT-76" transform="translate(422.363281 0)"/>
      <use xlink:href="#ArialMT-65" transform="translate(472.363281 0)"/>
      <use xlink:href="#ArialMT-20" transform="translate(527.978516 0)"/>
      <use xlink:href="#ArialMT-6c" transform="translate(555.761719 0)"/>
      <use xlink:href="#ArialMT-69" transform="translate(577.978516 0)"/>
      <use xlink:href="#ArialMT-63" transform="translate(600.195312 0)"/>
      <use xlink:href="#ArialMT-6b" transform="translate(650.195312 0)"/>
      <use xlink:href="#ArialMT-73" transform="translate(700.195312 0)"/>
     </g>
    </g>
   </g>
   <g id="line2d_7">
    <path d="M 137.922857 207.265714 
L 161.822871 207.265714 
L 162.064286 206.921537 
L 183.550157 206.921537 
L 183.791571 206.749449 
L 190.309757 206.749449 
L 190.551171 205.200651 
L 195.379457 205.200651 
L 195.620871 204.684386 
L 196.586529 204.684386 
L 196.827943 204.512297 
L 206.484514 204.512297 
L 206.725929 204.16812 
L 208.657243 204.16812 
L 208.898657 203.823943 
L 209.6229 203.823943 
L 209.864314 202.9635 
L 210.588557 202.9635 
L 210.829971 202.791411 
L 213.726943 202.791411 
L 213.968357 202.619323 
L 214.209771 201.75888 
L 214.451186 201.75888 
L 214.6926 201.242614 
L 215.175429 201.242614 
L 215.416843 200.726349 
L 215.658257 200.55426 
L 215.899671 200.55426 
L 216.141086 200.037994 
L 216.3825 199.865906 
L 216.623914 199.177551 
L 217.106743 199.177551 
L 217.348157 198.833374 
L 217.830986 198.833374 
L 218.313814 198.489197 
L 219.279471 197.284577 
L 219.520886 197.284577 
L 220.245129 195.047426 
L 220.486543 195.047426 
L 220.969371 193.842806 
L 221.693614 193.842806 
L 222.176443 192.466097 
L 222.417857 192.466097 
L 222.659271 191.949831 
L 222.900686 190.573123 
L 223.1421 190.573123 
L 224.590586 184.377934 
L 224.832 183.861669 
L 225.073414 182.829137 
L 225.556243 179.387366 
L 225.797657 179.215277 
L 226.039071 178.526923 
L 226.5219 175.945594 
L 226.763314 174.740974 
L 227.246143 171.471291 
L 227.487557 170.094583 
L 227.728971 169.406229 
L 227.970386 167.857431 
L 228.453214 166.308634 
L 228.936043 164.41566 
L 229.9017 160.113446 
L 231.5916 153.229903 
L 232.315843 150.476486 
L 232.557257 150.304397 
L 233.040086 148.411423 
L 233.2815 148.239334 
L 233.522914 147.55098 
L 234.005743 146.690537 
L 234.247157 145.830094 
L 234.488571 144.453386 
L 234.729986 143.765031 
L 234.9714 143.592943 
L 235.212814 143.248766 
L 236.178471 138.946551 
L 236.419886 138.774463 
L 237.868371 129.997946 
L 238.109786 128.965414 
L 238.3512 128.793326 
L 238.834029 126.556174 
L 239.075443 126.384086 
L 239.316857 125.007377 
L 240.0411 122.770226 
L 240.765343 120.360986 
L 241.248171 120.360986 
L 242.455243 115.542506 
L 243.179486 112.961177 
L 243.4209 112.789089 
L 243.662314 112.272823 
L 244.627971 109.175229 
L 244.869386 109.00314 
L 245.835043 106.938077 
L 247.042114 102.807951 
L 247.283529 102.291686 
L 247.524943 102.119597 
L 248.007771 99.882446 
L 248.4906 99.022003 
L 248.732014 97.989471 
L 248.973429 97.473206 
L 249.214843 97.301117 
L 250.663329 91.794283 
L 251.8704 86.975803 
L 252.111814 86.459537 
L 252.594643 84.738651 
L 252.836057 84.394474 
L 253.318886 83.017766 
L 253.5603 82.329411 
L 254.043129 80.264349 
L 254.525957 79.059729 
L 255.008786 76.994666 
L 255.491614 75.617957 
L 255.733029 75.445869 
L 257.181514 69.594857 
L 257.664343 68.390237 
L 257.905757 68.04606 
L 258.147171 67.013529 
L 258.63 65.980997 
L 259.112829 64.260111 
L 259.354243 63.571757 
L 259.837071 62.711314 
L 260.3199 60.81834 
L 261.044143 59.957897 
L 261.526971 58.237011 
L 263.216871 52.558089 
L 263.458286 52.386 
L 264.182529 50.320937 
L 264.423943 49.97676 
L 264.906771 48.083786 
L 265.148186 47.56752 
L 266.113843 44.125749 
L 266.355257 42.74904 
L 267.320914 40.167711 
L 267.562329 39.995623 
L 268.045157 38.102649 
L 269.010814 35.52132 
L 269.493643 34.3167 
L 269.735057 34.3167 
L 269.976471 34.144611 
L 270.217886 34.144611 
L 270.700714 33.800434 
L 270.942129 33.11208 
L 270.942129 33.11208 
" clip-path="url(#p6b4ec3aedd)" style="fill: none; stroke: #808080; stroke-width: 2.25; stroke-linecap: round"/>
   </g>
   <g id="line2d_8">
    <path d="M 137.922857 207.265714 
L 138.164271 207.265714 
L 138.405686 205.544829 
L 141.061243 205.544829 
L 141.302657 205.200651 
L 157.718829 205.200651 
L 157.960243 204.856474 
L 168.099643 204.856474 
L 168.341057 204.684386 
L 185.9643 204.684386 
L 186.205714 204.340209 
L 189.102686 204.340209 
L 189.3441 204.16812 
L 189.585514 204.16812 
L 189.826929 203.996031 
L 190.068343 203.996031 
L 190.309757 203.651854 
L 190.551171 203.651854 
L 191.034 201.75888 
L 191.516829 201.75888 
L 192.241071 199.177551 
L 192.482486 198.833374 
L 192.7239 197.972931 
L 192.965314 197.972931 
L 194.172386 194.014894 
L 194.4138 193.670717 
L 194.896629 191.433566 
L 195.138043 190.9173 
L 196.345114 184.033757 
L 196.586529 183.68958 
L 197.310771 180.764074 
L 197.7936 178.354834 
L 198.035014 177.150214 
L 198.276429 176.978126 
L 198.517843 176.117683 
L 198.759257 176.117683 
L 199.4835 175.085151 
L 200.690571 169.578317 
L 200.931986 169.062051 
L 201.1734 168.02952 
L 201.414814 166.308634 
L 201.656229 165.448191 
L 203.104714 157.360029 
L 203.587543 155.639143 
L 204.070371 152.36946 
L 204.311786 150.648574 
L 205.036029 147.895157 
L 205.277443 146.174271 
L 205.518857 146.002183 
L 206.2431 142.904589 
L 206.967343 138.258197 
L 207.450171 136.193134 
L 207.691586 134.988514 
L 208.174414 131.202566 
L 208.415829 130.6863 
L 208.898657 128.793326 
L 209.381486 125.695731 
L 210.347143 120.705163 
L 210.588557 120.188897 
L 211.554214 115.198329 
L 211.795629 114.165797 
L 212.037043 114.165797 
L 212.278457 113.82162 
L 213.726943 107.79852 
L 213.968357 107.454343 
L 214.209771 106.077634 
L 214.451186 105.905546 
L 215.416843 104.012571 
L 215.899671 102.119597 
L 216.3825 100.914977 
L 216.865329 98.677826 
L 218.0724 95.063966 
L 218.796643 92.13846 
L 219.279471 89.385043 
L 219.520886 89.040866 
L 221.4522 77.68302 
L 221.693614 77.338843 
L 221.935029 75.617957 
L 222.417857 75.617957 
L 222.659271 75.101691 
L 222.900686 75.101691 
L 223.1421 73.552894 
L 223.383514 73.036629 
L 223.624929 72.86454 
L 224.349171 69.939034 
L 224.590586 69.25068 
L 224.832 68.218149 
L 225.073414 68.04606 
L 225.314829 66.84144 
L 225.556243 66.84144 
L 227.004729 61.678783 
L 227.246143 61.334606 
L 227.970386 57.376569 
L 228.2118 56.860303 
L 229.177457 51.525557 
L 229.660286 49.460494 
L 229.9017 48.427963 
L 230.143114 48.427963 
L 230.625943 46.3629 
L 233.040086 33.972523 
L 233.2815 31.735371 
L 234.247157 27.949423 
L 234.9714 25.196006 
L 235.695643 20.377526 
L 236.178471 18.140374 
L 236.6613 14.698603 
L 236.902714 12.805629 
L 237.144129 12.117274 
L 238.592614 2.99658 
L 238.834029 2.652403 
L 239.316857 -0.273103 
L 239.40956 -1 
L 239.40956 -1 
" clip-path="url(#p6b4ec3aedd)" style="fill: none; stroke: #808080; stroke-width: 2.25; stroke-linecap: round"/>
   </g>
   <g id="line2d_9">
    <path d="M 137.922857 207.265714 
L 138.164271 206.921537 
L 149.752157 206.921537 
L 149.993571 206.57736 
L 151.442057 206.57736 
L 151.683471 206.405271 
L 163.9956 206.405271 
L 164.237014 205.889006 
L 173.893586 205.889006 
L 174.135 205.200651 
L 175.583486 205.200651 
L 175.8249 203.651854 
L 196.345114 203.651854 
L 196.586529 203.135589 
L 221.935029 203.135589 
L 222.176443 202.791411 
L 234.005743 202.791411 
L 234.247157 202.619323 
L 246.076457 202.619323 
L 246.317871 201.930969 
L 252.111814 201.930969 
L 252.353229 201.75888 
L 263.216871 201.75888 
L 263.458286 201.586791 
L 272.632029 201.586791 
L 272.873443 201.414703 
L 273.114857 201.414703 
L 273.356271 201.242614 
L 275.287586 201.242614 
L 275.529 201.070526 
L 276.977486 201.070526 
L 277.2189 200.898437 
L 277.460314 200.898437 
L 277.943143 199.865906 
L 279.633043 199.865906 
L 279.874457 199.693817 
L 280.115871 199.34964 
L 280.5987 199.34964 
L 281.081529 198.14502 
L 281.322943 198.14502 
L 281.564357 197.284577 
L 282.771429 197.284577 
L 283.254257 196.424134 
L 283.495671 196.424134 
L 283.737086 196.252046 
L 284.219914 195.219514 
L 284.461329 195.219514 
L 284.702743 194.359071 
L 284.944157 194.014894 
L 285.185571 193.32654 
L 285.426986 192.294009 
L 285.6684 191.777743 
L 286.392643 188.50806 
L 286.875471 187.819706 
L 287.116886 186.615086 
L 287.3583 186.442997 
L 287.841129 184.205846 
L 288.082543 183.173314 
L 288.323957 183.173314 
L 289.531029 178.526923 
L 291.462343 170.610849 
L 291.703757 170.610849 
L 292.186586 168.373697 
L 292.669414 167.169077 
L 292.910829 165.792369 
L 293.393657 164.243571 
L 293.876486 162.00642 
L 294.1179 161.662243 
L 294.359314 160.8018 
L 294.600729 159.253003 
L 294.842143 158.564649 
L 295.083557 158.220471 
L 295.566386 156.155409 
L 297.014871 147.378891 
L 298.221943 140.32326 
L 298.704771 137.569843 
L 299.911843 129.309591 
L 300.394671 125.695731 
L 300.636086 124.835289 
L 302.5674 112.444911 
L 302.808814 111.756557 
L 304.015886 103.840483 
L 305.464371 94.719789 
L 305.705786 93.859346 
L 306.671443 87.664157 
L 306.912857 87.492069 
L 307.395686 84.394474 
L 307.878514 80.608526 
L 308.844171 74.757514 
L 309.327 71.65992 
L 309.809829 70.283211 
L 310.051243 69.766946 
L 311.0169 65.120554 
L 311.258314 64.4322 
L 311.982557 60.474163 
L 314.879529 42.404863 
L 315.120943 42.404863 
L 315.362357 40.683977 
L 315.603771 40.511889 
L 316.0866 38.446826 
L 318.500743 22.2705 
L 318.742157 20.377526 
L 318.983571 19.517083 
L 320.432057 9.535946 
L 320.673471 9.535946 
L 322.101141 -1 
L 322.101141 -1 
" clip-path="url(#p6b4ec3aedd)" style="fill: none; stroke: #808080; stroke-width: 2.25; stroke-linecap: round"/>
   </g>
   <g id="line2d_10">
    <path d="M 137.922857 206.405271 
L 138.164271 205.716917 
L 138.405686 204.684386 
L 138.888514 203.479766 
L 139.129929 202.103057 
L 139.371343 201.586791 
L 139.854171 200.210083 
L 140.337 199.177551 
L 140.578414 198.14502 
L 141.061243 197.112489 
L 141.302657 195.73578 
L 141.785486 194.875337 
L 142.0269 193.842806 
L 142.509729 192.638186 
L 143.7168 189.368503 
L 144.441043 188.163883 
L 144.682457 187.647617 
L 145.165286 185.754643 
L 145.4067 185.238377 
L 145.648114 184.377934 
L 145.889529 184.205846 
L 146.130943 184.205846 
L 146.372357 183.68958 
L 146.855186 183.68958 
L 147.0966 183.345403 
L 147.820843 183.345403 
L 148.062257 182.829137 
L 148.545086 182.48496 
L 148.7865 181.968694 
L 149.027914 181.796606 
L 149.269329 181.796606 
L 149.510743 180.936163 
L 149.752157 180.764074 
L 149.993571 180.07572 
L 150.4764 179.215277 
L 150.717814 178.526923 
L 150.959229 178.354834 
L 151.442057 176.806037 
L 151.924886 176.289771 
L 152.1663 176.117683 
L 153.131957 173.536354 
L 154.580443 170.43876 
L 155.063271 170.094583 
L 156.270343 168.545786 
L 156.511757 168.545786 
L 156.994586 166.652811 
L 157.236 166.480723 
L 158.201657 165.104014 
L 158.9259 165.104014 
L 159.650143 164.243571 
L 160.132971 164.243571 
L 161.822871 161.834331 
L 162.064286 161.834331 
L 162.547114 161.490154 
L 162.788529 160.629711 
L 163.512771 159.425091 
L 163.754186 157.18794 
L 164.719843 154.606611 
L 165.444086 153.746169 
L 165.6855 153.57408 
L 166.409743 150.820663 
L 166.651157 150.648574 
L 167.3754 149.443954 
L 167.858229 147.895157 
L 168.099643 146.34636 
L 168.823886 145.485917 
L 169.306714 145.14174 
L 169.548129 144.453386 
L 170.272371 143.420854 
L 170.513786 143.420854 
L 170.7552 142.904589 
L 171.238029 142.560411 
L 171.479443 141.872057 
L 171.720857 141.872057 
L 171.962271 141.699969 
L 172.4451 140.495349 
L 172.686514 140.495349 
L 172.927929 140.151171 
L 173.169343 140.151171 
L 173.410757 139.462817 
L 174.376414 139.462817 
L 174.617829 139.290729 
L 174.859243 139.290729 
L 175.100657 138.430286 
L 175.342071 138.430286 
L 175.583486 138.086109 
L 175.8249 137.397754 
L 176.066314 137.053577 
L 176.307729 137.053577 
L 176.790557 135.676869 
L 177.273386 135.676869 
L 177.5148 135.50478 
L 177.756214 135.50478 
L 177.997629 135.332691 
L 180.653186 135.332691 
L 180.8946 134.816426 
L 181.618843 134.816426 
L 181.860257 134.644337 
L 182.101671 134.644337 
L 182.343086 134.472249 
L 182.5845 133.955983 
L 183.067329 133.955983 
L 183.308743 133.439717 
L 183.550157 133.267629 
L 183.791571 133.267629 
L 184.032986 133.09554 
L 184.2744 133.09554 
L 184.515814 132.923451 
L 184.757229 132.235097 
L 185.9643 132.235097 
L 186.447129 130.6863 
L 186.688543 130.6863 
L 186.929957 130.170034 
L 189.102686 130.170034 
L 189.3441 129.997946 
L 190.068343 129.997946 
L 190.792586 129.48168 
L 192.965314 129.48168 
L 193.206729 129.309591 
L 193.930971 129.309591 
L 194.4138 128.965414 
L 194.896629 128.965414 
L 195.138043 128.793326 
L 195.862286 128.793326 
L 196.345114 128.449149 
L 196.586529 128.449149 
L 196.827943 128.27706 
L 198.276429 128.27706 
L 198.759257 127.416617 
L 199.000671 127.416617 
L 199.4835 127.07244 
L 199.966329 125.86782 
L 200.207743 125.695731 
L 200.931986 124.319023 
L 201.414814 123.974846 
L 201.656229 123.114403 
L 201.897643 122.770226 
L 202.139057 122.770226 
L 202.380471 122.081871 
L 203.104714 118.812189 
L 203.346129 117.951746 
L 203.587543 117.607569 
L 203.828957 116.919214 
L 206.484514 103.496306 
L 206.725929 101.603331 
L 206.967343 100.914977 
L 207.450171 98.677826 
L 207.691586 97.989471 
L 207.933 97.989471 
L 209.6229 86.631626 
L 209.864314 85.254917 
L 210.105729 84.91074 
L 210.347143 84.050297 
L 210.829971 84.050297 
L 211.3128 81.124791 
L 211.554214 79.575994 
L 211.795629 78.88764 
L 212.037043 78.543463 
L 212.519871 75.101691 
L 212.761286 73.897071 
L 213.244114 69.939034 
L 214.209771 63.22758 
L 214.6926 59.269543 
L 214.934014 58.064923 
L 215.175429 57.548657 
L 215.658257 54.623151 
L 216.3825 48.255874 
L 217.106743 41.888597 
L 217.348157 41.028154 
L 218.555229 33.800434 
L 219.520886 29.49822 
L 219.7623 27.433157 
L 220.003714 27.261069 
L 220.245129 26.400626 
L 220.486543 24.507651 
L 220.727957 23.647209 
L 223.1421 5.577909 
L 223.624929 2.824491 
L 224.20046 -1 
L 224.20046 -1 
" clip-path="url(#p6b4ec3aedd)" style="fill: none; stroke: #808080; stroke-width: 2.25; stroke-linecap: round"/>
   </g>
   <g id="line2d_11">
    <path d="M 137.922857 207.265714 
L 138.405686 206.921537 
L 138.888514 206.921537 
L 139.129929 206.57736 
L 140.578414 206.57736 
L 141.061243 206.061094 
L 142.268314 206.061094 
L 142.509729 205.889006 
L 145.648114 205.889006 
L 145.889529 205.716917 
L 146.130943 205.200651 
L 148.303671 205.200651 
L 148.545086 205.028563 
L 149.993571 205.028563 
L 150.234986 204.512297 
L 155.5461 204.512297 
L 155.787514 203.996031 
L 156.028929 203.996031 
L 156.270343 202.791411 
L 157.960243 202.791411 
L 158.201657 201.930969 
L 193.448143 201.930969 
L 193.689557 201.414703 
L 193.930971 201.242614 
L 218.313814 201.242614 
L 218.555229 200.55426 
L 220.727957 200.55426 
L 220.969371 200.210083 
L 221.693614 198.14502 
L 222.176443 197.284577 
L 222.417857 196.768311 
L 226.5219 196.768311 
L 226.763314 196.596223 
L 228.2118 196.596223 
L 228.453214 195.907869 
L 230.625943 195.907869 
L 231.108771 193.670717 
L 231.350186 193.498629 
L 231.5916 192.466097 
L 231.833014 191.949831 
L 232.074429 191.949831 
L 232.315843 191.777743 
L 232.557257 191.433566 
L 233.2815 191.433566 
L 233.522914 190.745211 
L 234.005743 190.401034 
L 235.454229 187.131351 
L 235.937057 184.722111 
L 237.144129 180.07572 
L 237.385543 178.8711 
L 238.109786 177.150214 
L 238.3512 175.773506 
L 238.592614 175.085151 
L 238.834029 174.740974 
L 239.558271 172.848 
L 240.0411 170.955026 
L 240.282514 170.094583 
L 240.523929 169.750406 
L 241.489586 166.652811 
L 241.731 166.308634 
L 242.213829 164.931926 
L 242.938071 162.00642 
L 243.179486 161.318066 
L 243.903729 157.876294 
L 244.145143 157.876294 
L 244.869386 153.918257 
L 245.1108 153.057814 
L 245.352214 152.885726 
L 246.317871 150.132309 
L 246.559286 149.788131 
L 247.042114 147.378891 
L 247.283529 146.862626 
L 247.766357 144.453386 
L 248.007771 144.281297 
L 248.4906 142.388323 
L 248.973429 140.495349 
L 249.214843 140.32326 
L 249.456257 138.946551 
L 249.939086 137.741931 
L 250.1805 136.537311 
L 250.421914 136.537311 
L 250.904743 134.816426 
L 251.146157 133.439717 
L 251.8704 131.89092 
L 252.111814 131.89092 
L 252.353229 131.374654 
L 253.077471 128.621237 
L 253.318886 125.86782 
L 253.5603 124.6632 
L 254.043129 121.393517 
L 255.491614 113.649531 
L 255.733029 112.617 
L 257.181514 103.496306 
L 257.422929 102.98004 
L 257.905757 100.398711 
L 258.147171 99.538269 
L 259.837071 86.631626 
L 260.3199 84.222386 
L 261.285557 76.306311 
L 262.734043 64.260111 
L 263.941114 53.246443 
L 264.182529 53.246443 
L 264.423943 52.558089 
L 266.596671 36.381763 
L 266.838086 36.381763 
L 267.320914 32.595814 
L 267.803743 28.465689 
L 268.286571 25.540183 
L 268.527986 23.647209 
L 268.7694 22.786766 
L 269.252229 19.517083 
L 269.493643 17.45202 
L 270.4593 13.149806 
L 270.700714 12.805629 
L 270.942129 11.945186 
L 271.907786 5.922086 
L 272.1492 5.40582 
L 272.390614 4.545377 
L 272.873443 1.79196 
L 273.313396 -1 
L 273.313396 -1 
" clip-path="url(#p6b4ec3aedd)" style="fill: none; stroke: #808080; stroke-width: 2.25; stroke-linecap: round"/>
   </g>
   <g id="line2d_12">
    <path d="M 137.922857 207.265714 
L 138.6471 207.265714 
L 138.888514 206.405271 
L 139.129929 206.233183 
L 139.371343 206.233183 
L 139.854171 205.889006 
L 140.095586 205.200651 
L 141.061243 203.823943 
L 141.785486 203.823943 
L 142.0269 203.479766 
L 142.751143 203.479766 
L 142.992557 203.307677 
L 144.441043 203.307677 
L 144.682457 201.242614 
L 145.4067 199.693817 
L 150.234986 199.693817 
L 150.4764 199.177551 
L 162.064286 199.177551 
L 162.3057 198.14502 
L 162.547114 198.14502 
L 162.788529 195.73578 
L 163.271357 195.73578 
L 163.512771 195.219514 
L 169.548129 195.219514 
L 169.789543 194.703249 
L 179.446114 194.703249 
L 179.687529 194.53116 
L 186.688543 194.53116 
L 186.929957 193.154451 
L 187.6542 193.154451 
L 187.895614 192.638186 
L 190.792586 192.638186 
L 191.034 191.433566 
L 199.000671 191.433566 
L 199.242086 191.089389 
L 204.070371 191.089389 
L 204.311786 190.573123 
L 205.036029 190.573123 
L 205.277443 189.884769 
L 206.001686 189.884769 
L 206.2431 189.71268 
L 206.484514 189.368503 
L 207.450171 189.368503 
L 207.691586 189.196414 
L 207.933 188.50806 
L 208.174414 188.335971 
L 208.415829 188.335971 
L 208.657243 187.991794 
L 208.898657 187.991794 
L 209.140071 187.475529 
L 209.381486 186.442997 
L 209.6229 186.442997 
L 210.105729 185.238377 
L 211.554214 185.238377 
L 211.795629 184.8942 
L 212.037043 184.8942 
L 212.278457 184.033757 
L 212.519871 183.861669 
L 212.761286 183.861669 
L 213.244114 183.173314 
L 213.485529 181.452429 
L 213.968357 180.591986 
L 214.451186 180.07572 
L 214.6926 180.07572 
L 214.934014 179.559454 
L 215.175429 179.387366 
L 215.416843 178.699011 
L 216.3825 178.699011 
L 216.623914 178.354834 
L 217.348157 176.46186 
L 217.589571 176.289771 
L 217.830986 176.289771 
L 218.0724 176.117683 
L 218.313814 175.773506 
L 218.555229 174.740974 
L 218.796643 174.740974 
L 219.038057 174.568886 
L 219.279471 174.05262 
L 219.7623 174.05262 
L 220.003714 173.880531 
L 220.245129 173.880531 
L 220.727957 173.536354 
L 220.969371 173.536354 
L 221.210786 173.364266 
L 222.900686 173.364266 
L 223.1421 172.675911 
L 223.624929 170.782937 
L 223.866343 170.094583 
L 224.107757 170.094583 
L 224.590586 167.857431 
L 225.073414 165.792369 
L 225.556243 163.555217 
L 227.246143 153.401991 
L 227.728971 150.304397 
L 227.970386 149.96022 
L 228.453214 147.55098 
L 228.936043 143.765031 
L 230.625943 132.407186 
L 230.867357 132.407186 
L 231.108771 131.374654 
L 231.350186 131.202566 
L 231.5916 130.342123 
L 231.833014 128.449149 
L 232.074429 127.588706 
L 234.247157 113.649531 
L 234.488571 113.305354 
L 234.729986 112.617 
L 235.454229 108.831051 
L 236.419886 101.259154 
L 237.144129 95.580231 
L 237.868371 90.589663 
L 238.592614 84.394474 
L 239.558271 79.403906 
L 240.523929 71.65992 
L 241.006757 67.185617 
L 241.731 62.195049 
L 242.455243 58.753277 
L 242.696657 57.548657 
L 243.179486 52.902266 
L 243.662314 49.632583 
L 244.386557 44.297837 
L 244.627971 43.437394 
L 244.869386 42.060686 
L 245.1108 41.372331 
L 246.076457 35.349231 
L 246.317871 35.177143 
L 246.559286 34.832966 
L 246.8007 34.144611 
L 247.283529 31.219106 
L 247.524943 31.219106 
L 248.007771 26.916891 
L 248.249186 25.196006 
L 248.4906 24.67974 
L 250.1805 9.708034 
L 251.831422 -1 
L 251.831422 -1 
" clip-path="url(#p6b4ec3aedd)" style="fill: none; stroke: #808080; stroke-width: 2.25; stroke-linecap: round"/>
   </g>
   <g id="line2d_13">
    <path d="M 137.922857 207.265714 
L 138.405686 207.265714 
L 138.6471 206.749449 
L 139.129929 206.405271 
L 139.371343 206.061094 
L 139.612757 206.061094 
L 139.854171 205.889006 
L 140.578414 205.889006 
L 140.819829 205.716917 
L 141.061243 205.716917 
L 141.302657 205.544829 
L 141.785486 205.544829 
L 142.0269 205.200651 
L 142.751143 205.200651 
L 142.992557 205.028563 
L 144.199629 205.028563 
L 144.441043 204.856474 
L 144.682457 203.996031 
L 145.165286 203.996031 
L 145.648114 202.9635 
L 146.130943 202.619323 
L 146.372357 202.619323 
L 146.613771 202.447234 
L 146.855186 202.447234 
L 147.0966 202.275146 
L 147.338014 202.275146 
L 147.579429 201.586791 
L 148.062257 201.242614 
L 148.303671 201.242614 
L 148.545086 201.070526 
L 156.511757 201.070526 
L 156.753171 200.55426 
L 157.236 200.55426 
L 157.477414 200.382171 
L 157.960243 200.382171 
L 158.201657 200.210083 
L 162.788529 200.210083 
L 163.271357 199.865906 
L 165.202671 199.865906 
L 165.444086 199.005463 
L 165.6855 198.833374 
L 166.892571 198.833374 
L 167.133986 198.489197 
L 168.582471 198.489197 
L 169.0653 195.047426 
L 169.548129 192.294009 
L 170.513786 185.410466 
L 170.7552 184.722111 
L 171.238029 181.624517 
L 171.720857 179.215277 
L 171.962271 179.043189 
L 172.927929 172.159646 
L 173.893586 168.02952 
L 174.376414 163.899394 
L 174.617829 162.866863 
L 174.859243 162.866863 
L 176.066314 154.950789 
L 176.549143 151.16484 
L 180.411771 121.737694 
L 181.136014 116.747126 
L 181.618843 114.682063 
L 181.860257 113.133266 
L 182.101671 113.133266 
L 184.032986 100.054534 
L 184.515814 96.612763 
L 184.757229 95.924409 
L 184.998643 94.891877 
L 186.688543 82.329411 
L 187.171371 78.715551 
L 187.412786 77.166754 
L 187.895614 72.520363 
L 188.619857 68.218149 
L 188.861271 65.808909 
L 189.102686 65.292643 
L 189.826929 60.129986 
L 190.068343 58.925366 
L 190.309757 58.581189 
L 191.034 53.246443 
L 191.758243 47.051254 
L 191.999657 47.051254 
L 193.930971 36.381763 
L 194.172386 35.693409 
L 194.4138 35.349231 
L 194.896629 32.939991 
L 195.138043 30.874929 
L 195.862286 28.809866 
L 196.1037 27.433157 
L 196.345114 26.916891 
L 197.069357 23.991386 
L 198.276429 18.312463 
L 199.4835 14.010249 
L 199.724914 12.117274 
L 200.449157 9.535946 
L 200.931986 5.749997 
L 201.414814 3.684934 
L 201.897643 0.243163 
L 202.091417 -1 
L 202.091417 -1 
" clip-path="url(#p6b4ec3aedd)" style="fill: none; stroke: #808080; stroke-width: 2.25; stroke-linecap: round"/>
   </g>
   <g id="patch_3">
    <path d="M 137.922857 207.265714 
L 137.922857 35.177143 
" style="fill: none; stroke: #262626; stroke-width: 3; stroke-linejoin: miter; stroke-linecap: square"/>
   </g>
   <g id="patch_4">
    <path d="M 137.922857 207.265714 
L 379.337143 207.265714 
" style="fill: none; stroke: #262626; stroke-width: 3; stroke-linejoin: miter; stroke-linecap: square"/>
   </g>
  </g>
 </g>
 <defs>
  <clipPath id="p6b4ec3aedd">
   <rect x="137.922857" y="35.177143" width="241.414286" height="172.088571"/>
  </clipPath>
 </defs>
</svg>
