<?xml version="1.0" encoding="utf-8" standalone="no"?>
<!DOCTYPE svg PUBLIC "-//W3C//DTD SVG 1.1//EN"
  "http://www.w3.org/Graphics/SVG/1.1/DTD/svg11.dtd">
<svg xmlns:xlink="http://www.w3.org/1999/xlink" width="360pt" height="504pt" viewBox="0 0 360 504" xmlns="http://www.w3.org/2000/svg" version="1.1">
 <metadata>
  <rdf:RDF xmlns:dc="http://purl.org/dc/elements/1.1/" xmlns:cc="http://creativecommons.org/ns#" xmlns:rdf="http://www.w3.org/1999/02/22-rdf-syntax-ns#">
   <cc:Work>
    <dc:type rdf:resource="http://purl.org/dc/dcmitype/StillImage"/>
    <dc:date>2025-01-25T01:33:03.786363</dc:date>
    <dc:format>image/svg+xml</dc:format>
    <dc:creator>
     <cc:Agent>
      <dc:title>Matplotlib v3.10.0, https://matplotlib.org/</dc:title>
     </cc:Agent>
    </dc:creator>
   </cc:Work>
  </rdf:RDF>
 </metadata>
 <defs>
  <style type="text/css">*{stroke-linejoin: round; stroke-linecap: butt}</style>
 </defs>
 <g id="figure_1">
  <g id="patch_1">
   <path d="M 0 504 
L 360 504 
L 360 0 
L 0 0 
z
" style="fill: #ffffff"/>
  </g>
  <g id="axes_1">
   <g id="patch_2">
    <path d="M 117.865714 198.054286 
L 334.08 198.054286 
L 334.08 50.434286 
L 117.865714 50.434286 
z
" style="fill: #ffffff"/>
   </g>
   <g id="matplotlib.axis_1">
    <g id="xtick_1">
     <g id="line2d_1">
      <defs>
       <path id="m3186369b97" d="M 0 0 
L 0 -9 
" style="stroke: #262626; stroke-width: 1.875"/>
      </defs>
      <g>
       <use xlink:href="#m3186369b97" x="117.865714" y="198.054286" style="fill: #262626; stroke: #262626; stroke-width: 1.875"/>
      </g>
     </g>
     <g id="text_1">
      <!-- 0 -->
      <g style="fill: #262626" transform="translate(111.192589 218.733036) scale(0.24 -0.24)">
       <defs>
        <path id="ArialMT-30" d="M 266 2259 
Q 266 3072 433 3567 
Q 600 4063 929 4331 
Q 1259 4600 1759 4600 
Q 2128 4600 2406 4451 
Q 2684 4303 2865 4023 
Q 3047 3744 3150 3342 
Q 3253 2941 3253 2259 
Q 3253 1453 3087 958 
Q 2922 463 2592 192 
Q 2263 -78 1759 -78 
Q 1097 -78 719 397 
Q 266 969 266 2259 
z
M 844 2259 
Q 844 1131 1108 757 
Q 1372 384 1759 384 
Q 2147 384 2411 759 
Q 2675 1134 2675 2259 
Q 2675 3391 2411 3762 
Q 2147 4134 1753 4134 
Q 1366 4134 1134 3806 
Q 844 3388 844 2259 
z
" transform="scale(0.015625)"/>
       </defs>
       <use xlink:href="#ArialMT-30"/>
      </g>
     </g>
    </g>
    <g id="xtick_2">
     <g id="line2d_2">
      <g>
       <use xlink:href="#m3186369b97" x="241.416735" y="198.054286" style="fill: #262626; stroke: #262626; stroke-width: 1.875"/>
      </g>
     </g>
     <g id="text_2">
      <!-- 100 -->
      <g style="fill: #262626" transform="translate(221.39736 218.733036) scale(0.24 -0.24)">
       <defs>
        <path id="ArialMT-31" d="M 2384 0 
L 1822 0 
L 1822 3584 
Q 1619 3391 1289 3197 
Q 959 3003 697 2906 
L 697 3450 
Q 1169 3672 1522 3987 
Q 1875 4303 2022 4600 
L 2384 4600 
L 2384 0 
z
" transform="scale(0.015625)"/>
       </defs>
       <use xlink:href="#ArialMT-31"/>
       <use xlink:href="#ArialMT-30" transform="translate(55.615234 0)"/>
       <use xlink:href="#ArialMT-30" transform="translate(111.230469 0)"/>
      </g>
     </g>
    </g>
   </g>
   <g id="matplotlib.axis_2">
    <g id="ytick_1">
     <g id="line2d_3">
      <defs>
       <path id="m9ea16b7c35" d="M 0 0 
L 9 0 
" style="stroke: #262626; stroke-width: 1.875"/>
      </defs>
      <g>
       <use xlink:href="#m9ea16b7c35" x="117.865714" y="198.054286" style="fill: #262626; stroke: #262626; stroke-width: 1.875"/>
      </g>
     </g>
     <g id="text_3">
      <!-- 0 -->
      <g style="fill: #262626" transform="translate(101.019464 206.643661) scale(0.24 -0.24)">
       <use xlink:href="#ArialMT-30"/>
      </g>
     </g>
    </g>
    <g id="ytick_2">
     <g id="line2d_4">
      <g>
       <use xlink:href="#m9ea16b7c35" x="117.865714" y="124.244286" style="fill: #262626; stroke: #262626; stroke-width: 1.875"/>
      </g>
     </g>
     <g id="text_4">
      <!-- 0.5 -->
      <g style="fill: #262626" transform="translate(81.005714 132.833661) scale(0.24 -0.24)">
       <defs>
        <path id="ArialMT-2e" d="M 581 0 
L 581 641 
L 1222 641 
L 1222 0 
L 581 0 
z
" transform="scale(0.015625)"/>
        <path id="ArialMT-35" d="M 266 1200 
L 856 1250 
Q 922 819 1161 601 
Q 1400 384 1738 384 
Q 2144 384 2425 690 
Q 2706 997 2706 1503 
Q 2706 1984 2436 2262 
Q 2166 2541 1728 2541 
Q 1456 2541 1237 2417 
Q 1019 2294 894 2097 
L 366 2166 
L 809 4519 
L 3088 4519 
L 3088 3981 
L 1259 3981 
L 1013 2750 
Q 1425 3038 1878 3038 
Q 2478 3038 2890 2622 
Q 3303 2206 3303 1553 
Q 3303 931 2941 478 
Q 2500 -78 1738 -78 
Q 1113 -78 717 272 
Q 322 622 266 1200 
z
" transform="scale(0.015625)"/>
       </defs>
       <use xlink:href="#ArialMT-30"/>
       <use xlink:href="#ArialMT-2e" transform="translate(55.615234 0)"/>
       <use xlink:href="#ArialMT-35" transform="translate(83.398438 0)"/>
      </g>
     </g>
    </g>
    <g id="ytick_3">
     <g id="line2d_5">
      <g>
       <use xlink:href="#m9ea16b7c35" x="117.865714" y="50.434286" style="fill: #262626; stroke: #262626; stroke-width: 1.875"/>
      </g>
     </g>
     <g id="text_5">
      <!-- 1 -->
      <g style="fill: #262626" transform="translate(101.019464 59.023661) scale(0.24 -0.24)">
       <use xlink:href="#ArialMT-31"/>
      </g>
     </g>
    </g>
    <g id="text_6">
     <!-- Normalized -->
     <g style="fill: #262626" transform="translate(46.851214 184.926786) rotate(-90) scale(0.24 -0.24)">
      <defs>
       <path id="ArialMT-4e" d="M 488 0 
L 488 4581 
L 1109 4581 
L 3516 984 
L 3516 4581 
L 4097 4581 
L 4097 0 
L 3475 0 
L 1069 3600 
L 1069 0 
L 488 0 
z
" transform="scale(0.015625)"/>
       <path id="ArialMT-6f" d="M 213 1659 
Q 213 2581 725 3025 
Q 1153 3394 1769 3394 
Q 2453 3394 2887 2945 
Q 3322 2497 3322 1706 
Q 3322 1066 3130 698 
Q 2938 331 2570 128 
Q 2203 -75 1769 -75 
Q 1072 -75 642 372 
Q 213 819 213 1659 
z
M 791 1659 
Q 791 1022 1069 705 
Q 1347 388 1769 388 
Q 2188 388 2466 706 
Q 2744 1025 2744 1678 
Q 2744 2294 2464 2611 
Q 2184 2928 1769 2928 
Q 1347 2928 1069 2612 
Q 791 2297 791 1659 
z
" transform="scale(0.015625)"/>
       <path id="ArialMT-72" d="M 416 0 
L 416 3319 
L 922 3319 
L 922 2816 
Q 1116 3169 1280 3281 
Q 1444 3394 1641 3394 
Q 1925 3394 2219 3213 
L 2025 2691 
Q 1819 2813 1613 2813 
Q 1428 2813 1281 2702 
Q 1134 2591 1072 2394 
Q 978 2094 978 1738 
L 978 0 
L 416 0 
z
" transform="scale(0.015625)"/>
       <path id="ArialMT-6d" d="M 422 0 
L 422 3319 
L 925 3319 
L 925 2853 
Q 1081 3097 1340 3245 
Q 1600 3394 1931 3394 
Q 2300 3394 2536 3241 
Q 2772 3088 2869 2813 
Q 3263 3394 3894 3394 
Q 4388 3394 4653 3120 
Q 4919 2847 4919 2278 
L 4919 0 
L 4359 0 
L 4359 2091 
Q 4359 2428 4304 2576 
Q 4250 2725 4106 2815 
Q 3963 2906 3769 2906 
Q 3419 2906 3187 2673 
Q 2956 2441 2956 1928 
L 2956 0 
L 2394 0 
L 2394 2156 
Q 2394 2531 2256 2718 
Q 2119 2906 1806 2906 
Q 1569 2906 1367 2781 
Q 1166 2656 1075 2415 
Q 984 2175 984 1722 
L 984 0 
L 422 0 
z
" transform="scale(0.015625)"/>
       <path id="ArialMT-61" d="M 2588 409 
Q 2275 144 1986 34 
Q 1697 -75 1366 -75 
Q 819 -75 525 192 
Q 231 459 231 875 
Q 231 1119 342 1320 
Q 453 1522 633 1644 
Q 813 1766 1038 1828 
Q 1203 1872 1538 1913 
Q 2219 1994 2541 2106 
Q 2544 2222 2544 2253 
Q 2544 2597 2384 2738 
Q 2169 2928 1744 2928 
Q 1347 2928 1158 2789 
Q 969 2650 878 2297 
L 328 2372 
Q 403 2725 575 2942 
Q 747 3159 1072 3276 
Q 1397 3394 1825 3394 
Q 2250 3394 2515 3294 
Q 2781 3194 2906 3042 
Q 3031 2891 3081 2659 
Q 3109 2516 3109 2141 
L 3109 1391 
Q 3109 606 3145 398 
Q 3181 191 3288 0 
L 2700 0 
Q 2613 175 2588 409 
z
M 2541 1666 
Q 2234 1541 1622 1453 
Q 1275 1403 1131 1340 
Q 988 1278 909 1158 
Q 831 1038 831 891 
Q 831 666 1001 516 
Q 1172 366 1500 366 
Q 1825 366 2078 508 
Q 2331 650 2450 897 
Q 2541 1088 2541 1459 
L 2541 1666 
z
" transform="scale(0.015625)"/>
       <path id="ArialMT-6c" d="M 409 0 
L 409 4581 
L 972 4581 
L 972 0 
L 409 0 
z
" transform="scale(0.015625)"/>
       <path id="ArialMT-69" d="M 425 3934 
L 425 4581 
L 988 4581 
L 988 3934 
L 425 3934 
z
M 425 0 
L 425 3319 
L 988 3319 
L 988 0 
L 425 0 
z
" transform="scale(0.015625)"/>
       <path id="ArialMT-7a" d="M 125 0 
L 125 456 
L 2238 2881 
Q 1878 2863 1603 2863 
L 250 2863 
L 250 3319 
L 2963 3319 
L 2963 2947 
L 1166 841 
L 819 456 
Q 1197 484 1528 484 
L 3063 484 
L 3063 0 
L 125 0 
z
" transform="scale(0.015625)"/>
       <path id="ArialMT-65" d="M 2694 1069 
L 3275 997 
Q 3138 488 2766 206 
Q 2394 -75 1816 -75 
Q 1088 -75 661 373 
Q 234 822 234 1631 
Q 234 2469 665 2931 
Q 1097 3394 1784 3394 
Q 2450 3394 2872 2941 
Q 3294 2488 3294 1666 
Q 3294 1616 3291 1516 
L 816 1516 
Q 847 969 1125 678 
Q 1403 388 1819 388 
Q 2128 388 2347 550 
Q 2566 713 2694 1069 
z
M 847 1978 
L 2700 1978 
Q 2663 2397 2488 2606 
Q 2219 2931 1791 2931 
Q 1403 2931 1139 2672 
Q 875 2413 847 1978 
z
" transform="scale(0.015625)"/>
       <path id="ArialMT-64" d="M 2575 0 
L 2575 419 
Q 2259 -75 1647 -75 
Q 1250 -75 917 144 
Q 584 363 401 755 
Q 219 1147 219 1656 
Q 219 2153 384 2558 
Q 550 2963 881 3178 
Q 1213 3394 1622 3394 
Q 1922 3394 2156 3267 
Q 2391 3141 2538 2938 
L 2538 4581 
L 3097 4581 
L 3097 0 
L 2575 0 
z
M 797 1656 
Q 797 1019 1065 703 
Q 1334 388 1700 388 
Q 2069 388 2326 689 
Q 2584 991 2584 1609 
Q 2584 2291 2321 2609 
Q 2059 2928 1675 2928 
Q 1300 2928 1048 2622 
Q 797 2316 797 1656 
z
" transform="scale(0.015625)"/>
      </defs>
      <use xlink:href="#ArialMT-4e"/>
      <use xlink:href="#ArialMT-6f" transform="translate(72.216797 0)"/>
      <use xlink:href="#ArialMT-72" transform="translate(127.832031 0)"/>
      <use xlink:href="#ArialMT-6d" transform="translate(161.132812 0)"/>
      <use xlink:href="#ArialMT-61" transform="translate(244.433594 0)"/>
      <use xlink:href="#ArialMT-6c" transform="translate(300.048828 0)"/>
      <use xlink:href="#ArialMT-69" transform="translate(322.265625 0)"/>
      <use xlink:href="#ArialMT-7a" transform="translate(344.482422 0)"/>
      <use xlink:href="#ArialMT-65" transform="translate(394.482422 0)"/>
      <use xlink:href="#ArialMT-64" transform="translate(450.097656 0)"/>
     </g>
     <!-- Response -->
     <g style="fill: #262626" transform="translate(72.235714 178.276161) rotate(-90) scale(0.24 -0.24)">
      <defs>
       <path id="ArialMT-52" d="M 503 0 
L 503 4581 
L 2534 4581 
Q 3147 4581 3465 4457 
Q 3784 4334 3975 4021 
Q 4166 3709 4166 3331 
Q 4166 2844 3850 2509 
Q 3534 2175 2875 2084 
Q 3116 1969 3241 1856 
Q 3506 1613 3744 1247 
L 4541 0 
L 3778 0 
L 3172 953 
Q 2906 1366 2734 1584 
Q 2563 1803 2427 1890 
Q 2291 1978 2150 2013 
Q 2047 2034 1813 2034 
L 1109 2034 
L 1109 0 
L 503 0 
z
M 1109 2559 
L 2413 2559 
Q 2828 2559 3062 2645 
Q 3297 2731 3419 2920 
Q 3541 3109 3541 3331 
Q 3541 3656 3305 3865 
Q 3069 4075 2559 4075 
L 1109 4075 
L 1109 2559 
z
" transform="scale(0.015625)"/>
       <path id="ArialMT-73" d="M 197 991 
L 753 1078 
Q 800 744 1014 566 
Q 1228 388 1613 388 
Q 2000 388 2187 545 
Q 2375 703 2375 916 
Q 2375 1106 2209 1216 
Q 2094 1291 1634 1406 
Q 1016 1563 777 1677 
Q 538 1791 414 1992 
Q 291 2194 291 2438 
Q 291 2659 392 2848 
Q 494 3038 669 3163 
Q 800 3259 1026 3326 
Q 1253 3394 1513 3394 
Q 1903 3394 2198 3281 
Q 2494 3169 2634 2976 
Q 2775 2784 2828 2463 
L 2278 2388 
Q 2241 2644 2061 2787 
Q 1881 2931 1553 2931 
Q 1166 2931 1000 2803 
Q 834 2675 834 2503 
Q 834 2394 903 2306 
Q 972 2216 1119 2156 
Q 1203 2125 1616 2013 
Q 2213 1853 2448 1751 
Q 2684 1650 2818 1456 
Q 2953 1263 2953 975 
Q 2953 694 2789 445 
Q 2625 197 2315 61 
Q 2006 -75 1616 -75 
Q 969 -75 630 194 
Q 291 463 197 991 
z
" transform="scale(0.015625)"/>
       <path id="ArialMT-70" d="M 422 -1272 
L 422 3319 
L 934 3319 
L 934 2888 
Q 1116 3141 1344 3267 
Q 1572 3394 1897 3394 
Q 2322 3394 2647 3175 
Q 2972 2956 3137 2557 
Q 3303 2159 3303 1684 
Q 3303 1175 3120 767 
Q 2938 359 2589 142 
Q 2241 -75 1856 -75 
Q 1575 -75 1351 44 
Q 1128 163 984 344 
L 984 -1272 
L 422 -1272 
z
M 931 1641 
Q 931 1000 1190 694 
Q 1450 388 1819 388 
Q 2194 388 2461 705 
Q 2728 1022 2728 1688 
Q 2728 2322 2467 2637 
Q 2206 2953 1844 2953 
Q 1484 2953 1207 2617 
Q 931 2281 931 1641 
z
" transform="scale(0.015625)"/>
       <path id="ArialMT-6e" d="M 422 0 
L 422 3319 
L 928 3319 
L 928 2847 
Q 1294 3394 1984 3394 
Q 2284 3394 2536 3286 
Q 2788 3178 2913 3003 
Q 3038 2828 3088 2588 
Q 3119 2431 3119 2041 
L 3119 0 
L 2556 0 
L 2556 2019 
Q 2556 2363 2490 2533 
Q 2425 2703 2258 2804 
Q 2091 2906 1866 2906 
Q 1506 2906 1245 2678 
Q 984 2450 984 1813 
L 984 0 
L 422 0 
z
" transform="scale(0.015625)"/>
      </defs>
      <use xlink:href="#ArialMT-52"/>
      <use xlink:href="#ArialMT-65" transform="translate(72.216797 0)"/>
      <use xlink:href="#ArialMT-73" transform="translate(127.832031 0)"/>
      <use xlink:href="#ArialMT-70" transform="translate(177.832031 0)"/>
      <use xlink:href="#ArialMT-6f" transform="translate(233.447266 0)"/>
      <use xlink:href="#ArialMT-6e" transform="translate(289.0625 0)"/>
      <use xlink:href="#ArialMT-73" transform="translate(344.677734 0)"/>
      <use xlink:href="#ArialMT-65" transform="translate(394.677734 0)"/>
     </g>
    </g>
   </g>
   <g id="line2d_6">
    <path d="M 117.865714 50.434286 
L 148.753469 50.434286 
L 179.641224 118.024104 
L 210.52898 194.281273 
L 241.416735 191.650743 
L 272.30449 193.576037 
L 303.192245 198.054286 
L 334.08 194.591577 
" clip-path="url(#p687913e43b)" style="fill: none; stroke: #808080; stroke-width: 2.25; stroke-linecap: round"/>
    <defs>
     <path id="m36cb5c7cb1" d="M 0 2.25 
C 0.596707 2.25 1.169055 2.012926 1.59099 1.59099 
C 2.012926 1.169055 2.25 0.596707 2.25 0 
C 2.25 -0.596707 2.012926 -1.169055 1.59099 -1.59099 
C 1.169055 -2.012926 0.596707 -2.25 0 -2.25 
C -0.596707 -2.25 -1.169055 -2.012926 -1.59099 -1.59099 
C -2.012926 -1.169055 -2.25 -0.596707 -2.25 0 
C -2.25 0.596707 -2.012926 1.169055 -1.59099 1.59099 
C -1.169055 2.012926 -0.596707 2.25 0 2.25 
z
" style="stroke: #808080"/>
    </defs>
    <g clip-path="url(#p687913e43b)">
     <use xlink:href="#m36cb5c7cb1" x="117.865714" y="50.434286" style="fill: #808080; stroke: #808080"/>
     <use xlink:href="#m36cb5c7cb1" x="148.753469" y="50.434286" style="fill: #808080; stroke: #808080"/>
     <use xlink:href="#m36cb5c7cb1" x="179.641224" y="118.024104" style="fill: #808080; stroke: #808080"/>
     <use xlink:href="#m36cb5c7cb1" x="210.52898" y="194.281273" style="fill: #808080; stroke: #808080"/>
     <use xlink:href="#m36cb5c7cb1" x="241.416735" y="191.650743" style="fill: #808080; stroke: #808080"/>
     <use xlink:href="#m36cb5c7cb1" x="272.30449" y="193.576037" style="fill: #808080; stroke: #808080"/>
     <use xlink:href="#m36cb5c7cb1" x="303.192245" y="198.054286" style="fill: #808080; stroke: #808080"/>
     <use xlink:href="#m36cb5c7cb1" x="334.08" y="194.591577" style="fill: #808080; stroke: #808080"/>
    </g>
   </g>
   <g id="line2d_7">
    <path d="M 117.865714 50.434286 
L 148.753469 50.802442 
L 179.641224 109.756987 
L 210.52898 155.762347 
L 241.416735 176.963186 
L 272.30449 180.729706 
L 303.192245 163.422827 
" clip-path="url(#p687913e43b)" style="fill: none; stroke: #808080; stroke-width: 2.25; stroke-linecap: round"/>
    <g clip-path="url(#p687913e43b)">
     <use xlink:href="#m36cb5c7cb1" x="117.865714" y="50.434286" style="fill: #808080; stroke: #808080"/>
     <use xlink:href="#m36cb5c7cb1" x="148.753469" y="50.802442" style="fill: #808080; stroke: #808080"/>
     <use xlink:href="#m36cb5c7cb1" x="179.641224" y="109.756987" style="fill: #808080; stroke: #808080"/>
     <use xlink:href="#m36cb5c7cb1" x="210.52898" y="155.762347" style="fill: #808080; stroke: #808080"/>
     <use xlink:href="#m36cb5c7cb1" x="241.416735" y="176.963186" style="fill: #808080; stroke: #808080"/>
     <use xlink:href="#m36cb5c7cb1" x="272.30449" y="180.729706" style="fill: #808080; stroke: #808080"/>
     <use xlink:href="#m36cb5c7cb1" x="303.192245" y="163.422827" style="fill: #808080; stroke: #808080"/>
    </g>
   </g>
   <g id="line2d_8">
    <path d="M 117.865714 50.434286 
L 148.753469 77.822269 
L 179.641224 151.643452 
L 210.52898 161.742002 
L 241.416735 185.193452 
L 272.30449 188.000469 
L 303.192245 177.387486 
L 334.08 181.961469 
" clip-path="url(#p687913e43b)" style="fill: none; stroke: #808080; stroke-width: 2.25; stroke-linecap: round"/>
    <g clip-path="url(#p687913e43b)">
     <use xlink:href="#m36cb5c7cb1" x="117.865714" y="50.434286" style="fill: #808080; stroke: #808080"/>
     <use xlink:href="#m36cb5c7cb1" x="148.753469" y="77.822269" style="fill: #808080; stroke: #808080"/>
     <use xlink:href="#m36cb5c7cb1" x="179.641224" y="151.643452" style="fill: #808080; stroke: #808080"/>
     <use xlink:href="#m36cb5c7cb1" x="210.52898" y="161.742002" style="fill: #808080; stroke: #808080"/>
     <use xlink:href="#m36cb5c7cb1" x="241.416735" y="185.193452" style="fill: #808080; stroke: #808080"/>
     <use xlink:href="#m36cb5c7cb1" x="272.30449" y="188.000469" style="fill: #808080; stroke: #808080"/>
     <use xlink:href="#m36cb5c7cb1" x="303.192245" y="177.387486" style="fill: #808080; stroke: #808080"/>
     <use xlink:href="#m36cb5c7cb1" x="334.08" y="181.961469" style="fill: #808080; stroke: #808080"/>
    </g>
   </g>
   <g id="line2d_9">
    <path d="M 117.865714 50.434286 
L 148.753469 61.857262 
L 179.641224 112.82131 
L 210.52898 181.359167 
L 241.416735 183.116548 
L 272.30449 185.752619 
L 303.192245 188.38869 
" clip-path="url(#p687913e43b)" style="fill: none; stroke: #808080; stroke-width: 2.25; stroke-linecap: round"/>
    <g clip-path="url(#p687913e43b)">
     <use xlink:href="#m36cb5c7cb1" x="117.865714" y="50.434286" style="fill: #808080; stroke: #808080"/>
     <use xlink:href="#m36cb5c7cb1" x="148.753469" y="61.857262" style="fill: #808080; stroke: #808080"/>
     <use xlink:href="#m36cb5c7cb1" x="179.641224" y="112.82131" style="fill: #808080; stroke: #808080"/>
     <use xlink:href="#m36cb5c7cb1" x="210.52898" y="181.359167" style="fill: #808080; stroke: #808080"/>
     <use xlink:href="#m36cb5c7cb1" x="241.416735" y="183.116548" style="fill: #808080; stroke: #808080"/>
     <use xlink:href="#m36cb5c7cb1" x="272.30449" y="185.752619" style="fill: #808080; stroke: #808080"/>
     <use xlink:href="#m36cb5c7cb1" x="303.192245" y="188.38869" style="fill: #808080; stroke: #808080"/>
    </g>
   </g>
   <g id="line2d_10">
    <path d="M 117.865714 50.434286 
L 148.753469 54.678809 
L 179.641224 55.21108 
L 210.52898 112.979581 
L 241.416735 125.569846 
L 272.30449 142.687829 
L 303.192245 192.584856 
" clip-path="url(#p687913e43b)" style="fill: none; stroke: #808080; stroke-width: 2.25; stroke-linecap: round"/>
    <g clip-path="url(#p687913e43b)">
     <use xlink:href="#m36cb5c7cb1" x="117.865714" y="50.434286" style="fill: #808080; stroke: #808080"/>
     <use xlink:href="#m36cb5c7cb1" x="148.753469" y="54.678809" style="fill: #808080; stroke: #808080"/>
     <use xlink:href="#m36cb5c7cb1" x="179.641224" y="55.21108" style="fill: #808080; stroke: #808080"/>
     <use xlink:href="#m36cb5c7cb1" x="210.52898" y="112.979581" style="fill: #808080; stroke: #808080"/>
     <use xlink:href="#m36cb5c7cb1" x="241.416735" y="125.569846" style="fill: #808080; stroke: #808080"/>
     <use xlink:href="#m36cb5c7cb1" x="272.30449" y="142.687829" style="fill: #808080; stroke: #808080"/>
     <use xlink:href="#m36cb5c7cb1" x="303.192245" y="192.584856" style="fill: #808080; stroke: #808080"/>
    </g>
   </g>
   <g id="patch_3">
    <path d="M 117.865714 198.054286 
L 117.865714 50.434286 
" style="fill: none; stroke: #262626; stroke-width: 3; stroke-linejoin: miter; stroke-linecap: square"/>
   </g>
   <g id="patch_4">
    <path d="M 117.865714 198.054286 
L 334.08 198.054286 
" style="fill: none; stroke: #262626; stroke-width: 3; stroke-linejoin: miter; stroke-linecap: square"/>
   </g>
   <g id="text_7">
    <!-- Experiment -->
    <g style="fill: #262626" transform="translate(165.284732 44.434286) scale(0.24 -0.24)">
     <defs>
      <path id="ArialMT-45" d="M 506 0 
L 506 4581 
L 3819 4581 
L 3819 4041 
L 1113 4041 
L 1113 2638 
L 3647 2638 
L 3647 2100 
L 1113 2100 
L 1113 541 
L 3925 541 
L 3925 0 
L 506 0 
z
" transform="scale(0.015625)"/>
      <path id="ArialMT-78" d="M 47 0 
L 1259 1725 
L 138 3319 
L 841 3319 
L 1350 2541 
Q 1494 2319 1581 2169 
Q 1719 2375 1834 2534 
L 2394 3319 
L 3066 3319 
L 1919 1756 
L 3153 0 
L 2463 0 
L 1781 1031 
L 1600 1309 
L 728 0 
L 47 0 
z
" transform="scale(0.015625)"/>
      <path id="ArialMT-74" d="M 1650 503 
L 1731 6 
Q 1494 -44 1306 -44 
Q 1000 -44 831 53 
Q 663 150 594 308 
Q 525 466 525 972 
L 525 2881 
L 113 2881 
L 113 3319 
L 525 3319 
L 525 4141 
L 1084 4478 
L 1084 3319 
L 1650 3319 
L 1650 2881 
L 1084 2881 
L 1084 941 
Q 1084 700 1114 631 
Q 1144 563 1211 522 
Q 1278 481 1403 481 
Q 1497 481 1650 503 
z
" transform="scale(0.015625)"/>
     </defs>
     <use xlink:href="#ArialMT-45"/>
     <use xlink:href="#ArialMT-78" transform="translate(66.699219 0)"/>
     <use xlink:href="#ArialMT-70" transform="translate(116.699219 0)"/>
     <use xlink:href="#ArialMT-65" transform="translate(172.314453 0)"/>
     <use xlink:href="#ArialMT-72" transform="translate(227.929688 0)"/>
     <use xlink:href="#ArialMT-69" transform="translate(261.230469 0)"/>
     <use xlink:href="#ArialMT-6d" transform="translate(283.447266 0)"/>
     <use xlink:href="#ArialMT-65" transform="translate(366.748047 0)"/>
     <use xlink:href="#ArialMT-6e" transform="translate(422.363281 0)"/>
     <use xlink:href="#ArialMT-74" transform="translate(477.978516 0)"/>
    </g>
   </g>
  </g>
  <g id="axes_2">
   <g id="patch_5">
    <path d="M 117.865714 423.265714 
L 334.08 423.265714 
L 334.08 275.645714 
L 117.865714 275.645714 
z
" style="fill: #ffffff"/>
   </g>
   <g id="matplotlib.axis_3">
    <g id="xtick_3">
     <g id="line2d_11">
      <g>
       <use xlink:href="#m3186369b97" x="117.865714" y="423.265714" style="fill: #262626; stroke: #262626; stroke-width: 1.875"/>
      </g>
     </g>
     <g id="text_8">
      <!-- 0 -->
      <g style="fill: #262626" transform="translate(111.192589 443.944464) scale(0.24 -0.24)">
       <use xlink:href="#ArialMT-30"/>
      </g>
     </g>
    </g>
    <g id="xtick_4">
     <g id="line2d_12">
      <g>
       <use xlink:href="#m3186369b97" x="241.416735" y="423.265714" style="fill: #262626; stroke: #262626; stroke-width: 1.875"/>
      </g>
     </g>
     <g id="text_9">
      <!-- 100 -->
      <g style="fill: #262626" transform="translate(221.39736 443.944464) scale(0.24 -0.24)">
       <use xlink:href="#ArialMT-31"/>
       <use xlink:href="#ArialMT-30" transform="translate(55.615234 0)"/>
       <use xlink:href="#ArialMT-30" transform="translate(111.230469 0)"/>
      </g>
     </g>
    </g>
    <g id="text_10">
     <!-- # Trials -->
     <g style="fill: #262626" transform="translate(187.295357 469.893214) scale(0.24 -0.24)">
      <defs>
       <path id="ArialMT-23" d="M 322 -78 
L 594 1253 
L 66 1253 
L 66 1719 
L 688 1719 
L 919 2853 
L 66 2853 
L 66 3319 
L 1013 3319 
L 1284 4659 
L 1753 4659 
L 1481 3319 
L 2466 3319 
L 2738 4659 
L 3209 4659 
L 2938 3319 
L 3478 3319 
L 3478 2853 
L 2844 2853 
L 2609 1719 
L 3478 1719 
L 3478 1253 
L 2516 1253 
L 2244 -78 
L 1775 -78 
L 2044 1253 
L 1063 1253 
L 791 -78 
L 322 -78 
z
M 1156 1719 
L 2138 1719 
L 2372 2853 
L 1388 2853 
L 1156 1719 
z
" transform="scale(0.015625)"/>
       <path id="ArialMT-20" transform="scale(0.015625)"/>
       <path id="ArialMT-54" d="M 1659 0 
L 1659 4041 
L 150 4041 
L 150 4581 
L 3781 4581 
L 3781 4041 
L 2266 4041 
L 2266 0 
L 1659 0 
z
" transform="scale(0.015625)"/>
      </defs>
      <use xlink:href="#ArialMT-23"/>
      <use xlink:href="#ArialMT-20" transform="translate(55.615234 0)"/>
      <use xlink:href="#ArialMT-54" transform="translate(81.648438 0)"/>
      <use xlink:href="#ArialMT-72" transform="translate(138.982422 0)"/>
      <use xlink:href="#ArialMT-69" transform="translate(172.283203 0)"/>
      <use xlink:href="#ArialMT-61" transform="translate(194.5 0)"/>
      <use xlink:href="#ArialMT-6c" transform="translate(250.115234 0)"/>
      <use xlink:href="#ArialMT-73" transform="translate(272.332031 0)"/>
     </g>
    </g>
   </g>
   <g id="matplotlib.axis_4">
    <g id="ytick_4">
     <g id="line2d_13">
      <g>
       <use xlink:href="#m9ea16b7c35" x="117.865714" y="423.265714" style="fill: #262626; stroke: #262626; stroke-width: 1.875"/>
      </g>
     </g>
     <g id="text_11">
      <!-- 0 -->
      <g style="fill: #262626" transform="translate(101.019464 431.855089) scale(0.24 -0.24)">
       <use xlink:href="#ArialMT-30"/>
      </g>
     </g>
    </g>
    <g id="ytick_5">
     <g id="line2d_14">
      <g>
       <use xlink:href="#m9ea16b7c35" x="117.865714" y="349.455714" style="fill: #262626; stroke: #262626; stroke-width: 1.875"/>
      </g>
     </g>
     <g id="text_12">
      <!-- 0.5 -->
      <g style="fill: #262626" transform="translate(81.005714 358.045089) scale(0.24 -0.24)">
       <use xlink:href="#ArialMT-30"/>
       <use xlink:href="#ArialMT-2e" transform="translate(55.615234 0)"/>
       <use xlink:href="#ArialMT-35" transform="translate(83.398438 0)"/>
      </g>
     </g>
    </g>
    <g id="ytick_6">
     <g id="line2d_15">
      <g>
       <use xlink:href="#m9ea16b7c35" x="117.865714" y="275.645714" style="fill: #262626; stroke: #262626; stroke-width: 1.875"/>
      </g>
     </g>
     <g id="text_13">
      <!-- 1 -->
      <g style="fill: #262626" transform="translate(101.019464 284.235089) scale(0.24 -0.24)">
       <use xlink:href="#ArialMT-31"/>
      </g>
     </g>
    </g>
    <g id="text_14">
     <!-- Normalized -->
     <g style="fill: #262626" transform="translate(46.851214 410.138214) rotate(-90) scale(0.24 -0.24)">
      <use xlink:href="#ArialMT-4e"/>
      <use xlink:href="#ArialMT-6f" transform="translate(72.216797 0)"/>
      <use xlink:href="#ArialMT-72" transform="translate(127.832031 0)"/>
      <use xlink:href="#ArialMT-6d" transform="translate(161.132812 0)"/>
      <use xlink:href="#ArialMT-61" transform="translate(244.433594 0)"/>
      <use xlink:href="#ArialMT-6c" transform="translate(300.048828 0)"/>
      <use xlink:href="#ArialMT-69" transform="translate(322.265625 0)"/>
      <use xlink:href="#ArialMT-7a" transform="translate(344.482422 0)"/>
      <use xlink:href="#ArialMT-65" transform="translate(394.482422 0)"/>
      <use xlink:href="#ArialMT-64" transform="translate(450.097656 0)"/>
     </g>
     <!-- Response -->
     <g style="fill: #262626" transform="translate(72.235714 403.487589) rotate(-90) scale(0.24 -0.24)">
      <use xlink:href="#ArialMT-52"/>
      <use xlink:href="#ArialMT-65" transform="translate(72.216797 0)"/>
      <use xlink:href="#ArialMT-73" transform="translate(127.832031 0)"/>
      <use xlink:href="#ArialMT-70" transform="translate(177.832031 0)"/>
      <use xlink:href="#ArialMT-6f" transform="translate(233.447266 0)"/>
      <use xlink:href="#ArialMT-6e" transform="translate(289.0625 0)"/>
      <use xlink:href="#ArialMT-73" transform="translate(344.677734 0)"/>
      <use xlink:href="#ArialMT-65" transform="translate(394.677734 0)"/>
     </g>
    </g>
   </g>
   <g id="line2d_16">
    <path d="M 119.101224 275.645714 
L 125.278776 286.621051 
L 131.456327 297.208678 
L 137.633878 307.42096 
L 143.811429 317.270009 
L 149.98898 326.767674 
L 157.402041 337.717329 
L 164.815102 348.197124 
L 172.228163 358.225947 
L 179.641224 367.822086 
L 187.054286 377.003232 
L 194.467347 385.786477 
L 201.880408 394.188315 
L 209.293469 402.224656 
L 216.706531 409.910825 
L 224.119592 417.261582 
L 230.297143 423.141255 
L 231.532653 423.265714 
L 361 423.265714 
L 361 423.265714 
" clip-path="url(#p47f0157079)" style="fill: none; stroke: #40908e; stroke-width: 2.25; stroke-linecap: round"/>
   </g>
   <g id="patch_6">
    <path d="M 117.865714 423.265714 
L 117.865714 275.645714 
" style="fill: none; stroke: #262626; stroke-width: 3; stroke-linejoin: miter; stroke-linecap: square"/>
   </g>
   <g id="patch_7">
    <path d="M 117.865714 423.265714 
L 334.08 423.265714 
" style="fill: none; stroke: #262626; stroke-width: 3; stroke-linejoin: miter; stroke-linecap: square"/>
   </g>
   <g id="text_15">
    <!-- Model -->
    <g style="fill: #262626" transform="translate(193.291607 269.645714) scale(0.24 -0.24)">
     <defs>
      <path id="ArialMT-4d" d="M 475 0 
L 475 4581 
L 1388 4581 
L 2472 1338 
Q 2622 884 2691 659 
Q 2769 909 2934 1394 
L 4031 4581 
L 4847 4581 
L 4847 0 
L 4263 0 
L 4263 3834 
L 2931 0 
L 2384 0 
L 1059 3900 
L 1059 0 
L 475 0 
z
" transform="scale(0.015625)"/>
     </defs>
     <use xlink:href="#ArialMT-4d"/>
     <use xlink:href="#ArialMT-6f" transform="translate(83.300781 0)"/>
     <use xlink:href="#ArialMT-64" transform="translate(138.916016 0)"/>
     <use xlink:href="#ArialMT-65" transform="translate(194.53125 0)"/>
     <use xlink:href="#ArialMT-6c" transform="translate(250.146484 0)"/>
    </g>
   </g>
  </g>
 </g>
 <defs>
  <clipPath id="p687913e43b">
   <rect x="117.865714" y="50.434286" width="216.214286" height="147.62"/>
  </clipPath>
  <clipPath id="p47f0157079">
   <rect x="117.865714" y="275.645714" width="216.214286" height="147.62"/>
  </clipPath>
 </defs>
</svg>
