<?xml version="1.0" encoding="utf-8" standalone="no"?>
<!DOCTYPE svg PUBLIC "-//W3C//DTD SVG 1.1//EN"
  "http://www.w3.org/Graphics/SVG/1.1/DTD/svg11.dtd">
<svg xmlns:xlink="http://www.w3.org/1999/xlink" width="432pt" height="432pt" viewBox="0 0 432 432" xmlns="http://www.w3.org/2000/svg" version="1.1">
 <metadata>
  <rdf:RDF xmlns:dc="http://purl.org/dc/elements/1.1/" xmlns:cc="http://creativecommons.org/ns#" xmlns:rdf="http://www.w3.org/1999/02/22-rdf-syntax-ns#">
   <cc:Work>
    <dc:type rdf:resource="http://purl.org/dc/dcmitype/StillImage"/>
    <dc:date>2025-01-24T01:23:28.769432</dc:date>
    <dc:format>image/svg+xml</dc:format>
    <dc:creator>
     <cc:Agent>
      <dc:title>Matplotlib v3.10.0, https://matplotlib.org/</dc:title>
     </cc:Agent>
    </dc:creator>
   </cc:Work>
  </rdf:RDF>
 </metadata>
 <defs>
  <style type="text/css">*{stroke-linejoin: round; stroke-linecap: butt}</style>
 </defs>
 <g id="figure_1">
  <g id="patch_1">
   <path d="M 0 432 
L 432 432 
L 432 0 
L 0 0 
z
" style="fill: #ffffff"/>
  </g>
  <g id="axes_1">
   <g id="patch_2">
    <path d="M 116.907214 351.265714 
L 386.022857 351.265714 
L 386.022857 35.177143 
L 116.907214 35.177143 
z
" style="fill: #ffffff"/>
   </g>
   <g id="matplotlib.axis_1">
    <g id="xtick_1">
     <g id="line2d_1">
      <defs>
       <path id="m8b7b5e9e23" d="M 0 0 
L 0 -9 
" style="stroke: #262626; stroke-width: 1.875"/>
      </defs>
      <g>
       <use xlink:href="#m8b7b5e9e23" x="135.341782" y="351.265714" style="fill: #262626; stroke: #262626; stroke-width: 1.875"/>
      </g>
     </g>
     <g id="text_1">
      <!-- 2 -->
      <g style="fill: #262626" transform="translate(128.668657 371.944464) scale(0.24 -0.24)">
       <defs>
        <path id="ArialMT-32" d="M 3222 541 
L 3222 0 
L 194 0 
Q 188 203 259 391 
Q 375 700 629 1000 
Q 884 1300 1366 1694 
Q 2113 2306 2375 2664 
Q 2638 3022 2638 3341 
Q 2638 3675 2398 3904 
Q 2159 4134 1775 4134 
Q 1369 4134 1125 3890 
Q 881 3647 878 3216 
L 300 3275 
Q 359 3922 746 4261 
Q 1134 4600 1788 4600 
Q 2447 4600 2831 4234 
Q 3216 3869 3216 3328 
Q 3216 3053 3103 2787 
Q 2991 2522 2730 2228 
Q 2469 1934 1863 1422 
Q 1356 997 1212 845 
Q 1069 694 975 541 
L 3222 541 
z
" transform="scale(0.015625)"/>
       </defs>
       <use xlink:href="#ArialMT-32"/>
      </g>
     </g>
    </g>
    <g id="xtick_2">
     <g id="line2d_2">
      <g>
       <use xlink:href="#m8b7b5e9e23" x="194.057373" y="351.265714" style="fill: #262626; stroke: #262626; stroke-width: 1.875"/>
      </g>
     </g>
     <g id="text_2">
      <!-- 5 -->
      <g style="fill: #262626" transform="translate(187.384248 371.944464) scale(0.24 -0.24)">
       <defs>
        <path id="ArialMT-35" d="M 266 1200 
L 856 1250 
Q 922 819 1161 601 
Q 1400 384 1738 384 
Q 2144 384 2425 690 
Q 2706 997 2706 1503 
Q 2706 1984 2436 2262 
Q 2166 2541 1728 2541 
Q 1456 2541 1237 2417 
Q 1019 2294 894 2097 
L 366 2166 
L 809 4519 
L 3088 4519 
L 3088 3981 
L 1259 3981 
L 1013 2750 
Q 1425 3038 1878 3038 
Q 2478 3038 2890 2622 
Q 3303 2206 3303 1553 
Q 3303 931 2941 478 
Q 2500 -78 1738 -78 
Q 1113 -78 717 272 
Q 322 622 266 1200 
z
" transform="scale(0.015625)"/>
       </defs>
       <use xlink:href="#ArialMT-35"/>
      </g>
     </g>
    </g>
    <g id="xtick_3">
     <g id="line2d_3">
      <g>
       <use xlink:href="#m8b7b5e9e23" x="238.474004" y="351.265714" style="fill: #262626; stroke: #262626; stroke-width: 1.875"/>
      </g>
     </g>
     <g id="text_3">
      <!-- 10 -->
      <g style="fill: #262626" transform="translate(225.127754 371.944464) scale(0.24 -0.24)">
       <defs>
        <path id="ArialMT-31" d="M 2384 0 
L 1822 0 
L 1822 3584 
Q 1619 3391 1289 3197 
Q 959 3003 697 2906 
L 697 3450 
Q 1169 3672 1522 3987 
Q 1875 4303 2022 4600 
L 2384 4600 
L 2384 0 
z
" transform="scale(0.015625)"/>
        <path id="ArialMT-30" d="M 266 2259 
Q 266 3072 433 3567 
Q 600 4063 929 4331 
Q 1259 4600 1759 4600 
Q 2128 4600 2406 4451 
Q 2684 4303 2865 4023 
Q 3047 3744 3150 3342 
Q 3253 2941 3253 2259 
Q 3253 1453 3087 958 
Q 2922 463 2592 192 
Q 2263 -78 1759 -78 
Q 1097 -78 719 397 
Q 266 969 266 2259 
z
M 844 2259 
Q 844 1131 1108 757 
Q 1372 384 1759 384 
Q 2147 384 2411 759 
Q 2675 1134 2675 2259 
Q 2675 3391 2411 3762 
Q 2147 4134 1753 4134 
Q 1366 4134 1134 3806 
Q 844 3388 844 2259 
z
" transform="scale(0.015625)"/>
       </defs>
       <use xlink:href="#ArialMT-31"/>
       <use xlink:href="#ArialMT-30" transform="translate(55.615234 0)"/>
      </g>
     </g>
    </g>
    <g id="xtick_4">
     <g id="line2d_4">
      <g>
       <use xlink:href="#m8b7b5e9e23" x="282.890635" y="351.265714" style="fill: #262626; stroke: #262626; stroke-width: 1.875"/>
      </g>
     </g>
     <g id="text_4">
      <!-- 20 -->
      <g style="fill: #262626" transform="translate(269.544385 371.944464) scale(0.24 -0.24)">
       <use xlink:href="#ArialMT-32"/>
       <use xlink:href="#ArialMT-30" transform="translate(55.615234 0)"/>
      </g>
     </g>
    </g>
    <g id="xtick_5">
     <g id="line2d_5">
      <g>
       <use xlink:href="#m8b7b5e9e23" x="341.606227" y="351.265714" style="fill: #262626; stroke: #262626; stroke-width: 1.875"/>
      </g>
     </g>
     <g id="text_5">
      <!-- 50 -->
      <g style="fill: #262626" transform="translate(328.259977 371.944464) scale(0.24 -0.24)">
       <use xlink:href="#ArialMT-35"/>
       <use xlink:href="#ArialMT-30" transform="translate(55.615234 0)"/>
      </g>
     </g>
    </g>
    <g id="xtick_6">
     <g id="line2d_6">
      <g>
       <use xlink:href="#m8b7b5e9e23" x="386.022857" y="351.265714" style="fill: #262626; stroke: #262626; stroke-width: 1.875"/>
      </g>
     </g>
     <g id="text_6">
      <!-- 100 -->
      <g style="fill: #262626" transform="translate(366.003482 371.944464) scale(0.24 -0.24)">
       <use xlink:href="#ArialMT-31"/>
       <use xlink:href="#ArialMT-30" transform="translate(55.615234 0)"/>
       <use xlink:href="#ArialMT-30" transform="translate(111.230469 0)"/>
      </g>
     </g>
    </g>
    <g id="xtick_7">
     <g id="line2d_7">
      <defs>
       <path id="m73d745aa1c" d="M 0 0 
L 0 -6 
" style="stroke: #262626; stroke-width: 1.5"/>
      </defs>
      <g>
       <use xlink:href="#m73d745aa1c" x="161.323845" y="351.265714" style="fill: #262626; stroke: #262626; stroke-width: 1.5"/>
      </g>
     </g>
    </g>
    <g id="xtick_8">
     <g id="line2d_8">
      <g>
       <use xlink:href="#m73d745aa1c" x="179.758412" y="351.265714" style="fill: #262626; stroke: #262626; stroke-width: 1.5"/>
      </g>
     </g>
    </g>
    <g id="xtick_9">
     <g id="line2d_9">
      <g>
       <use xlink:href="#m73d745aa1c" x="205.740475" y="351.265714" style="fill: #262626; stroke: #262626; stroke-width: 1.5"/>
      </g>
     </g>
    </g>
    <g id="xtick_10">
     <g id="line2d_10">
      <g>
       <use xlink:href="#m73d745aa1c" x="215.618398" y="351.265714" style="fill: #262626; stroke: #262626; stroke-width: 1.5"/>
      </g>
     </g>
    </g>
    <g id="xtick_11">
     <g id="line2d_11">
      <g>
       <use xlink:href="#m73d745aa1c" x="224.175043" y="351.265714" style="fill: #262626; stroke: #262626; stroke-width: 1.5"/>
      </g>
     </g>
    </g>
    <g id="xtick_12">
     <g id="line2d_12">
      <g>
       <use xlink:href="#m73d745aa1c" x="231.722539" y="351.265714" style="fill: #262626; stroke: #262626; stroke-width: 1.5"/>
      </g>
     </g>
    </g>
    <g id="xtick_13">
     <g id="line2d_13">
      <g>
       <use xlink:href="#m73d745aa1c" x="308.872698" y="351.265714" style="fill: #262626; stroke: #262626; stroke-width: 1.5"/>
      </g>
     </g>
    </g>
    <g id="xtick_14">
     <g id="line2d_14">
      <g>
       <use xlink:href="#m73d745aa1c" x="327.307265" y="351.265714" style="fill: #262626; stroke: #262626; stroke-width: 1.5"/>
      </g>
     </g>
    </g>
    <g id="xtick_15">
     <g id="line2d_15">
      <g>
       <use xlink:href="#m73d745aa1c" x="353.289329" y="351.265714" style="fill: #262626; stroke: #262626; stroke-width: 1.5"/>
      </g>
     </g>
    </g>
    <g id="xtick_16">
     <g id="line2d_16">
      <g>
       <use xlink:href="#m73d745aa1c" x="363.167251" y="351.265714" style="fill: #262626; stroke: #262626; stroke-width: 1.5"/>
      </g>
     </g>
    </g>
    <g id="xtick_17">
     <g id="line2d_17">
      <g>
       <use xlink:href="#m73d745aa1c" x="371.723896" y="351.265714" style="fill: #262626; stroke: #262626; stroke-width: 1.5"/>
      </g>
     </g>
    </g>
    <g id="xtick_18">
     <g id="line2d_18">
      <g>
       <use xlink:href="#m73d745aa1c" x="379.271392" y="351.265714" style="fill: #262626; stroke: #262626; stroke-width: 1.5"/>
      </g>
     </g>
    </g>
    <g id="text_7">
     <!-- C/T (log) -->
     <g style="fill: #262626" transform="translate(205.008161 398.185714) scale(0.24 -0.24)">
      <defs>
       <path id="ArialMT-43" d="M 3763 1606 
L 4369 1453 
Q 4178 706 3683 314 
Q 3188 -78 2472 -78 
Q 1731 -78 1267 223 
Q 803 525 561 1097 
Q 319 1669 319 2325 
Q 319 3041 592 3573 
Q 866 4106 1370 4382 
Q 1875 4659 2481 4659 
Q 3169 4659 3637 4309 
Q 4106 3959 4291 3325 
L 3694 3184 
Q 3534 3684 3231 3912 
Q 2928 4141 2469 4141 
Q 1941 4141 1586 3887 
Q 1231 3634 1087 3207 
Q 944 2781 944 2328 
Q 944 1744 1114 1308 
Q 1284 872 1643 656 
Q 2003 441 2422 441 
Q 2931 441 3284 734 
Q 3638 1028 3763 1606 
z
" transform="scale(0.015625)"/>
       <path id="ArialMT-2f" d="M 0 -78 
L 1328 4659 
L 1778 4659 
L 453 -78 
L 0 -78 
z
" transform="scale(0.015625)"/>
       <path id="ArialMT-54" d="M 1659 0 
L 1659 4041 
L 150 4041 
L 150 4581 
L 3781 4581 
L 3781 4041 
L 2266 4041 
L 2266 0 
L 1659 0 
z
" transform="scale(0.015625)"/>
       <path id="ArialMT-20" transform="scale(0.015625)"/>
       <path id="ArialMT-28" d="M 1497 -1347 
Q 1031 -759 709 28 
Q 388 816 388 1659 
Q 388 2403 628 3084 
Q 909 3875 1497 4659 
L 1900 4659 
Q 1522 4009 1400 3731 
Q 1209 3300 1100 2831 
Q 966 2247 966 1656 
Q 966 153 1900 -1347 
L 1497 -1347 
z
" transform="scale(0.015625)"/>
       <path id="ArialMT-6c" d="M 409 0 
L 409 4581 
L 972 4581 
L 972 0 
L 409 0 
z
" transform="scale(0.015625)"/>
       <path id="ArialMT-6f" d="M 213 1659 
Q 213 2581 725 3025 
Q 1153 3394 1769 3394 
Q 2453 3394 2887 2945 
Q 3322 2497 3322 1706 
Q 3322 1066 3130 698 
Q 2938 331 2570 128 
Q 2203 -75 1769 -75 
Q 1072 -75 642 372 
Q 213 819 213 1659 
z
M 791 1659 
Q 791 1022 1069 705 
Q 1347 388 1769 388 
Q 2188 388 2466 706 
Q 2744 1025 2744 1678 
Q 2744 2294 2464 2611 
Q 2184 2928 1769 2928 
Q 1347 2928 1069 2612 
Q 791 2297 791 1659 
z
" transform="scale(0.015625)"/>
       <path id="ArialMT-67" d="M 319 -275 
L 866 -356 
Q 900 -609 1056 -725 
Q 1266 -881 1628 -881 
Q 2019 -881 2231 -725 
Q 2444 -569 2519 -288 
Q 2563 -116 2559 434 
Q 2191 0 1641 0 
Q 956 0 581 494 
Q 206 988 206 1678 
Q 206 2153 378 2554 
Q 550 2956 876 3175 
Q 1203 3394 1644 3394 
Q 2231 3394 2613 2919 
L 2613 3319 
L 3131 3319 
L 3131 450 
Q 3131 -325 2973 -648 
Q 2816 -972 2473 -1159 
Q 2131 -1347 1631 -1347 
Q 1038 -1347 672 -1080 
Q 306 -813 319 -275 
z
M 784 1719 
Q 784 1066 1043 766 
Q 1303 466 1694 466 
Q 2081 466 2343 764 
Q 2606 1063 2606 1700 
Q 2606 2309 2336 2618 
Q 2066 2928 1684 2928 
Q 1309 2928 1046 2623 
Q 784 2319 784 1719 
z
" transform="scale(0.015625)"/>
       <path id="ArialMT-29" d="M 791 -1347 
L 388 -1347 
Q 1322 153 1322 1656 
Q 1322 2244 1188 2822 
Q 1081 3291 891 3722 
Q 769 4003 388 4659 
L 791 4659 
Q 1378 3875 1659 3084 
Q 1900 2403 1900 1659 
Q 1900 816 1576 28 
Q 1253 -759 791 -1347 
z
" transform="scale(0.015625)"/>
      </defs>
      <use xlink:href="#ArialMT-43"/>
      <use xlink:href="#ArialMT-2f" transform="translate(72.216797 0)"/>
      <use xlink:href="#ArialMT-54" transform="translate(100 0)"/>
      <use xlink:href="#ArialMT-20" transform="translate(159.333984 0)"/>
      <use xlink:href="#ArialMT-28" transform="translate(187.117188 0)"/>
      <use xlink:href="#ArialMT-6c" transform="translate(220.417969 0)"/>
      <use xlink:href="#ArialMT-6f" transform="translate(242.634766 0)"/>
      <use xlink:href="#ArialMT-67" transform="translate(298.25 0)"/>
      <use xlink:href="#ArialMT-29" transform="translate(353.865234 0)"/>
     </g>
    </g>
   </g>
   <g id="matplotlib.axis_2">
    <g id="ytick_1">
     <g id="line2d_19">
      <defs>
       <path id="ma0c95b651e" d="M 0 0 
L 9 0 
" style="stroke: #262626; stroke-width: 1.875"/>
      </defs>
      <g>
       <use xlink:href="#ma0c95b651e" x="116.907214" y="351.265714" style="fill: #262626; stroke: #262626; stroke-width: 1.875"/>
      </g>
     </g>
     <g id="text_8">
      <!-- 1 -->
      <g style="fill: #262626" transform="translate(100.060964 359.855089) scale(0.24 -0.24)">
       <use xlink:href="#ArialMT-31"/>
      </g>
     </g>
    </g>
    <g id="ytick_2">
     <g id="line2d_20">
      <g>
       <use xlink:href="#ma0c95b651e" x="116.907214" y="319.548334" style="fill: #262626; stroke: #262626; stroke-width: 1.875"/>
      </g>
     </g>
     <g id="text_9">
      <!-- 2 -->
      <g style="fill: #262626" transform="translate(100.060964 328.137709) scale(0.24 -0.24)">
       <use xlink:href="#ArialMT-32"/>
      </g>
     </g>
    </g>
    <g id="ytick_3">
     <g id="line2d_21">
      <g>
       <use xlink:href="#ma0c95b651e" x="116.907214" y="277.620238" style="fill: #262626; stroke: #262626; stroke-width: 1.875"/>
      </g>
     </g>
     <g id="text_10">
      <!-- 5 -->
      <g style="fill: #262626" transform="translate(100.060964 286.209613) scale(0.24 -0.24)">
       <use xlink:href="#ArialMT-35"/>
      </g>
     </g>
    </g>
    <g id="ytick_4">
     <g id="line2d_22">
      <g>
       <use xlink:href="#ma0c95b651e" x="116.907214" y="245.902857" style="fill: #262626; stroke: #262626; stroke-width: 1.875"/>
      </g>
     </g>
     <g id="text_11">
      <!-- 10 -->
      <g style="fill: #262626" transform="translate(86.714714 254.492232) scale(0.24 -0.24)">
       <use xlink:href="#ArialMT-31"/>
       <use xlink:href="#ArialMT-30" transform="translate(55.615234 0)"/>
      </g>
     </g>
    </g>
    <g id="ytick_5">
     <g id="line2d_23">
      <g>
       <use xlink:href="#ma0c95b651e" x="116.907214" y="214.185477" style="fill: #262626; stroke: #262626; stroke-width: 1.875"/>
      </g>
     </g>
     <g id="text_12">
      <!-- 20 -->
      <g style="fill: #262626" transform="translate(86.714714 222.774852) scale(0.24 -0.24)">
       <use xlink:href="#ArialMT-32"/>
       <use xlink:href="#ArialMT-30" transform="translate(55.615234 0)"/>
      </g>
     </g>
    </g>
    <g id="ytick_6">
     <g id="line2d_24">
      <g>
       <use xlink:href="#ma0c95b651e" x="116.907214" y="172.25738" style="fill: #262626; stroke: #262626; stroke-width: 1.875"/>
      </g>
     </g>
     <g id="text_13">
      <!-- 50 -->
      <g style="fill: #262626" transform="translate(86.714714 180.846755) scale(0.24 -0.24)">
       <use xlink:href="#ArialMT-35"/>
       <use xlink:href="#ArialMT-30" transform="translate(55.615234 0)"/>
      </g>
     </g>
    </g>
    <g id="ytick_7">
     <g id="line2d_25">
      <g>
       <use xlink:href="#ma0c95b651e" x="116.907214" y="140.54" style="fill: #262626; stroke: #262626; stroke-width: 1.875"/>
      </g>
     </g>
     <g id="text_14">
      <!-- 100 -->
      <g style="fill: #262626" transform="translate(73.368464 149.129375) scale(0.24 -0.24)">
       <use xlink:href="#ArialMT-31"/>
       <use xlink:href="#ArialMT-30" transform="translate(55.615234 0)"/>
       <use xlink:href="#ArialMT-30" transform="translate(111.230469 0)"/>
      </g>
     </g>
    </g>
    <g id="ytick_8">
     <g id="line2d_26">
      <g>
       <use xlink:href="#ma0c95b651e" x="116.907214" y="108.82262" style="fill: #262626; stroke: #262626; stroke-width: 1.875"/>
      </g>
     </g>
     <g id="text_15">
      <!-- 200 -->
      <g style="fill: #262626" transform="translate(73.368464 117.411995) scale(0.24 -0.24)">
       <use xlink:href="#ArialMT-32"/>
       <use xlink:href="#ArialMT-30" transform="translate(55.615234 0)"/>
       <use xlink:href="#ArialMT-30" transform="translate(111.230469 0)"/>
      </g>
     </g>
    </g>
    <g id="ytick_9">
     <g id="line2d_27">
      <g>
       <use xlink:href="#ma0c95b651e" x="116.907214" y="66.894523" style="fill: #262626; stroke: #262626; stroke-width: 1.875"/>
      </g>
     </g>
     <g id="text_16">
      <!-- 500 -->
      <g style="fill: #262626" transform="translate(73.368464 75.483898) scale(0.24 -0.24)">
       <use xlink:href="#ArialMT-35"/>
       <use xlink:href="#ArialMT-30" transform="translate(55.615234 0)"/>
       <use xlink:href="#ArialMT-30" transform="translate(111.230469 0)"/>
      </g>
     </g>
    </g>
    <g id="ytick_10">
     <g id="line2d_28">
      <g>
       <use xlink:href="#ma0c95b651e" x="116.907214" y="35.177143" style="fill: #262626; stroke: #262626; stroke-width: 1.875"/>
      </g>
     </g>
     <g id="text_17">
      <!-- 1000 -->
      <g style="fill: #262626" transform="translate(60.022214 43.766518) scale(0.24 -0.24)">
       <use xlink:href="#ArialMT-31"/>
       <use xlink:href="#ArialMT-30" transform="translate(55.615234 0)"/>
       <use xlink:href="#ArialMT-30" transform="translate(111.230469 0)"/>
       <use xlink:href="#ArialMT-30" transform="translate(166.845703 0)"/>
      </g>
     </g>
    </g>
    <g id="ytick_11">
     <g id="line2d_29">
      <defs>
       <path id="m896bbd1725" d="M 0 0 
L 6 0 
" style="stroke: #262626; stroke-width: 1.5"/>
      </defs>
      <g>
       <use xlink:href="#m896bbd1725" x="116.907214" y="300.994856" style="fill: #262626; stroke: #262626; stroke-width: 1.5"/>
      </g>
     </g>
    </g>
    <g id="ytick_12">
     <g id="line2d_30">
      <g>
       <use xlink:href="#m896bbd1725" x="116.907214" y="287.830953" style="fill: #262626; stroke: #262626; stroke-width: 1.5"/>
      </g>
     </g>
    </g>
    <g id="ytick_13">
     <g id="line2d_31">
      <g>
       <use xlink:href="#m896bbd1725" x="116.907214" y="269.277475" style="fill: #262626; stroke: #262626; stroke-width: 1.5"/>
      </g>
     </g>
    </g>
    <g id="ytick_14">
     <g id="line2d_32">
      <g>
       <use xlink:href="#m896bbd1725" x="116.907214" y="262.22377" style="fill: #262626; stroke: #262626; stroke-width: 1.5"/>
      </g>
     </g>
    </g>
    <g id="ytick_15">
     <g id="line2d_33">
      <g>
       <use xlink:href="#m896bbd1725" x="116.907214" y="256.113573" style="fill: #262626; stroke: #262626; stroke-width: 1.5"/>
      </g>
     </g>
    </g>
    <g id="ytick_16">
     <g id="line2d_34">
      <g>
       <use xlink:href="#m896bbd1725" x="116.907214" y="250.723997" style="fill: #262626; stroke: #262626; stroke-width: 1.5"/>
      </g>
     </g>
    </g>
    <g id="ytick_17">
     <g id="line2d_35">
      <g>
       <use xlink:href="#m896bbd1725" x="116.907214" y="195.631999" style="fill: #262626; stroke: #262626; stroke-width: 1.5"/>
      </g>
     </g>
    </g>
    <g id="ytick_18">
     <g id="line2d_36">
      <g>
       <use xlink:href="#m896bbd1725" x="116.907214" y="182.468096" style="fill: #262626; stroke: #262626; stroke-width: 1.5"/>
      </g>
     </g>
    </g>
    <g id="ytick_19">
     <g id="line2d_37">
      <g>
       <use xlink:href="#m896bbd1725" x="116.907214" y="163.914618" style="fill: #262626; stroke: #262626; stroke-width: 1.5"/>
      </g>
     </g>
    </g>
    <g id="ytick_20">
     <g id="line2d_38">
      <g>
       <use xlink:href="#m896bbd1725" x="116.907214" y="156.860913" style="fill: #262626; stroke: #262626; stroke-width: 1.5"/>
      </g>
     </g>
    </g>
    <g id="ytick_21">
     <g id="line2d_39">
      <g>
       <use xlink:href="#m896bbd1725" x="116.907214" y="150.750716" style="fill: #262626; stroke: #262626; stroke-width: 1.5"/>
      </g>
     </g>
    </g>
    <g id="ytick_22">
     <g id="line2d_40">
      <g>
       <use xlink:href="#m896bbd1725" x="116.907214" y="145.36114" style="fill: #262626; stroke: #262626; stroke-width: 1.5"/>
      </g>
     </g>
    </g>
    <g id="ytick_23">
     <g id="line2d_41">
      <g>
       <use xlink:href="#m896bbd1725" x="116.907214" y="90.269141" style="fill: #262626; stroke: #262626; stroke-width: 1.5"/>
      </g>
     </g>
    </g>
    <g id="ytick_24">
     <g id="line2d_42">
      <g>
       <use xlink:href="#m896bbd1725" x="116.907214" y="77.105239" style="fill: #262626; stroke: #262626; stroke-width: 1.5"/>
      </g>
     </g>
    </g>
    <g id="ytick_25">
     <g id="line2d_43">
      <g>
       <use xlink:href="#m896bbd1725" x="116.907214" y="58.551761" style="fill: #262626; stroke: #262626; stroke-width: 1.5"/>
      </g>
     </g>
    </g>
    <g id="ytick_26">
     <g id="line2d_44">
      <g>
       <use xlink:href="#m896bbd1725" x="116.907214" y="51.498056" style="fill: #262626; stroke: #262626; stroke-width: 1.5"/>
      </g>
     </g>
    </g>
    <g id="ytick_27">
     <g id="line2d_45">
      <g>
       <use xlink:href="#m896bbd1725" x="116.907214" y="45.387859" style="fill: #262626; stroke: #262626; stroke-width: 1.5"/>
      </g>
     </g>
    </g>
    <g id="ytick_28">
     <g id="line2d_46">
      <g>
       <use xlink:href="#m896bbd1725" x="116.907214" y="39.998283" style="fill: #262626; stroke: #262626; stroke-width: 1.5"/>
      </g>
     </g>
    </g>
    <g id="text_18">
     <!-- Trials to acquisition $n_{acq}$ (log) -->
     <g style="fill: #262626" transform="translate(48.582214 346.461429) rotate(-90) scale(0.24 -0.24)">
      <defs>
       <path id="ArialMT-72" d="M 416 0 
L 416 3319 
L 922 3319 
L 922 2816 
Q 1116 3169 1280 3281 
Q 1444 3394 1641 3394 
Q 1925 3394 2219 3213 
L 2025 2691 
Q 1819 2813 1613 2813 
Q 1428 2813 1281 2702 
Q 1134 2591 1072 2394 
Q 978 2094 978 1738 
L 978 0 
L 416 0 
z
" transform="scale(0.015625)"/>
       <path id="ArialMT-69" d="M 425 3934 
L 425 4581 
L 988 4581 
L 988 3934 
L 425 3934 
z
M 425 0 
L 425 3319 
L 988 3319 
L 988 0 
L 425 0 
z
" transform="scale(0.015625)"/>
       <path id="ArialMT-61" d="M 2588 409 
Q 2275 144 1986 34 
Q 1697 -75 1366 -75 
Q 819 -75 525 192 
Q 231 459 231 875 
Q 231 1119 342 1320 
Q 453 1522 633 1644 
Q 813 1766 1038 1828 
Q 1203 1872 1538 1913 
Q 2219 1994 2541 2106 
Q 2544 2222 2544 2253 
Q 2544 2597 2384 2738 
Q 2169 2928 1744 2928 
Q 1347 2928 1158 2789 
Q 969 2650 878 2297 
L 328 2372 
Q 403 2725 575 2942 
Q 747 3159 1072 3276 
Q 1397 3394 1825 3394 
Q 2250 3394 2515 3294 
Q 2781 3194 2906 3042 
Q 3031 2891 3081 2659 
Q 3109 2516 3109 2141 
L 3109 1391 
Q 3109 606 3145 398 
Q 3181 191 3288 0 
L 2700 0 
Q 2613 175 2588 409 
z
M 2541 1666 
Q 2234 1541 1622 1453 
Q 1275 1403 1131 1340 
Q 988 1278 909 1158 
Q 831 1038 831 891 
Q 831 666 1001 516 
Q 1172 366 1500 366 
Q 1825 366 2078 508 
Q 2331 650 2450 897 
Q 2541 1088 2541 1459 
L 2541 1666 
z
" transform="scale(0.015625)"/>
       <path id="ArialMT-73" d="M 197 991 
L 753 1078 
Q 800 744 1014 566 
Q 1228 388 1613 388 
Q 2000 388 2187 545 
Q 2375 703 2375 916 
Q 2375 1106 2209 1216 
Q 2094 1291 1634 1406 
Q 1016 1563 777 1677 
Q 538 1791 414 1992 
Q 291 2194 291 2438 
Q 291 2659 392 2848 
Q 494 3038 669 3163 
Q 800 3259 1026 3326 
Q 1253 3394 1513 3394 
Q 1903 3394 2198 3281 
Q 2494 3169 2634 2976 
Q 2775 2784 2828 2463 
L 2278 2388 
Q 2241 2644 2061 2787 
Q 1881 2931 1553 2931 
Q 1166 2931 1000 2803 
Q 834 2675 834 2503 
Q 834 2394 903 2306 
Q 972 2216 1119 2156 
Q 1203 2125 1616 2013 
Q 2213 1853 2448 1751 
Q 2684 1650 2818 1456 
Q 2953 1263 2953 975 
Q 2953 694 2789 445 
Q 2625 197 2315 61 
Q 2006 -75 1616 -75 
Q 969 -75 630 194 
Q 291 463 197 991 
z
" transform="scale(0.015625)"/>
       <path id="ArialMT-74" d="M 1650 503 
L 1731 6 
Q 1494 -44 1306 -44 
Q 1000 -44 831 53 
Q 663 150 594 308 
Q 525 466 525 972 
L 525 2881 
L 113 2881 
L 113 3319 
L 525 3319 
L 525 4141 
L 1084 4478 
L 1084 3319 
L 1650 3319 
L 1650 2881 
L 1084 2881 
L 1084 941 
Q 1084 700 1114 631 
Q 1144 563 1211 522 
Q 1278 481 1403 481 
Q 1497 481 1650 503 
z
" transform="scale(0.015625)"/>
       <path id="ArialMT-63" d="M 2588 1216 
L 3141 1144 
Q 3050 572 2676 248 
Q 2303 -75 1759 -75 
Q 1078 -75 664 370 
Q 250 816 250 1647 
Q 250 2184 428 2587 
Q 606 2991 970 3192 
Q 1334 3394 1763 3394 
Q 2303 3394 2647 3120 
Q 2991 2847 3088 2344 
L 2541 2259 
Q 2463 2594 2264 2762 
Q 2066 2931 1784 2931 
Q 1359 2931 1093 2626 
Q 828 2322 828 1663 
Q 828 994 1084 691 
Q 1341 388 1753 388 
Q 2084 388 2306 591 
Q 2528 794 2588 1216 
z
" transform="scale(0.015625)"/>
       <path id="ArialMT-71" d="M 2538 -1272 
L 2538 353 
Q 2406 169 2170 47 
Q 1934 -75 1669 -75 
Q 1078 -75 651 397 
Q 225 869 225 1691 
Q 225 2191 398 2587 
Q 572 2984 901 3189 
Q 1231 3394 1625 3394 
Q 2241 3394 2594 2875 
L 2594 3319 
L 3100 3319 
L 3100 -1272 
L 2538 -1272 
z
M 803 1669 
Q 803 1028 1072 708 
Q 1341 388 1716 388 
Q 2075 388 2334 692 
Q 2594 997 2594 1619 
Q 2594 2281 2320 2615 
Q 2047 2950 1678 2950 
Q 1313 2950 1058 2639 
Q 803 2328 803 1669 
z
" transform="scale(0.015625)"/>
       <path id="ArialMT-75" d="M 2597 0 
L 2597 488 
Q 2209 -75 1544 -75 
Q 1250 -75 995 37 
Q 741 150 617 320 
Q 494 491 444 738 
Q 409 903 409 1263 
L 409 3319 
L 972 3319 
L 972 1478 
Q 972 1038 1006 884 
Q 1059 663 1231 536 
Q 1403 409 1656 409 
Q 1909 409 2131 539 
Q 2353 669 2445 892 
Q 2538 1116 2538 1541 
L 2538 3319 
L 3100 3319 
L 3100 0 
L 2597 0 
z
" transform="scale(0.015625)"/>
       <path id="ArialMT-6e" d="M 422 0 
L 422 3319 
L 928 3319 
L 928 2847 
Q 1294 3394 1984 3394 
Q 2284 3394 2536 3286 
Q 2788 3178 2913 3003 
Q 3038 2828 3088 2588 
Q 3119 2431 3119 2041 
L 3119 0 
L 2556 0 
L 2556 2019 
Q 2556 2363 2490 2533 
Q 2425 2703 2258 2804 
Q 2091 2906 1866 2906 
Q 1506 2906 1245 2678 
Q 984 2450 984 1813 
L 984 0 
L 422 0 
z
" transform="scale(0.015625)"/>
       <path id="Cmmi10-6e" d="M 494 109 
Q 494 147 500 166 
L 978 2075 
Q 1025 2253 1025 2388 
Q 1025 2663 838 2663 
Q 638 2663 541 2423 
Q 444 2184 353 1819 
Q 353 1800 334 1789 
Q 316 1778 300 1778 
L 225 1778 
Q 203 1778 187 1801 
Q 172 1825 172 1844 
Q 241 2122 305 2315 
Q 369 2509 505 2668 
Q 641 2828 844 2828 
Q 1084 2828 1268 2676 
Q 1453 2525 1453 2291 
Q 1644 2541 1900 2684 
Q 2156 2828 2444 2828 
Q 2672 2828 2837 2750 
Q 3003 2672 3095 2514 
Q 3188 2356 3188 2138 
Q 3188 1875 3070 1503 
Q 2953 1131 2778 672 
Q 2688 463 2688 288 
Q 2688 97 2834 97 
Q 3084 97 3251 365 
Q 3419 634 3488 941 
Q 3500 978 3541 978 
L 3616 978 
Q 3641 978 3658 962 
Q 3675 947 3675 922 
Q 3675 916 3669 903 
Q 3581 541 3364 234 
Q 3147 -72 2822 -72 
Q 2597 -72 2437 83 
Q 2278 238 2278 459 
Q 2278 578 2328 709 
Q 2409 919 2514 1209 
Q 2619 1500 2686 1765 
Q 2753 2031 2753 2234 
Q 2753 2413 2679 2538 
Q 2606 2663 2431 2663 
Q 2197 2663 2000 2559 
Q 1803 2456 1656 2286 
Q 1509 2116 1388 1881 
L 953 141 
Q 931 53 854 -9 
Q 778 -72 684 -72 
Q 606 -72 550 -22 
Q 494 28 494 109 
z
" transform="scale(0.015625)"/>
       <path id="Cmmi10-61" d="M 1113 -72 
Q 709 -72 476 233 
Q 244 538 244 953 
Q 244 1363 456 1803 
Q 669 2244 1030 2536 
Q 1391 2828 1806 2828 
Q 1997 2828 2147 2725 
Q 2297 2622 2381 2444 
Q 2453 2700 2663 2700 
Q 2744 2700 2798 2651 
Q 2853 2603 2853 2522 
Q 2853 2503 2851 2493 
Q 2850 2484 2847 2472 
L 2400 684 
Q 2356 494 2356 372 
Q 2356 97 2541 97 
Q 2741 97 2845 351 
Q 2950 606 3022 941 
Q 3034 978 3072 978 
L 3150 978 
Q 3175 978 3190 956 
Q 3206 934 3206 916 
Q 3094 469 2961 198 
Q 2828 -72 2528 -72 
Q 2313 -72 2147 54 
Q 1981 181 1941 391 
Q 1528 -72 1113 -72 
z
M 1119 97 
Q 1350 97 1567 270 
Q 1784 444 1941 678 
Q 1947 684 1947 697 
L 2291 2088 
L 2297 2106 
Q 2259 2334 2132 2498 
Q 2006 2663 1791 2663 
Q 1575 2663 1389 2486 
Q 1203 2309 1075 2069 
Q 950 1813 836 1366 
Q 722 919 722 672 
Q 722 450 817 273 
Q 913 97 1119 97 
z
" transform="scale(0.015625)"/>
       <path id="Cmmi10-63" d="M 750 763 
Q 750 484 892 290 
Q 1034 97 1300 97 
Q 1681 97 2032 272 
Q 2384 447 2606 756 
Q 2625 775 2656 775 
Q 2688 775 2720 739 
Q 2753 703 2753 672 
Q 2753 647 2741 634 
Q 2506 306 2109 117 
Q 1713 -72 1288 -72 
Q 981 -72 747 73 
Q 513 219 384 462 
Q 256 706 256 1013 
Q 256 1444 497 1869 
Q 738 2294 1138 2561 
Q 1538 2828 1978 2828 
Q 2266 2828 2495 2689 
Q 2725 2550 2725 2278 
Q 2725 2103 2623 1979 
Q 2522 1856 2350 1856 
Q 2247 1856 2176 1920 
Q 2106 1984 2106 2088 
Q 2106 2238 2215 2344 
Q 2325 2450 2472 2450 
L 2484 2450 
Q 2409 2559 2267 2611 
Q 2125 2663 1972 2663 
Q 1597 2663 1315 2342 
Q 1034 2022 892 1576 
Q 750 1131 750 763 
z
" transform="scale(0.015625)"/>
       <path id="Cmmi10-71" d="M 941 -1159 
Q 963 -1019 1025 -1019 
Q 1256 -1019 1389 -981 
Q 1522 -944 1563 -800 
L 1838 288 
Q 1472 -72 1106 -72 
Q 703 -72 473 233 
Q 244 538 244 953 
Q 244 1363 455 1803 
Q 666 2244 1027 2536 
Q 1388 2828 1806 2828 
Q 2000 2828 2156 2712 
Q 2313 2597 2394 2406 
Q 2431 2481 2601 2654 
Q 2772 2828 2841 2828 
Q 2913 2828 2913 2747 
L 2016 -825 
Q 2000 -919 1997 -934 
Q 1997 -1019 2419 -1019 
Q 2450 -1019 2467 -1044 
Q 2484 -1069 2484 -1100 
Q 2463 -1184 2448 -1212 
Q 2434 -1241 2375 -1241 
L 1006 -1241 
Q 941 -1241 941 -1159 
z
M 1119 97 
Q 1344 97 1558 267 
Q 1772 438 1931 672 
L 2291 2113 
Q 2253 2338 2126 2500 
Q 2000 2663 1791 2663 
Q 1575 2663 1389 2486 
Q 1203 2309 1075 2069 
Q 950 1813 836 1366 
Q 722 919 722 672 
Q 722 450 817 273 
Q 913 97 1119 97 
z
" transform="scale(0.015625)"/>
      </defs>
      <use xlink:href="#ArialMT-54" transform="translate(0 0.203125)"/>
      <use xlink:href="#ArialMT-72" transform="translate(61.083984 0.203125)"/>
      <use xlink:href="#ArialMT-69" transform="translate(94.384766 0.203125)"/>
      <use xlink:href="#ArialMT-61" transform="translate(116.601562 0.203125)"/>
      <use xlink:href="#ArialMT-6c" transform="translate(172.216797 0.203125)"/>
      <use xlink:href="#ArialMT-73" transform="translate(194.433594 0.203125)"/>
      <use xlink:href="#ArialMT-20" transform="translate(244.433594 0.203125)"/>
      <use xlink:href="#ArialMT-74" transform="translate(272.216797 0.203125)"/>
      <use xlink:href="#ArialMT-6f" transform="translate(300 0.203125)"/>
      <use xlink:href="#ArialMT-20" transform="translate(355.615234 0.203125)"/>
      <use xlink:href="#ArialMT-61" transform="translate(383.398438 0.203125)"/>
      <use xlink:href="#ArialMT-63" transform="translate(439.013672 0.203125)"/>
      <use xlink:href="#ArialMT-71" transform="translate(489.013672 0.203125)"/>
      <use xlink:href="#ArialMT-75" transform="translate(544.628906 0.203125)"/>
      <use xlink:href="#ArialMT-69" transform="translate(600.244141 0.203125)"/>
      <use xlink:href="#ArialMT-73" transform="translate(622.460938 0.203125)"/>
      <use xlink:href="#ArialMT-69" transform="translate(672.460938 0.203125)"/>
      <use xlink:href="#ArialMT-74" transform="translate(694.677734 0.203125)"/>
      <use xlink:href="#ArialMT-69" transform="translate(722.460938 0.203125)"/>
      <use xlink:href="#ArialMT-6f" transform="translate(744.677734 0.203125)"/>
      <use xlink:href="#ArialMT-6e" transform="translate(800.292969 0.203125)"/>
      <use xlink:href="#ArialMT-20" transform="translate(855.908203 0.203125)"/>
      <use xlink:href="#Cmmi10-6e" transform="translate(883.691406 0.203125)"/>
      <use xlink:href="#Cmmi10-61" transform="translate(943.701172 -16.803125) scale(0.7)"/>
      <use xlink:href="#Cmmi10-63" transform="translate(980.649414 -16.803125) scale(0.7)"/>
      <use xlink:href="#Cmmi10-71" transform="translate(1010.898438 -16.803125) scale(0.7)"/>
      <use xlink:href="#ArialMT-20" transform="translate(1048.481836 0.203125)"/>
      <use xlink:href="#ArialMT-28" transform="translate(1076.265039 0.203125)"/>
      <use xlink:href="#ArialMT-6c" transform="translate(1109.56582 0.203125)"/>
      <use xlink:href="#ArialMT-6f" transform="translate(1131.782617 0.203125)"/>
      <use xlink:href="#ArialMT-67" transform="translate(1187.397852 0.203125)"/>
      <use xlink:href="#ArialMT-29" transform="translate(1243.013086 0.203125)"/>
     </g>
    </g>
   </g>
   <g id="line2d_47">
    <defs>
     <path id="m254dda4dfe" d="M 0 2.5 
C 0.663008 2.5 1.29895 2.236584 1.767767 1.767767 
C 2.236584 1.29895 2.5 0.663008 2.5 0 
C 2.5 -0.663008 2.236584 -1.29895 1.767767 -1.767767 
C 1.29895 -2.236584 0.663008 -2.5 0 -2.5 
C -0.663008 -2.5 -1.29895 -2.236584 -1.767767 -1.767767 
C -2.236584 -1.29895 -2.5 -0.663008 -2.5 0 
C -2.5 0.663008 -2.236584 1.29895 -1.767767 1.767767 
C -1.29895 2.236584 -0.663008 2.5 0 2.5 
z
" style="stroke: #7dba91"/>
    </defs>
    <g clip-path="url(#pa708bcc74d)">
     <use xlink:href="#m254dda4dfe" x="149.640743" y="79.57292" style="fill: #7dba91; stroke: #7dba91"/>
     <use xlink:href="#m254dda4dfe" x="162.081907" y="100.479857" style="fill: #7dba91; stroke: #7dba91"/>
     <use xlink:href="#m254dda4dfe" x="174.523071" y="115.72405" style="fill: #7dba91; stroke: #7dba91"/>
     <use xlink:href="#m254dda4dfe" x="186.964235" y="131.440881" style="fill: #7dba91; stroke: #7dba91"/>
     <use xlink:href="#m254dda4dfe" x="199.405398" y="146.912424" style="fill: #7dba91; stroke: #7dba91"/>
     <use xlink:href="#m254dda4dfe" x="211.846562" y="159.553367" style="fill: #7dba91; stroke: #7dba91"/>
     <use xlink:href="#m254dda4dfe" x="224.287726" y="174.125334" style="fill: #7dba91; stroke: #7dba91"/>
     <use xlink:href="#m254dda4dfe" x="236.72889" y="187.289236" style="fill: #7dba91; stroke: #7dba91"/>
     <use xlink:href="#m254dda4dfe" x="249.170054" y="200.453138" style="fill: #7dba91; stroke: #7dba91"/>
     <use xlink:href="#m254dda4dfe" x="261.611218" y="211.952912" style="fill: #7dba91; stroke: #7dba91"/>
     <use xlink:href="#m254dda4dfe" x="274.052382" y="224.396193" style="fill: #7dba91; stroke: #7dba91"/>
     <use xlink:href="#m254dda4dfe" x="286.493546" y="237.560095" style="fill: #7dba91; stroke: #7dba91"/>
     <use xlink:href="#m254dda4dfe" x="298.93471" y="250.723997" style="fill: #7dba91; stroke: #7dba91"/>
     <use xlink:href="#m254dda4dfe" x="311.375874" y="262.22377" style="fill: #7dba91; stroke: #7dba91"/>
     <use xlink:href="#m254dda4dfe" x="323.817038" y="277.620238" style="fill: #7dba91; stroke: #7dba91"/>
     <use xlink:href="#m254dda4dfe" x="336.258202" y="287.830953" style="fill: #7dba91; stroke: #7dba91"/>
     <use xlink:href="#m254dda4dfe" x="348.699365" y="300.994856" style="fill: #7dba91; stroke: #7dba91"/>
     <use xlink:href="#m254dda4dfe" x="361.140529" y="319.548334" style="fill: #7dba91; stroke: #7dba91"/>
     <use xlink:href="#m254dda4dfe" x="373.581693" y="319.548334" style="fill: #7dba91; stroke: #7dba91"/>
     <use xlink:href="#m254dda4dfe" x="386.022857" y="351.265714" style="fill: #7dba91; stroke: #7dba91"/>
    </g>
   </g>
   <g id="line2d_48">
    <path d="M 149.640743 86.074094 
L 162.081907 100.612423 
L 174.523071 115.023956 
L 186.964235 129.308692 
L 199.405398 143.466632 
L 211.846562 157.497776 
L 224.287726 171.402124 
L 236.72889 185.179675 
L 249.170054 198.83043 
L 261.611218 212.354388 
L 274.052382 225.751551 
L 286.493546 239.021916 
L 298.93471 252.165486 
L 311.375874 265.182259 
L 323.817038 278.072236 
L 336.258202 290.835417 
L 348.699365 303.471801 
L 361.140529 315.981389 
L 373.581693 328.364181 
L 386.022857 340.620176 
" clip-path="url(#pa708bcc74d)" style="fill: none; stroke: #7dba91; stroke-opacity: 0.7; stroke-width: 2; stroke-linecap: round"/>
   </g>
   <g id="line2d_49">
    <defs>
     <path id="m218081d24d" d="M 0 2.5 
C 0.663008 2.5 1.29895 2.236584 1.767767 1.767767 
C 2.236584 1.29895 2.5 0.663008 2.5 0 
C 2.5 -0.663008 2.236584 -1.29895 1.767767 -1.767767 
C 1.29895 -2.236584 0.663008 -2.5 0 -2.5 
C -0.663008 -2.5 -1.29895 -2.236584 -1.767767 -1.767767 
C -2.236584 -1.29895 -2.5 -0.663008 -2.5 0 
C -2.5 0.663008 -2.236584 1.29895 -1.767767 1.767767 
C -1.29895 2.236584 -0.663008 2.5 0 2.5 
z
" style="stroke: #59a590"/>
    </defs>
    <g clip-path="url(#pa708bcc74d)">
     <use xlink:href="#m218081d24d" x="149.640743" y="78.854185" style="fill: #59a590; stroke: #59a590"/>
     <use xlink:href="#m218081d24d" x="162.081907" y="99.536349" style="fill: #59a590; stroke: #59a590"/>
     <use xlink:href="#m218081d24d" x="174.523071" y="114.672084" style="fill: #59a590; stroke: #59a590"/>
     <use xlink:href="#m218081d24d" x="186.964235" y="130.329284" style="fill: #59a590; stroke: #59a590"/>
     <use xlink:href="#m218081d24d" x="199.405398" y="145.36114" style="fill: #59a590; stroke: #59a590"/>
     <use xlink:href="#m218081d24d" x="211.846562" y="157.51932" style="fill: #59a590; stroke: #59a590"/>
     <use xlink:href="#m218081d24d" x="224.287726" y="172.25738" style="fill: #59a590; stroke: #59a590"/>
     <use xlink:href="#m218081d24d" x="236.72889" y="184.815201" style="fill: #59a590; stroke: #59a590"/>
     <use xlink:href="#m218081d24d" x="249.170054" y="197.183283" style="fill: #59a590; stroke: #59a590"/>
     <use xlink:href="#m218081d24d" x="261.611218" y="207.790179" style="fill: #59a590; stroke: #59a590"/>
     <use xlink:href="#m218081d24d" x="274.052382" y="221.6221" style="fill: #59a590; stroke: #59a590"/>
     <use xlink:href="#m218081d24d" x="286.493546" y="230.50639" style="fill: #59a590; stroke: #59a590"/>
     <use xlink:href="#m218081d24d" x="298.93471" y="241.541606" style="fill: #59a590; stroke: #59a590"/>
     <use xlink:href="#m218081d24d" x="311.375874" y="250.723997" style="fill: #59a590; stroke: #59a590"/>
     <use xlink:href="#m218081d24d" x="323.817038" y="262.22377" style="fill: #59a590; stroke: #59a590"/>
     <use xlink:href="#m218081d24d" x="336.258202" y="277.620238" style="fill: #59a590; stroke: #59a590"/>
     <use xlink:href="#m218081d24d" x="348.699365" y="287.830953" style="fill: #59a590; stroke: #59a590"/>
     <use xlink:href="#m218081d24d" x="361.140529" y="287.830953" style="fill: #59a590; stroke: #59a590"/>
     <use xlink:href="#m218081d24d" x="373.581693" y="300.994856" style="fill: #59a590; stroke: #59a590"/>
     <use xlink:href="#m218081d24d" x="386.022857" y="319.548334" style="fill: #59a590; stroke: #59a590"/>
    </g>
   </g>
   <g id="line2d_50">
    <path d="M 149.640743 83.863175 
L 162.081907 99.162351 
L 174.523071 114.097189 
L 186.964235 128.667689 
L 199.405398 142.873852 
L 211.846562 156.715676 
L 224.287726 170.193162 
L 236.72889 183.30631 
L 249.170054 196.055119 
L 261.611218 208.439591 
L 274.052382 220.459725 
L 286.493546 232.115521 
L 298.93471 243.406978 
L 311.375874 254.334098 
L 323.817038 264.896879 
L 336.258202 275.095323 
L 348.699365 284.929428 
L 361.140529 294.399196 
L 373.581693 303.504625 
L 386.022857 312.245716 
" clip-path="url(#pa708bcc74d)" style="fill: none; stroke: #59a590; stroke-opacity: 0.7; stroke-width: 2; stroke-linecap: round"/>
   </g>
   <g id="line2d_51">
    <defs>
     <path id="m726bca8b6f" d="M 0 2.5 
C 0.663008 2.5 1.29895 2.236584 1.767767 1.767767 
C 2.236584 1.29895 2.5 0.663008 2.5 0 
C 2.5 -0.663008 2.236584 -1.29895 1.767767 -1.767767 
C 1.29895 -2.236584 0.663008 -2.5 0 -2.5 
C -0.663008 -2.5 -1.29895 -2.236584 -1.767767 -1.767767 
C -2.236584 -1.29895 -2.5 -0.663008 -2.5 0 
C -2.5 0.663008 -2.236584 1.29895 -1.767767 1.767767 
C -1.29895 2.236584 -0.663008 2.5 0 2.5 
z
" style="stroke: #40908e"/>
    </defs>
    <g clip-path="url(#pa708bcc74d)">
     <use xlink:href="#m726bca8b6f" x="149.640743" y="78.263744" style="fill: #40908e; stroke: #40908e"/>
     <use xlink:href="#m726bca8b6f" x="162.081907" y="98.795305" style="fill: #40908e; stroke: #40908e"/>
     <use xlink:href="#m726bca8b6f" x="174.523071" y="113.64376" style="fill: #40908e; stroke: #40908e"/>
     <use xlink:href="#m726bca8b6f" x="186.964235" y="128.887952" style="fill: #40908e; stroke: #40908e"/>
     <use xlink:href="#m726bca8b6f" x="199.405398" y="143.860727" style="fill: #40908e; stroke: #40908e"/>
     <use xlink:href="#m726bca8b6f" x="211.846562" y="155.571856" style="fill: #40908e; stroke: #40908e"/>
     <use xlink:href="#m726bca8b6f" x="224.287726" y="170.462699" style="fill: #40908e; stroke: #40908e"/>
     <use xlink:href="#m726bca8b6f" x="236.72889" y="182.468096" style="fill: #40908e; stroke: #40908e"/>
     <use xlink:href="#m726bca8b6f" x="249.170054" y="194.131585" style="fill: #40908e; stroke: #40908e"/>
     <use xlink:href="#m726bca8b6f" x="261.611218" y="205.842714" style="fill: #40908e; stroke: #40908e"/>
     <use xlink:href="#m726bca8b6f" x="274.052382" y="216.532581" style="fill: #40908e; stroke: #40908e"/>
     <use xlink:href="#m726bca8b6f" x="286.493546" y="227.349379" style="fill: #40908e; stroke: #40908e"/>
     <use xlink:href="#m726bca8b6f" x="298.93471" y="237.560095" style="fill: #40908e; stroke: #40908e"/>
     <use xlink:href="#m726bca8b6f" x="311.375874" y="245.902857" style="fill: #40908e; stroke: #40908e"/>
     <use xlink:href="#m726bca8b6f" x="323.817038" y="256.113573" style="fill: #40908e; stroke: #40908e"/>
     <use xlink:href="#m726bca8b6f" x="336.258202" y="262.22377" style="fill: #40908e; stroke: #40908e"/>
     <use xlink:href="#m726bca8b6f" x="348.699365" y="269.277475" style="fill: #40908e; stroke: #40908e"/>
     <use xlink:href="#m726bca8b6f" x="361.140529" y="277.620238" style="fill: #40908e; stroke: #40908e"/>
     <use xlink:href="#m726bca8b6f" x="373.581693" y="287.830953" style="fill: #40908e; stroke: #40908e"/>
     <use xlink:href="#m726bca8b6f" x="386.022857" y="300.994856" style="fill: #40908e; stroke: #40908e"/>
    </g>
   </g>
   <g id="line2d_52">
    <path d="M 149.640743 82.367079 
L 162.081907 98.024164 
L 174.523071 113.182254 
L 186.964235 127.84135 
L 199.405398 142.001452 
L 211.846562 155.66256 
L 224.287726 168.824673 
L 236.72889 181.487792 
L 249.170054 193.651917 
L 261.611218 205.317048 
L 274.052382 216.483184 
L 286.493546 227.150326 
L 298.93471 237.318474 
L 311.375874 246.987628 
L 323.817038 256.157787 
L 336.258202 264.828952 
L 348.699365 273.001123 
L 361.140529 280.6743 
L 373.581693 287.848482 
L 386.022857 294.52367 
" clip-path="url(#pa708bcc74d)" style="fill: none; stroke: #40908e; stroke-opacity: 0.7; stroke-width: 2; stroke-linecap: round"/>
   </g>
   <g id="line2d_53">
    <defs>
     <path id="m3826662ae3" d="M 0 2.5 
C 0.663008 2.5 1.29895 2.236584 1.767767 1.767767 
C 2.236584 1.29895 2.5 0.663008 2.5 0 
C 2.5 -0.663008 2.236584 -1.29895 1.767767 -1.767767 
C 1.29895 -2.236584 0.663008 -2.5 0 -2.5 
C -0.663008 -2.5 -1.29895 -2.236584 -1.767767 -1.767767 
C -2.236584 -1.29895 -2.5 -0.663008 -2.5 0 
C -2.5 0.663008 -2.236584 1.29895 -1.767767 1.767767 
C -1.29895 2.236584 -0.663008 2.5 0 2.5 
z
" style="stroke: #287a8c"/>
    </defs>
    <g clip-path="url(#pa708bcc74d)">
     <use xlink:href="#m3826662ae3" x="149.640743" y="77.565128" style="fill: #287a8c; stroke: #287a8c"/>
     <use xlink:href="#m3826662ae3" x="162.081907" y="97.885563" style="fill: #287a8c; stroke: #287a8c"/>
     <use xlink:href="#m3826662ae3" x="174.523071" y="112.638038" style="fill: #287a8c; stroke: #287a8c"/>
     <use xlink:href="#m3826662ae3" x="186.964235" y="127.835986" style="fill: #287a8c; stroke: #287a8c"/>
     <use xlink:href="#m3826662ae3" x="199.405398" y="142.407954" style="fill: #287a8c; stroke: #287a8c"/>
     <use xlink:href="#m3826662ae3" x="211.846562" y="153.703902" style="fill: #287a8c; stroke: #287a8c"/>
     <use xlink:href="#m3826662ae3" x="224.287726" y="167.896129" style="fill: #287a8c; stroke: #287a8c"/>
     <use xlink:href="#m3826662ae3" x="236.72889" y="179.158811" style="fill: #287a8c; stroke: #287a8c"/>
     <use xlink:href="#m3826662ae3" x="249.170054" y="191.270747" style="fill: #287a8c; stroke: #287a8c"/>
     <use xlink:href="#m3826662ae3" x="261.611218" y="202.18008" style="fill: #287a8c; stroke: #287a8c"/>
     <use xlink:href="#m3826662ae3" x="274.052382" y="211.952912" style="fill: #287a8c; stroke: #287a8c"/>
     <use xlink:href="#m3826662ae3" x="286.493546" y="221.6221" style="fill: #287a8c; stroke: #287a8c"/>
     <use xlink:href="#m3826662ae3" x="298.93471" y="230.50639" style="fill: #287a8c; stroke: #287a8c"/>
     <use xlink:href="#m3826662ae3" x="311.375874" y="241.541606" style="fill: #287a8c; stroke: #287a8c"/>
     <use xlink:href="#m3826662ae3" x="323.817038" y="250.723997" style="fill: #287a8c; stroke: #287a8c"/>
     <use xlink:href="#m3826662ae3" x="336.258202" y="256.113573" style="fill: #287a8c; stroke: #287a8c"/>
     <use xlink:href="#m3826662ae3" x="348.699365" y="262.22377" style="fill: #287a8c; stroke: #287a8c"/>
     <use xlink:href="#m3826662ae3" x="361.140529" y="269.277475" style="fill: #287a8c; stroke: #287a8c"/>
     <use xlink:href="#m3826662ae3" x="373.581693" y="277.620238" style="fill: #287a8c; stroke: #287a8c"/>
     <use xlink:href="#m3826662ae3" x="386.022857" y="277.620238" style="fill: #287a8c; stroke: #287a8c"/>
    </g>
   </g>
   <g id="line2d_54">
    <path d="M 149.640743 80.431746 
L 162.081907 96.450478 
L 174.523071 111.854781 
L 186.964235 126.644655 
L 199.405398 140.820099 
L 211.846562 154.381114 
L 224.287726 167.3277 
L 236.72889 179.659856 
L 249.170054 191.377583 
L 261.611218 202.480881 
L 274.052382 212.96975 
L 286.493546 222.844189 
L 298.93471 232.104199 
L 311.375874 240.749779 
L 323.817038 248.78093 
L 336.258202 256.197652 
L 348.699365 262.999945 
L 361.140529 269.187808 
L 373.581693 274.761243 
L 386.022857 279.720247 
" clip-path="url(#pa708bcc74d)" style="fill: none; stroke: #287a8c; stroke-opacity: 0.7; stroke-width: 2; stroke-linecap: round"/>
   </g>
   <g id="patch_3">
    <path d="M 116.907214 351.265714 
L 116.907214 35.177143 
" style="fill: none; stroke: #262626; stroke-width: 3; stroke-linejoin: miter; stroke-linecap: square"/>
   </g>
   <g id="patch_4">
    <path d="M 116.907214 351.265714 
L 386.022857 351.265714 
" style="fill: none; stroke: #262626; stroke-width: 3; stroke-linejoin: miter; stroke-linecap: square"/>
   </g>
   <g id="legend_1">
    <g id="line2d_55">
     <g>
      <use xlink:href="#m254dda4dfe" x="259.949107" y="63.02433" style="fill: #7dba91; stroke: #7dba91"/>
     </g>
    </g>
    <g id="text_19">
     <!-- ε = -5 -->
     <g style="fill: #262626" transform="translate(299.549107 70.72433) scale(0.22 -0.22)">
      <defs>
       <path id="ArialMT-3b5" d="M 2591 2944 
L 2188 2619 
Q 1803 2909 1469 2909 
Q 1194 2909 1067 2762 
Q 941 2616 941 2447 
Q 941 2228 1128 2083 
Q 1316 1938 1678 1938 
Q 1725 1938 1834 1941 
L 1834 1469 
Q 1734 1472 1684 1472 
Q 1238 1472 1064 1300 
Q 891 1128 891 913 
Q 891 691 1066 539 
Q 1241 388 1481 388 
Q 1922 388 2306 797 
L 2709 456 
Q 2209 -75 1466 -75 
Q 881 -75 593 222 
Q 306 519 306 913 
Q 306 1478 856 1716 
Q 397 1975 397 2431 
Q 397 2803 669 3098 
Q 941 3394 1503 3394 
Q 2147 3394 2591 2944 
z
" transform="scale(0.015625)"/>
       <path id="ArialMT-3d" d="M 3381 2694 
L 356 2694 
L 356 3219 
L 3381 3219 
L 3381 2694 
z
M 3381 1303 
L 356 1303 
L 356 1828 
L 3381 1828 
L 3381 1303 
z
" transform="scale(0.015625)"/>
       <path id="ArialMT-2d" d="M 203 1375 
L 203 1941 
L 1931 1941 
L 1931 1375 
L 203 1375 
z
" transform="scale(0.015625)"/>
      </defs>
      <use xlink:href="#ArialMT-3b5"/>
      <use xlink:href="#ArialMT-20" transform="translate(44.580078 0)"/>
      <use xlink:href="#ArialMT-3d" transform="translate(72.363281 0)"/>
      <use xlink:href="#ArialMT-20" transform="translate(130.761719 0)"/>
      <use xlink:href="#ArialMT-2d" transform="translate(158.544922 0)"/>
      <use xlink:href="#ArialMT-35" transform="translate(191.845703 0)"/>
     </g>
    </g>
    <g id="line2d_56">
     <g>
      <use xlink:href="#m218081d24d" x="259.949107" y="94.144018" style="fill: #59a590; stroke: #59a590"/>
     </g>
    </g>
    <g id="text_20">
     <!-- ε = -10 -->
     <g style="fill: #262626" transform="translate(299.549107 101.844018) scale(0.22 -0.22)">
      <use xlink:href="#ArialMT-3b5"/>
      <use xlink:href="#ArialMT-20" transform="translate(44.580078 0)"/>
      <use xlink:href="#ArialMT-3d" transform="translate(72.363281 0)"/>
      <use xlink:href="#ArialMT-20" transform="translate(130.761719 0)"/>
      <use xlink:href="#ArialMT-2d" transform="translate(158.544922 0)"/>
      <use xlink:href="#ArialMT-31" transform="translate(191.845703 0)"/>
      <use xlink:href="#ArialMT-30" transform="translate(247.460938 0)"/>
     </g>
    </g>
    <g id="line2d_57">
     <g>
      <use xlink:href="#m726bca8b6f" x="259.949107" y="125.263705" style="fill: #40908e; stroke: #40908e"/>
     </g>
    </g>
    <g id="text_21">
     <!-- ε = -15 -->
     <g style="fill: #262626" transform="translate(299.549107 132.963705) scale(0.22 -0.22)">
      <use xlink:href="#ArialMT-3b5"/>
      <use xlink:href="#ArialMT-20" transform="translate(44.580078 0)"/>
      <use xlink:href="#ArialMT-3d" transform="translate(72.363281 0)"/>
      <use xlink:href="#ArialMT-20" transform="translate(130.761719 0)"/>
      <use xlink:href="#ArialMT-2d" transform="translate(158.544922 0)"/>
      <use xlink:href="#ArialMT-31" transform="translate(191.845703 0)"/>
      <use xlink:href="#ArialMT-35" transform="translate(247.460938 0)"/>
     </g>
    </g>
    <g id="line2d_58">
     <g>
      <use xlink:href="#m3826662ae3" x="259.949107" y="156.383393" style="fill: #287a8c; stroke: #287a8c"/>
     </g>
    </g>
    <g id="text_22">
     <!-- ε = -20 -->
     <g style="fill: #262626" transform="translate(299.549107 164.083393) scale(0.22 -0.22)">
      <use xlink:href="#ArialMT-3b5"/>
      <use xlink:href="#ArialMT-20" transform="translate(44.580078 0)"/>
      <use xlink:href="#ArialMT-3d" transform="translate(72.363281 0)"/>
      <use xlink:href="#ArialMT-20" transform="translate(130.761719 0)"/>
      <use xlink:href="#ArialMT-2d" transform="translate(158.544922 0)"/>
      <use xlink:href="#ArialMT-32" transform="translate(191.845703 0)"/>
      <use xlink:href="#ArialMT-30" transform="translate(247.460938 0)"/>
     </g>
    </g>
   </g>
  </g>
 </g>
 <defs>
  <clipPath id="pa708bcc74d">
   <rect x="116.907214" y="35.177143" width="269.115643" height="316.088571"/>
  </clipPath>
 </defs>
</svg>
